<svg width="43" height="49" viewBox="0 0 43 49" fill="none" xmlns="http://www.w3.org/2000/svg">
<path d="M13.8724 10.0494C12.3936 10.6025 11.334 12.0068 11.334 13.6618C11.334 14.2991 11.5054 14.8922 11.7823 15.4233C10.6093 15.8698 9.77002 16.9895 9.77002 18.3069C9.77002 19.6246 10.6093 20.7439 11.7823 21.1908C11.5054 21.7219 11.334 22.315 11.334 22.952C11.334 24.6073 12.3936 26.0116 13.8724 26.5643C13.7552 26.8886 13.68 27.2334 13.68 27.5971C13.68 29.3049 15.0828 30.6938 16.8079 30.6938C17.1974 30.6938 17.5666 30.614 17.9107 30.4855C18.4174 31.5209 19.48 32.2421 20.7179 32.2421C22.443 32.2421 23.8459 30.8533 23.8459 29.1454V7.46831C23.8459 5.7608 22.443 4.37158 20.7179 4.37158C19.48 4.37158 18.4174 5.09322 17.9107 6.12823C17.5666 5.99971 17.1974 5.91995 16.8079 5.91995C15.0828 5.91995 13.68 7.30917 13.68 9.01668C13.68 9.38071 13.7552 9.72508 13.8724 10.0494ZM16.8079 7.46831C17.6705 7.46831 18.3719 8.16273 18.3719 9.01668H19.9359C19.9359 8.27274 19.6583 7.59759 19.215 7.06345C19.3964 6.40721 19.9978 5.91995 20.7179 5.91995C21.5805 5.91995 22.2819 6.61437 22.2819 7.46831V29.1454C22.2819 29.9994 21.5805 30.6938 20.7179 30.6938C19.9978 30.6938 19.3964 30.2069 19.215 29.5503C19.6583 29.0161 19.9359 28.3414 19.9359 27.5971H18.3719C18.3719 28.451 17.6705 29.1454 16.8079 29.1454C15.9454 29.1454 15.244 28.451 15.244 27.5971C15.244 26.7431 15.9454 26.0487 16.8079 26.0487V24.5003C16.0462 24.5003 15.3566 24.7823 14.814 25.2314C13.7254 25.0307 12.898 24.0871 12.898 22.952C12.898 21.6716 13.9507 20.6294 15.244 20.6294C16.5376 20.6294 17.5899 21.6716 17.5899 22.952H19.1539C19.1539 20.8177 17.4002 19.081 15.244 19.081C14.3604 19.081 13.5532 19.3838 12.898 19.8756V19.8552C12.0354 19.8552 11.334 19.1608 11.334 18.3069C11.334 17.4529 12.0354 16.7585 12.898 16.7585V16.7385C13.5532 17.2303 14.3604 17.5327 15.244 17.5327C17.4002 17.5327 19.1539 15.7964 19.1539 13.6618H17.5899C17.5899 14.9425 16.5376 15.9843 15.244 15.9843C13.9507 15.9843 12.898 14.9425 12.898 13.6618C12.898 12.527 13.7254 11.5834 14.814 11.3827C15.3566 11.8318 16.0462 12.1134 16.8079 12.1134V10.565C15.9454 10.565 15.244 9.87062 15.244 9.01668C15.244 8.16273 15.9454 7.46831 16.8079 7.46831Z" fill="#FFC13E"/>
<path d="M32.4481 5.91995C32.0586 5.91995 31.6898 5.99971 31.3457 6.12823C30.8387 5.09322 29.776 4.37158 28.5381 4.37158C26.813 4.37158 25.4102 5.7608 25.4102 7.46831V29.1454C25.4102 30.8533 26.813 32.2421 28.5381 32.2421C29.776 32.2421 30.8387 31.5209 31.3457 30.4855C31.6898 30.614 32.0586 30.6938 32.4481 30.6938C34.1732 30.6938 35.5761 29.3049 35.5761 27.5971C35.5761 27.2334 35.5012 26.8886 35.3836 26.5643C36.8624 26.0116 37.922 24.6073 37.922 22.952C37.922 22.315 37.751 21.7219 37.4741 21.1908C38.6471 20.7439 39.486 19.6246 39.486 18.3069C39.486 16.9895 38.6471 15.8698 37.4741 15.4233C37.751 14.8922 37.922 14.2991 37.922 13.6618C37.922 12.0068 36.8624 10.6025 35.3836 10.0494C35.5012 9.72508 35.5761 9.38071 35.5761 9.01668C35.5761 7.30917 34.1732 5.91995 32.4481 5.91995ZM36.358 13.6618C36.358 14.9425 35.3057 15.9843 34.0121 15.9843C32.7188 15.9843 31.6661 14.9425 31.6661 13.6618H30.1021C30.1021 15.7964 31.8562 17.5327 34.0121 17.5327C34.8956 17.5327 35.7028 17.2303 36.358 16.7385V16.7585C37.2206 16.7585 37.922 17.4529 37.922 18.3069C37.922 19.1608 37.2206 19.8552 36.358 19.8552V19.8756C35.7028 19.3838 34.8956 19.081 34.0121 19.081C31.8562 19.081 30.1021 20.8177 30.1021 22.952H31.6661C31.6661 21.6716 32.7188 20.6294 34.0121 20.6294C35.3057 20.6294 36.358 21.6716 36.358 22.952C36.358 24.0871 35.5306 25.0307 34.4424 25.2314C33.8994 24.7823 33.2098 24.5003 32.4481 24.5003V26.0487C33.3106 26.0487 34.0121 26.7431 34.0121 27.5971C34.0121 28.451 33.3106 29.1454 32.4481 29.1454C31.5855 29.1454 30.8841 28.451 30.8841 27.5971H29.3201C29.3201 28.3414 29.5977 29.0161 30.041 29.5503C29.8596 30.2069 29.2583 30.6938 28.5381 30.6938C27.6756 30.6938 26.9741 29.9994 26.9741 29.1454V7.46831C26.9741 6.61437 27.6756 5.91995 28.5381 5.91995C29.2583 5.91995 29.8596 6.40721 30.041 7.06345C29.5977 7.59759 29.3201 8.27274 29.3201 9.01668H30.8841C30.8841 8.16273 31.5855 7.46831 32.4481 7.46831C33.3106 7.46831 34.0121 8.16273 34.0121 9.01668C34.0121 9.87062 33.3106 10.565 32.4481 10.565V12.1134C33.2098 12.1134 33.8994 11.8318 34.4424 11.3827C35.5306 11.5834 36.358 12.527 36.358 13.6618Z" fill="#FFC13E"/>
<path d="M36.9421 5.32871C33.288 1.92843 28.5021 0.223565 23.4795 0.536565L23.5765 2.08153C28.1657 1.79915 32.5339 3.35281 35.8715 6.45672C39.2106 9.56328 41.0499 13.7725 41.0499 18.3069C41.0499 23.7711 38.2988 28.8381 33.6904 31.8615C32.1009 32.9048 30.8981 34.3931 30.157 36.1131H19.0667C18.3152 34.3806 17.1079 32.8818 15.5156 31.829C10.7664 28.6865 8.03745 23.4385 8.215 17.7882L6.65178 17.7402C6.45705 23.9276 9.44641 29.6758 14.647 33.1158C15.7955 33.876 16.7127 34.911 17.3519 36.1131H15.2441V37.6614H17.9758C18.1274 38.1631 18.2488 38.6772 18.3102 39.2098H16.8081V40.7582H18.3721V43.0807C18.3721 43.509 18.7226 43.8549 19.1541 43.8549H19.9361C19.9361 46.4167 22.0404 48.5 24.628 48.5C27.2157 48.5 29.32 46.4167 29.32 43.8549H30.102C30.5338 43.8549 30.884 43.509 30.884 43.0807V40.7582H32.4479V39.2098H30.9389C30.9943 38.6779 31.1047 38.1623 31.2532 37.6614H34.0119V36.1131H31.8702C32.5003 34.9242 33.4121 33.902 34.5549 33.1528C39.6008 29.8398 42.6138 24.2905 42.6138 18.3069C42.6138 13.4127 40.5462 8.68174 36.9421 5.32871ZM24.628 46.9516C22.9029 46.9516 21.5001 45.5628 21.5001 43.8549H27.756C27.756 45.5628 26.3531 46.9516 24.628 46.9516ZM29.32 42.3065H19.9361V40.7582H29.32V42.3065ZM29.3757 39.2098H19.8735C19.8212 38.6828 19.7368 38.165 19.6085 37.6614H29.619C29.4945 38.1642 29.4223 38.6844 29.3757 39.2098Z" fill="#263238"/>
<path d="M5.86011 5.91993C7.58522 5.91993 8.98807 7.30913 8.98807 9.01662C8.98807 9.44491 9.33859 9.79079 9.77006 9.79079C10.2019 9.79079 10.552 9.44491 10.552 9.01662C10.552 7.30913 11.9549 5.91993 13.68 5.91993C14.1119 5.91993 14.462 5.57405 14.462 5.14576C14.462 4.71785 14.1119 4.37159 13.68 4.37159C11.9549 4.37159 10.552 2.98277 10.552 1.2749C10.552 0.846993 10.2019 0.500732 9.77006 0.500732C9.33859 0.500732 8.98807 0.846993 8.98807 1.2749C8.98807 2.98277 7.58522 4.37159 5.86011 4.37159C5.42865 4.37159 5.07812 4.71785 5.07812 5.14576C5.07812 5.57405 5.42865 5.91993 5.86011 5.91993ZM9.77006 3.83972C10.1175 4.35685 10.5669 4.80215 11.0893 5.14576C10.5669 5.48975 10.1175 5.93467 9.77006 6.4518C9.42297 5.93467 8.97318 5.48975 8.45083 5.14576C8.97318 4.80215 9.42297 4.35685 9.77006 3.83972Z" fill="#FFC13E"/>
<path d="M8.98811 13.6618C9.41996 13.6618 9.7701 13.3159 9.7701 12.8876C9.7701 12.4597 9.41996 12.1134 8.98811 12.1134C7.263 12.1134 5.86015 10.7246 5.86015 9.01673C5.86015 8.58882 5.51001 8.24255 5.07816 8.24255C4.6467 8.24255 4.29617 8.58882 4.29617 9.01673C4.29617 10.7246 2.89333 12.1134 1.16822 12.1134C0.736751 12.1134 0.38623 12.4597 0.38623 12.8876C0.38623 13.3159 0.736751 13.6618 1.16822 13.6618C2.89333 13.6618 4.29617 15.051 4.29617 16.7585C4.29617 17.1868 4.6467 17.5327 5.07816 17.5327C5.51001 17.5327 5.86015 17.1868 5.86015 16.7585C5.86015 15.051 7.263 13.6618 8.98811 13.6618ZM5.07816 14.1937C4.73108 13.6765 4.28128 13.2316 3.75894 12.8876C4.28128 12.544 4.73032 12.0987 5.07816 11.5816C5.42563 12.0987 5.87504 12.5432 6.39739 12.8876C5.87504 13.2316 5.42563 13.6765 5.07816 14.1937Z" fill="#FFC13E"/>
</svg>
