<svg width="106" height="106" viewBox="0 0 106 106" fill="none" xmlns="http://www.w3.org/2000/svg">
<g filter="url(#filter0_d_717_3163)">
<rect x="17" y="17.104" width="72" height="72" rx="36" stroke="#FFC13E" stroke-width="3"/>
<path d="M55.2225 44.9466L51.0644 39.9518V44.1227C51.0644 44.4641 50.9288 44.7916 50.6874 45.033C50.4459 45.2744 50.1185 45.41 49.7771 45.41C49.4357 45.41 49.1082 45.2744 48.8668 45.033C48.6254 44.7916 48.4897 44.4641 48.4897 44.1227V36.3987C48.4899 36.1342 48.5715 35.8761 48.7235 35.6595C48.8755 35.443 49.0906 35.2786 49.3394 35.1886C49.5884 35.0982 49.8592 35.0867 50.1149 35.1558C50.3706 35.2249 50.5988 35.3713 50.7683 35.5748L54.9264 40.5697V36.3987C54.9264 36.0573 55.062 35.7299 55.3034 35.4884C55.5449 35.247 55.8723 35.1114 56.2137 35.1114C56.5551 35.1114 56.8826 35.247 57.124 35.4884C57.3654 35.7299 57.5011 36.0573 57.5011 36.3987V44.1227C57.5131 44.39 57.4363 44.6537 57.2825 44.8726C57.1288 45.0916 56.9069 45.2534 56.6514 45.3328C56.4024 45.4233 56.1316 45.4347 55.8759 45.3656C55.6202 45.2965 55.392 45.1502 55.2225 44.9466Z" fill="#03182B"/>
<path d="M53.2614 47.8898L53.2624 47.8926L60.9841 69.7709C60.9844 69.7716 60.9846 69.7723 60.9849 69.773C61.0041 69.8302 61.0049 69.892 60.987 69.9497L61.9423 70.2455L60.987 69.9497C60.9748 69.9892 60.9542 70.0254 60.9269 70.056C60.8589 70.0828 60.7863 70.0967 60.7128 70.0967C60.6321 70.0967 60.5525 70.0799 60.4789 70.0477L53.5981 64.8489L52.9962 64.3941L52.3936 64.848L45.5068 70.0355C45.4399 70.0692 45.3659 70.0869 45.2906 70.0869C45.2196 70.0869 45.1497 70.0712 45.0858 70.041C45.0519 70.0077 45.0267 69.9664 45.0127 69.9206C44.9945 69.8616 44.9959 69.7983 45.0165 69.7402L45.0171 69.7386L52.7345 47.8726C52.7558 47.8222 52.7911 47.779 52.8362 47.7479C52.8829 47.7158 52.9381 47.6982 52.9948 47.6973C53.053 47.6983 53.1095 47.7168 53.1569 47.7506L53.7374 46.9363L53.1569 47.7506C53.2053 47.7851 53.2418 47.8337 53.2614 47.8898Z" stroke="black" stroke-width="2"/>
</g>
<defs>
<filter id="filter0_d_717_3163" x="0.5" y="0.604004" width="105" height="105" filterUnits="userSpaceOnUse" color-interpolation-filters="sRGB">
<feFlood flood-opacity="0" result="BackgroundImageFix"/>
<feColorMatrix in="SourceAlpha" type="matrix" values="0 0 0 0 0 0 0 0 0 0 0 0 0 0 0 0 0 0 127 0" result="hardAlpha"/>
<feOffset/>
<feGaussianBlur stdDeviation="7.5"/>
<feColorMatrix type="matrix" values="0 0 0 0 1 0 0 0 0 0.756863 0 0 0 0 0.243137 0 0 0 1 0"/>
<feBlend mode="normal" in2="BackgroundImageFix" result="effect1_dropShadow_717_3163"/>
<feBlend mode="normal" in="SourceGraphic" in2="effect1_dropShadow_717_3163" result="shape"/>
</filter>
</defs>
</svg>
