<svg width="106" height="106" viewBox="0 0 106 106" fill="none" xmlns="http://www.w3.org/2000/svg">
<g filter="url(#filter0_d_762_448)">
<rect x="17.3335" y="17.104" width="72" height="72" rx="36" stroke="#FFC13E" stroke-width="3"/>
<path d="M49.083 48.1766H54.7497V49.5845H49.083V48.1766Z" fill="#FFC13E"/>
<path d="M40.583 48.1766H46.9581V49.5845H40.583V48.1766Z" fill="#FFC13E"/>
<path d="M52.6245 50.9922H64.6663V52.4001H52.6245V50.9922Z" fill="#FFC13E"/>
<path d="M44.833 50.9922H50.4998V52.4001H44.833V50.9922Z" fill="#FFC13E"/>
<path d="M40.583 50.9922H43.4164V52.4001H40.583V50.9922Z" fill="#FFC13E"/>
<path d="M47.6665 55.2156H57.5833V56.6235H47.6665V55.2156Z" fill="#FFC13E"/>
<path d="M61.125 60.1431H64.6667V61.5509H61.125V60.1431Z" fill="#FFC13E"/>
<path d="M50.5 60.1431H59.0001V61.5509H50.5V60.1431Z" fill="#FFC13E"/>
<path d="M40.583 60.1431H48.3747V61.5509H40.583V60.1431Z" fill="#FFC13E"/>
<path d="M56.1665 62.9587H64.6666V64.3664H56.1665V62.9587Z" fill="#FFC13E"/>
<path d="M45.5415 62.9587H54.0416V64.3664H45.5415V62.9587Z" fill="#FFC13E"/>
<path d="M40.583 62.9587H43.4164V64.3664H40.583V62.9587Z" fill="#FFC13E"/>
<path d="M61.833 65.7743H64.6664V67.1821H61.833V65.7743Z" fill="#FFC13E"/>
<path d="M49.083 65.7743H59.7081V67.1821H49.083V65.7743Z" fill="#FFC13E"/>
<path d="M40.583 65.7743H46.9581V67.1821H40.583V65.7743Z" fill="#FFC13E"/>
<path d="M62.5415 68.5899H64.6665V69.9977H62.5415V68.5899Z" fill="#FFC13E"/>
<path d="M53.3335 68.5899H60.4169V69.9977H53.3335V68.5899Z" fill="#FFC13E"/>
<path d="M40.583 68.5899H51.2081V69.9977H40.583V68.5899Z" fill="#FFC13E"/>
<path d="M39.8747 74.2211H66.7917C67.7306 74.2201 68.6309 73.8489 69.2948 73.1891C69.9588 72.5293 70.3323 71.6347 70.3334 70.7016V44.4156C70.3346 43.9532 70.2436 43.4952 70.0656 43.068C69.8875 42.6408 69.6259 42.253 69.296 41.9269L60.3307 33.0177L60.3306 33.0177C60.0025 32.6898 59.6122 32.4299 59.1824 32.253C58.7525 32.0761 58.2916 31.9856 57.8263 31.9869H39.8747C38.9357 31.9879 38.0355 32.3591 37.3715 33.0189C36.7076 33.6787 36.3341 34.5733 36.333 35.5064V70.7016C36.3341 71.6347 36.7076 72.5293 37.3715 73.1891C38.0355 73.8489 38.9357 74.2201 39.8747 74.2211ZM37.7497 35.5064C37.7503 34.9465 37.9744 34.4098 38.3728 34.0139C38.7712 33.618 39.3113 33.3953 39.8747 33.3947H57.8263C57.9828 33.3948 58.1388 33.4119 58.2916 33.4458V40.4337C58.2926 41.3668 58.6661 42.2614 59.3301 42.9212C59.9941 43.581 60.8943 43.9522 61.8333 43.9532H66.0833V42.5454H61.8333C61.2699 42.5448 60.7297 42.3221 60.3314 41.9262C59.933 41.5303 59.7089 40.9936 59.7083 40.4337V34.3901L68.2943 42.9224C68.4922 43.118 68.6492 43.3507 68.756 43.6071C68.8629 43.8634 68.9175 44.1382 68.9167 44.4156V70.7016C68.916 71.2615 68.6919 71.7982 68.2936 72.1941C67.8952 72.59 67.3551 72.8127 66.7917 72.8133H39.8747C39.3113 72.8127 38.7712 72.59 38.3728 72.1941C37.9744 71.7982 37.7503 71.2615 37.7497 70.7016V35.5064Z" fill="black"/>
<path d="M40.8664 43.8124L43.6997 45.9241C43.8223 46.0155 43.9715 46.0649 44.1247 46.0649H46.9581C47.1113 46.0649 47.2605 46.0155 47.3831 45.9241L50.2164 43.8124C50.3044 43.7468 50.3758 43.6618 50.425 43.5641C50.4742 43.4663 50.4998 43.3586 50.4998 43.2493V39.0258C50.4998 38.91 50.471 38.7959 50.416 38.6937C50.3609 38.5915 50.2814 38.5044 50.1844 38.4402L45.9343 35.6245C45.818 35.5474 45.6812 35.5063 45.5414 35.5063C45.4015 35.5063 45.2648 35.5474 45.1485 35.6245L40.8984 38.4402C40.8014 38.5044 40.7219 38.5915 40.6668 38.6937C40.6118 38.7959 40.583 38.91 40.583 39.0258V43.2493C40.583 43.3586 40.6086 43.4663 40.6578 43.5641C40.707 43.6618 40.7784 43.7468 40.8664 43.8124ZM46.7219 44.6571H44.3609L41.9997 42.8973V40.3411L45.1485 42.4271C45.2648 42.5042 45.4016 42.5454 45.5414 42.5454C45.6812 42.5454 45.818 42.5042 45.9343 42.4271L49.0831 40.3411V42.8973L46.7219 44.6571ZM45.5414 37.0562L48.5145 39.0258L45.5414 40.9955L42.5683 39.0258L45.5414 37.0562Z" fill="black"/>
</g>
<defs>
<filter id="filter0_d_762_448" x="0.833496" y="0.604004" width="105" height="105" filterUnits="userSpaceOnUse" color-interpolation-filters="sRGB">
<feFlood flood-opacity="0" result="BackgroundImageFix"/>
<feColorMatrix in="SourceAlpha" type="matrix" values="0 0 0 0 0 0 0 0 0 0 0 0 0 0 0 0 0 0 127 0" result="hardAlpha"/>
<feOffset/>
<feGaussianBlur stdDeviation="7.5"/>
<feColorMatrix type="matrix" values="0 0 0 0 1 0 0 0 0 0.756863 0 0 0 0 0.243137 0 0 0 1 0"/>
<feBlend mode="normal" in2="BackgroundImageFix" result="effect1_dropShadow_762_448"/>
<feBlend mode="normal" in="SourceGraphic" in2="effect1_dropShadow_762_448" result="shape"/>
</filter>
</defs>
</svg>
