<svg width="42" height="49" viewBox="0 0 42 49" fill="none" xmlns="http://www.w3.org/2000/svg">
<path d="M15.8862 18.8999H22.7039V20.5H15.8862V18.8999Z" fill="#FFC13E"/>
<path d="M5.66016 18.8999H13.33V20.5H5.66016V18.8999Z" fill="#FFC13E"/>
<path d="M20.147 22.1H34.6346V23.7H20.147V22.1Z" fill="#FFC13E"/>
<path d="M10.772 22.1H17.5897V23.7H10.772V22.1Z" fill="#FFC13E"/>
<path d="M5.66016 22.1H9.069V23.7H5.66016V22.1Z" fill="#FFC13E"/>
<path d="M14.1816 26.9H26.1126V28.5001H14.1816V26.9Z" fill="#FFC13E"/>
<path d="M30.373 32.5H34.6341V34.1H30.373V32.5Z" fill="#FFC13E"/>
<path d="M17.5898 32.5H27.8163V34.1H17.5898V32.5Z" fill="#FFC13E"/>
<path d="M5.66016 32.5H15.0344V34.1H5.66016V32.5Z" fill="#FFC13E"/>
<path d="M24.4087 35.7002H34.6352V37.3001H24.4087V35.7002Z" fill="#FFC13E"/>
<path d="M11.6245 35.7002H21.851V37.3001H11.6245V35.7002Z" fill="#FFC13E"/>
<path d="M5.66016 35.7002H9.069V37.3001H5.66016V35.7002Z" fill="#FFC13E"/>
<path d="M31.2266 38.9001H34.6354V40.5002H31.2266V38.9001Z" fill="#FFC13E"/>
<path d="M15.8862 38.9001H28.6693V40.5002H15.8862V38.9001Z" fill="#FFC13E"/>
<path d="M5.66016 38.9001H13.33V40.5002H5.66016V38.9001Z" fill="#FFC13E"/>
<path d="M32.0771 42.1H34.6338V43.7H32.0771V42.1Z" fill="#FFC13E"/>
<path d="M20.998 42.1H29.5201V43.7H20.998V42.1Z" fill="#FFC13E"/>
<path d="M5.66016 42.1H18.4433V43.7H5.66016V42.1Z" fill="#FFC13E"/>
<path d="M4.80792 48.5H37.1919C38.3216 48.4988 39.4046 48.077 40.2035 47.3271C41.0023 46.5772 41.4516 45.5605 41.4529 44.5V14.6255C41.4544 14.1 41.3449 13.5794 41.1307 13.0939C40.9165 12.6084 40.6018 12.1676 40.2049 11.7971L29.4187 1.6716L29.4186 1.67155C29.0238 1.29897 28.5542 1.00359 28.0371 0.802497C27.5199 0.601404 26.9654 0.498594 26.4056 0.500015H4.80792C3.67821 0.501219 2.59515 0.923034 1.79632 1.67292C0.997501 2.4228 0.548158 3.43952 0.546875 4.50001V44.5C0.548158 45.5605 0.997501 46.5772 1.79632 47.3271C2.59515 48.077 3.67821 48.4988 4.80792 48.5ZM2.25129 4.50001C2.25207 3.86372 2.52168 3.25369 3.00097 2.80376C3.48026 2.35383 4.1301 2.10074 4.80792 2.10001H26.4056C26.5939 2.10012 26.7816 2.11961 26.9654 2.15811V10.1C26.9666 11.1605 27.416 12.1772 28.2148 12.9271C29.0136 13.677 30.0967 14.0988 31.2264 14.1H36.3396V12.5H31.2264C30.5486 12.4993 29.8987 12.2462 29.4194 11.7963C28.9401 11.3463 28.6705 10.7363 28.6698 10.1V3.23136L38.9997 12.9285C39.2378 13.1508 39.4267 13.4153 39.5552 13.7066C39.6837 13.9979 39.7494 14.3102 39.7485 14.6255V44.5C39.7477 45.1363 39.4781 45.7463 38.9988 46.1963C38.5195 46.6462 37.8697 46.8993 37.1919 46.9H4.80792C4.1301 46.8993 3.48026 46.6462 3.00097 46.1963C2.52168 45.7463 2.25207 45.1363 2.25129 44.5V4.50001Z" fill="#263238"/>
<path d="M6.00106 13.9399L9.4099 16.3399C9.5574 16.4438 9.73682 16.4999 9.9212 16.4999H13.33C13.5144 16.4999 13.6938 16.4438 13.8413 16.3399L17.2502 13.9399C17.356 13.8654 17.4419 13.7688 17.5011 13.6577C17.5603 13.5466 17.5911 13.4241 17.5911 13.2999V8.49991C17.5911 8.36821 17.5565 8.23854 17.4903 8.12243C17.424 8.00631 17.3283 7.90733 17.2116 7.83428L12.0983 4.63428C11.9584 4.54664 11.7939 4.49988 11.6256 4.49988C11.4574 4.49988 11.2929 4.54664 11.1529 4.63428L6.03966 7.83428C5.92292 7.90733 5.8272 8.00631 5.761 8.12243C5.69479 8.23854 5.66015 8.36821 5.66016 8.49991V13.2999C5.66015 13.4241 5.69096 13.5466 5.75013 13.6577C5.8093 13.7688 5.89521 13.8654 6.00106 13.9399ZM13.0459 14.8999H10.2053L7.36458 12.8999V9.99471L11.1529 12.3655C11.2929 12.4532 11.4574 12.4999 11.6256 12.4999C11.7939 12.4999 11.9584 12.4532 12.0983 12.3655L15.8867 9.99471V12.8999L13.0459 14.8999ZM11.6256 6.26138L15.2026 8.49991L11.6256 10.7384L8.04867 8.49991L11.6256 6.26138Z" fill="#263238"/>
</svg>
