<svg width="49" height="46" viewBox="0 0 49 46" fill="none" xmlns="http://www.w3.org/2000/svg">
<path d="M13.3002 17.4944H11.7002V18.9883H13.3002V17.4944Z" fill="#FFC13E"/>
<path d="M21.3002 17.4944H19.7002V18.9883H21.3002V17.4944Z" fill="#FFC13E"/>
<path d="M47.8136 25.7189L44.688 25.3021C44.5394 24.894 44.3638 24.4948 44.1624 24.1069L46.0536 21.7523C46.1691 21.6085 46.2252 21.4305 46.2115 21.2512C46.1978 21.0718 46.1154 20.9031 45.9792 20.776L42.5848 17.6064C42.4544 17.4855 42.283 17.4108 42.1 17.395V10.2043C42.8485 9.64467 43.4528 8.93519 43.8682 8.12824C44.2836 7.32129 44.4995 6.4375 44.5 5.54216C44.5073 4.41004 44.1665 3.29975 43.518 2.34317C42.8695 1.38659 41.9406 0.623917 40.8416 0.145744C40.7197 0.0919867 40.5852 0.067873 40.4506 0.075643C40.3161 0.0834129 40.1858 0.122814 40.0719 0.190188C39.958 0.257561 39.8642 0.35072 39.7992 0.461011C39.7341 0.571302 39.7 0.695147 39.7 0.821043V5.00431L38.1 5.50257L36.5 5.00431V0.821043C36.4994 0.695401 36.4649 0.571923 36.3997 0.462034C36.3345 0.352146 36.2406 0.259398 36.1268 0.192373C36.013 0.125348 35.8829 0.08621 35.7486 0.0785818C35.6143 0.0709536 35.4801 0.0950812 35.3584 0.148732C34.2599 0.626693 33.3313 1.3889 32.6829 2.3449C32.0344 3.3009 31.6933 4.41055 31.7 5.54216C31.7005 6.4375 31.9164 7.32129 32.3318 8.12824C32.7472 8.93519 33.3515 9.64467 34.1 10.2043V15.2533H31.7C31.5075 15.2533 31.3214 15.3181 31.176 15.4358C31.0305 15.5535 30.9354 15.7163 30.908 15.8942L30.3904 19.2775L31.9744 19.4889L32.3936 16.7473H35.8064L36.2256 19.4889C36.2474 19.6309 36.3126 19.7641 36.4133 19.8724C36.5141 19.9808 36.6461 20.0598 36.7936 20.0999C37.4604 20.2798 38.1042 20.5271 38.7136 20.8372C38.8484 20.9063 39.0017 20.9375 39.1551 20.9273C39.3084 20.9171 39.4554 20.8659 39.5784 20.7797L41.9472 19.1213L44.36 21.3743L42.58 23.5862C42.4877 23.7011 42.4328 23.8383 42.4219 23.9815C42.411 24.1247 42.4445 24.2679 42.5184 24.3937C42.8506 24.9628 43.1153 25.564 43.308 26.1866C43.351 26.3243 43.4356 26.4476 43.5516 26.5417C43.6677 26.6357 43.8103 26.6966 43.9624 26.717L46.8984 27.1084V30.2951L43.9624 30.6866C43.8103 30.707 43.6677 30.7678 43.5516 30.8619C43.4356 30.9559 43.351 31.0792 43.308 31.217C43.1153 31.8396 42.8506 32.4407 42.5184 33.0098C42.4445 33.1357 42.411 33.2788 42.4219 33.422C42.4328 33.5652 42.4877 33.7025 42.58 33.8173L44.356 36.0292L41.9432 38.2822L39.576 36.6179C39.453 36.5317 39.306 36.4804 39.1527 36.4702C38.9993 36.46 38.846 36.4913 38.7112 36.5603C38.1018 36.8705 37.458 37.1177 36.7912 37.2976C36.6437 37.3378 36.5117 37.4168 36.4109 37.5251C36.3102 37.6335 36.245 37.7667 36.2232 37.9087L35.8064 40.6517H32.5V37.4926C32.4994 36.7034 32.3782 35.9184 32.14 35.1612C33.6638 35.5777 35.2916 35.5182 36.7758 34.9917C38.2601 34.4652 39.5196 33.5005 40.3628 32.2443C41.2061 30.9881 41.5869 29.5091 41.4475 28.0323C41.308 26.5554 40.6559 25.1615 39.5902 24.0625C38.5246 22.9634 37.1037 22.2194 35.5437 21.9436C33.9837 21.6677 32.3699 21.8751 30.9476 22.5342C29.5254 23.1933 28.3726 24.2681 27.6646 25.5951C26.9565 26.9221 26.7318 28.4287 27.0248 29.8858C27.0056 29.8783 26.9872 29.8693 26.968 29.8626L20.5 27.4468V26.2986C21.569 25.7879 22.5159 25.0799 23.2832 24.2175H25.3C25.9365 24.2175 26.547 23.9813 26.9971 23.5611C27.4472 23.1408 27.7 22.5708 27.7 21.9764V20.3449C28.1663 20.191 28.5703 19.9063 28.8567 19.5297C29.1432 19.1532 29.298 18.7032 29.3 18.2414V16.0003C29.298 15.5385 29.1432 15.0885 28.8567 14.712C28.5703 14.3354 28.1663 14.0507 27.7 13.8967V13.0123C27.7 10.2386 26.52 7.57852 24.4196 5.61724C22.3192 3.65595 19.4705 2.55411 16.5 2.55411C13.5296 2.55411 10.6808 3.65595 8.58044 5.61724C6.48004 7.57852 5.30004 10.2386 5.30004 13.0123V13.8967C4.83371 14.0507 4.42971 14.3354 4.14331 14.712C3.85691 15.0885 3.70209 15.5385 3.70004 16.0003V18.2414C3.70004 18.8357 3.9529 19.4057 4.40299 19.826C4.85307 20.2463 5.46352 20.4824 6.10004 20.4824H7.70004C7.75124 20.4824 7.80084 20.4749 7.85124 20.4719C8.09721 21.7105 8.64421 22.8798 9.45015 23.89C10.2561 24.9001 11.2995 25.7241 12.5 26.2986V27.4468L6.03204 29.8626C4.3957 30.4682 2.99269 31.52 2.00592 32.881C1.01915 34.242 0.494386 35.849 0.500045 37.4926V44.3868C0.500045 44.5849 0.584331 44.7749 0.73436 44.915C0.884389 45.0551 1.08787 45.1338 1.30004 45.1338H31.7C31.9122 45.1338 32.1157 45.0551 32.2657 44.915C32.4157 44.7749 32.5 44.5849 32.5 44.3868V42.1457H36.5C36.6925 42.1458 36.8786 42.081 37.0241 41.9632C37.1695 41.8455 37.2647 41.6827 37.292 41.5048L37.7384 38.5862C38.1755 38.4474 38.603 38.2835 39.0184 38.0954L41.54 39.8614C41.6941 39.9692 41.8846 40.0216 42.0767 40.0088C42.2688 39.9961 42.4495 39.919 42.5856 39.7919L45.98 36.6223C46.1162 36.4952 46.1986 36.3265 46.2123 36.1471C46.226 35.9678 46.1699 35.7898 46.0544 35.646L44.1632 33.2914C44.3646 32.9035 44.5402 32.5043 44.6888 32.0962L47.8144 31.6794C48.0047 31.6537 48.1787 31.5649 48.3046 31.4292C48.4305 31.2935 48.4999 31.1201 48.5 30.9406V26.4585C48.5 26.2787 48.4306 26.105 48.3046 25.9692C48.1785 25.8333 48.0042 25.7445 47.8136 25.7189ZM39.0136 19.3036C38.976 19.2864 38.9336 19.2752 38.896 19.2588V10.0242H37.3V15.948L37.292 15.8942C37.2647 15.7163 37.1695 15.5535 37.0241 15.4358C36.8786 15.3181 36.6925 15.2533 36.5 15.2533H35.7V9.83001C35.7 9.70951 35.6688 9.59081 35.609 9.48401C35.5493 9.37722 35.4627 9.28551 35.3568 9.21671C34.7621 8.83011 34.2689 8.3228 33.9141 7.73283C33.5593 7.14285 33.3522 6.48553 33.3082 5.81015C33.2643 5.13477 33.3847 4.45887 33.6603 3.83312C33.936 3.20738 34.3598 2.64803 34.9 2.19704V5.54216C34.9 5.699 34.9528 5.85188 35.051 5.97912C35.1492 6.10636 35.2878 6.20151 35.4472 6.25107L37.8472 6.99808C38.0113 7.04912 38.1887 7.04912 38.3528 6.99808L40.7528 6.25107C40.9122 6.20151 41.0508 6.10636 41.149 5.97912C41.2472 5.85188 41.3 5.699 41.3 5.54216V2.19704C41.8406 2.64802 42.2648 3.2075 42.5408 3.83347C42.8167 4.45944 42.9373 5.13564 42.8933 5.81132C42.8494 6.48701 42.6421 7.14462 42.287 7.7348C41.9319 8.32497 41.4383 8.83239 40.8432 9.21895C40.7376 9.28754 40.6513 9.37889 40.5915 9.48526C40.5318 9.59163 40.5004 9.70989 40.5 9.83001V18.266L39.0136 19.3036ZM28.5 28.6995C28.4912 27.5315 28.8985 26.3939 29.6578 25.4656C30.4172 24.5374 31.4854 23.8712 32.6946 23.5719C33.9037 23.2725 35.1851 23.3571 36.3372 23.8121C37.4893 24.2672 38.4466 25.067 39.0587 26.0857C39.6707 27.1044 39.9027 28.2842 39.7181 29.4395C39.5336 30.5947 38.9429 31.6599 38.0392 32.4675C37.1354 33.275 35.9697 33.7791 34.7255 33.9004C33.4814 34.0217 32.2294 33.7533 31.1664 33.1375C30.6134 32.3103 29.9059 31.5824 29.0776 30.9884C28.697 30.2778 28.4992 29.494 28.5 28.6995ZM25.3 22.7234H24.3288C24.7187 22.0145 24.995 21.2559 25.1488 20.4719C25.1992 20.4719 25.2488 20.4824 25.3 20.4824H26.1V21.9764C26.1 22.1745 26.0157 22.3645 25.8657 22.5046C25.7157 22.6447 25.5122 22.7234 25.3 22.7234ZM23.7 14.5063C23.3276 14.5054 22.9604 14.4241 22.6273 14.2685C22.2942 14.113 22.0042 13.8876 21.78 13.6099L20.34 11.8171C20.2757 11.737 20.1949 11.6699 20.1023 11.6196C20.0096 11.5692 19.9071 11.5368 19.8008 11.5242C19.6945 11.512 19.5866 11.5197 19.4835 11.5468C19.3804 11.5738 19.284 11.6197 19.2 11.6818L16.5152 13.6846C15.8068 14.2139 14.9273 14.5036 14.02 14.5063H9.30004V13.7593C9.30004 11.9762 10.0586 10.2662 11.4089 9.00533C12.7591 7.74451 14.5905 7.03618 16.5 7.03618C18.4096 7.03618 20.2409 7.74451 21.5912 9.00533C22.9415 10.2662 23.7 11.9762 23.7 13.7593V14.5063ZM27.7 18.2414C27.7 18.4395 27.6157 18.6295 27.4657 18.7696C27.3157 18.9097 27.1122 18.9884 26.9 18.9884H25.3V15.2533H26.9C27.1122 15.2533 27.3157 15.332 27.4657 15.4721C27.6157 15.6122 27.7 15.8022 27.7 16.0003V18.2414ZM16.5 4.04813C19.0453 4.0507 21.4855 4.99596 23.2852 6.67651C25.085 8.35706 26.0973 10.6356 26.1 13.0123V13.7593H25.3C25.3 11.58 24.3729 9.48991 22.7226 7.9489C21.0722 6.40789 18.8339 5.54216 16.5 5.54216C14.1661 5.54216 11.9278 6.40789 10.2775 7.9489C8.62718 9.48991 7.70004 11.58 7.70004 13.7593H6.90004V13.0123C6.90279 10.6356 7.9151 8.35706 9.71485 6.67651C11.5146 4.99596 13.9548 4.0507 16.5 4.04813ZM6.10004 18.9884C5.88787 18.9884 5.68438 18.9097 5.53436 18.7696C5.38433 18.6295 5.30004 18.4395 5.30004 18.2414V16.0003C5.30004 15.8022 5.38433 15.6122 5.53436 15.4721C5.68438 15.332 5.88787 15.2533 6.10004 15.2533H7.70004V18.9884H6.10004ZM9.30004 18.9884V16.0003H14.02C15.2911 15.9987 16.5241 15.5948 17.5176 14.8544L19.5584 13.3298L20.5 14.5063C20.8737 14.9691 21.357 15.3448 21.9122 15.604C22.4674 15.8632 23.0793 15.9989 23.7 16.0003V18.9884C23.7013 20.3188 23.2774 21.6193 22.4824 22.7234H16.5V24.2175H21.0152C19.9587 25.0151 18.6819 25.517 17.3326 25.6651C15.9832 25.8133 14.6166 25.6015 13.3908 25.0544C12.165 24.5072 11.1302 23.6471 10.4063 22.5736C9.6823 21.5001 9.29876 20.257 9.30004 18.9884ZM16.5 27.2055C17.3119 27.2036 18.1197 27.0965 18.9 26.8873V27.9525C18.9 28.5469 18.6472 29.1169 18.1971 29.5372C17.747 29.9574 17.1365 30.1936 16.5 30.1936C15.8635 30.1936 15.2531 29.9574 14.803 29.5372C14.3529 29.1169 14.1 28.5469 14.1 27.9525V26.8873C14.8804 27.0965 15.6881 27.2036 16.5 27.2055ZM30.9 43.6398H26.1V35.4226H24.5V43.6398H8.50004V35.4226H6.90004V43.6398H2.10004V37.4926C2.09539 36.1478 2.52475 34.8329 3.33216 33.7194C4.13956 32.6058 5.28755 31.7452 6.62644 31.2498L12.6768 28.9901C12.9131 29.7669 13.4142 30.4505 14.1042 30.9372C14.7941 31.424 15.6353 31.6874 16.5 31.6874C17.3648 31.6874 18.2059 31.424 18.8959 30.9372C19.5859 30.4505 20.087 29.7669 20.3232 28.9901L26.3736 31.2498C27.7125 31.7452 28.8605 32.6058 29.6679 33.7194C30.4753 34.8329 30.9047 36.1478 30.9 37.4926V43.6398Z" fill="#FFC13E"/>
<path d="M34.9 18.2412H33.3V19.7351H34.9V18.2412Z" fill="#FFC13E"/>
<path d="M34.9 37.6636H33.3V39.1577H34.9V37.6636Z" fill="#FFC13E"/>
<path d="M41.4532 34.5095L40.3218 35.5662L41.4532 36.6228L42.5846 35.5662L41.4532 34.5095Z" fill="#FFC13E"/>
<path d="M45.3002 27.9524H43.7002V29.4465H45.3002V27.9524Z" fill="#FFC13E"/>
<path d="M41.4536 20.7769L40.3223 21.833L41.4536 22.8892L42.585 21.833L41.4536 20.7769Z" fill="#FFC13E"/>
</svg>
