<svg width="49" height="49" viewBox="0 0 49 49" fill="none" xmlns="http://www.w3.org/2000/svg">
<path d="M14.8036 5.30054H4.29883V6.90057H14.8036V5.30054Z" fill="#263238"/>
<path d="M14.8036 8.50037H4.29883V10.1004H14.8036V8.50037Z" fill="#263238"/>
<path d="M11.5713 11.7004H4.29883V13.3004H11.5713V11.7004Z" fill="#263238"/>
<path d="M11.5713 14.9006H4.29883V16.5005H11.5713V14.9006Z" fill="#263238"/>
<path d="M48.7418 46.8999H0.258301V48.4999H48.7418V46.8999Z" fill="#263238"/>
<path d="M47.0408 7.34297L43.8086 0.943049C43.6093 0.547654 43.1242 0.387057 42.7248 0.584354C42.7246 0.584454 42.7244 0.584554 42.7242 0.584654L36.2597 3.78461C35.8604 3.98211 35.6982 4.46281 35.8977 4.8582C36.0972 5.25359 36.5828 5.41409 36.9821 5.2166L41.664 2.90062L40.3865 6.51178C34.7712 22.3444 20.3081 33.4518 3.42188 34.9002L3.55924 36.5002C21.0817 34.9974 36.089 23.4699 41.9129 7.03977L43.2171 3.35022L45.5944 8.05816C45.7939 8.45355 46.2794 8.61405 46.6788 8.41655C47.0783 8.21906 47.2403 7.73846 47.0408 7.34297Z" fill="#263238"/>
<path d="M9.95518 38.9H4.29878C3.85253 38.9 3.49072 39.2582 3.49072 39.7V44.5C3.49072 44.9418 3.85253 45.3 4.29878 45.3H9.95518C10.4014 45.3 10.7632 44.9418 10.7632 44.5V39.7C10.7632 39.2582 10.4014 38.9 9.95518 38.9ZM9.14713 43.7H5.10684V40.5H9.14713V43.7Z" fill="#FFC13E"/>
<path d="M18.8434 36.5002H13.187C12.7407 36.5002 12.3789 36.8584 12.3789 37.3002V44.5001C12.3789 44.9419 12.7407 45.3001 13.187 45.3001H18.8434C19.2896 45.3001 19.6514 44.9419 19.6514 44.5001V37.3002C19.6514 36.8584 19.2896 36.5002 18.8434 36.5002ZM18.0353 43.7001H13.995V38.1002H18.0353V43.7001Z" fill="#FFC13E"/>
<path d="M27.7325 32.5H22.0761C21.6299 32.5 21.2681 32.8582 21.2681 33.3V44.4999C21.2681 44.9417 21.6299 45.2999 22.0761 45.2999H27.7325C28.1788 45.2999 28.5406 44.9417 28.5406 44.4999V33.3C28.5406 32.8582 28.1788 32.5 27.7325 32.5ZM26.9245 43.6999H22.8842V34.1H26.9245V43.6999Z" fill="#FFC13E"/>
<path d="M36.6212 26.9001H30.9648C30.5185 26.9001 30.1567 27.2583 30.1567 27.7001V44.4999C30.1567 44.9417 30.5185 45.2999 30.9648 45.2999H36.6212C37.0674 45.2999 37.4293 44.9417 37.4293 44.4999V27.7001C37.4293 27.2583 37.0674 26.9001 36.6212 26.9001ZM35.8131 43.6999H31.7729V28.5001H35.8131V43.6999Z" fill="#FFC13E"/>
<path d="M45.5094 15.7004H39.853C39.4067 15.7004 39.0449 16.0586 39.0449 16.5004V44.5001C39.0449 44.9419 39.4067 45.3001 39.853 45.3001H45.5094C45.9556 45.3001 46.3174 44.9419 46.3174 44.5001V16.5004C46.3174 16.0586 45.9556 15.7004 45.5094 15.7004ZM44.7013 43.7001H40.661V17.3004H44.7013V43.7001Z" fill="#FFC13E"/>
</svg>
