<svg width="49" height="46" viewBox="0 0 49 46" fill="none" xmlns="http://www.w3.org/2000/svg">
<path d="M34.0172 19.9099L24.9537 28.4182H21.4032V26.9646H21.3831C22.8757 25.9159 23.9581 24.3795 24.3436 22.604H24.5C26.2079 22.604 27.5968 21.3002 27.5968 19.697C27.5968 18.9659 27.2987 18.3052 26.8226 17.7943V15.3364C26.8226 10.1269 22.3075 5.88843 16.7581 5.88843C11.2086 5.88843 6.69355 10.1269 6.69355 15.3364V17.7943C6.21742 18.3052 5.91935 18.9659 5.91935 19.697C5.91935 21.3002 7.30826 22.604 9.01613 22.604H9.17252C9.55806 24.3795 10.6404 25.9159 12.133 26.9646H12.1129V28.4182H8.24194C3.97303 28.4182 0.5 31.6784 0.5 35.6858V44.407C0.5 44.8089 0.846065 45.1338 1.27419 45.1338H32.2419C32.6701 45.1338 33.0161 44.8089 33.0161 44.407V35.6858C33.0161 32.2206 30.4172 29.3186 26.9542 28.5955L34.885 21.1505H48.5V19.697H34.5645C34.3586 19.697 34.1619 19.7733 34.0172 19.9099ZM12.524 29.8717L15.5372 33.2657L12.565 34.6604L10.8641 29.8717H12.524ZM16.6187 37.8661H16.8982L18.1369 43.6803H15.38L16.6187 37.8661ZM17.0538 36.4126H16.4623L15.6293 34.8479L16.7581 34.3181L17.8868 34.8479L17.0538 36.4126ZM17.979 33.2657L20.9921 29.8717H22.652L20.9511 34.6611L17.979 33.2657ZM24.5 21.1505V18.2434C25.3539 18.2434 26.0484 18.8954 26.0484 19.697C26.0484 20.4986 25.3539 21.1505 24.5 21.1505ZM7.46774 19.697C7.46774 18.8954 8.16219 18.2434 9.01613 18.2434V21.1505C8.16219 21.1505 7.46774 20.4986 7.46774 19.697ZM9.01613 16.7899C8.74748 16.7899 8.49123 16.8321 8.24194 16.8931V15.3364C8.24194 10.9285 12.0626 7.34196 16.7581 7.34196C21.4535 7.34196 25.2742 10.9285 25.2742 15.3364V16.8931C25.0249 16.8321 24.7686 16.7899 24.5 16.7899C24.5 16.388 24.1539 16.0632 23.7258 16.0632C22.5142 16.0632 21.356 15.5195 20.629 14.6089L19.7 13.4461C19.4081 13.0812 18.7532 13.0812 18.4613 13.4461L17.5323 14.6096C16.8053 15.5195 15.6471 16.0632 14.4355 16.0632H9.79032C9.36219 16.0632 9.01613 16.388 9.01613 16.7899ZM10.5645 21.1505V17.5167H14.4355C16.1317 17.5167 17.7529 16.7558 18.771 15.4817L19.0806 15.0936L19.3903 15.481C20.252 16.5595 21.5449 17.271 22.9516 17.4636V21.1505C22.9516 24.3563 20.173 26.9646 16.7581 26.9646C13.3431 26.9646 10.5645 24.3563 10.5645 21.1505ZM16.7581 28.4182C17.859 28.4182 18.9057 28.198 19.8548 27.807V28.8818L16.7581 32.3703L13.6613 28.8818V27.807C14.6105 28.198 15.6572 28.4182 16.7581 28.4182ZM2.04839 35.6858C2.04839 32.4801 4.82697 29.8717 8.24194 29.8717H9.2329L11.379 35.9155C11.4494 36.1146 11.6097 36.276 11.8164 36.3566C11.9116 36.3944 12.0123 36.4126 12.1129 36.4126C12.2314 36.4126 12.3506 36.3872 12.459 36.3363L14.2435 35.4983L15.1717 37.2418L13.8006 43.6803H6.69355V39.3197H5.14516V43.6803H2.04839V35.6858ZM31.4677 35.6858V43.6803H28.371V39.3197H26.8226V43.6803H19.7155L18.3436 37.2418L19.2719 35.4983L21.0564 36.3363C21.1655 36.3872 21.2848 36.4126 21.4032 36.4126C21.5039 36.4126 21.6045 36.3944 21.6997 36.3574C21.9072 36.2767 22.0675 36.1154 22.1372 35.9162L24.2832 29.8717H25.2742C28.6892 29.8717 31.4677 32.4801 31.4677 35.6858Z" fill="#FFC13E"/>
<path d="M46.9517 16.7897V6.61518C46.9517 6.21328 46.6057 5.88843 46.1775 5.88843H43.0808C42.6526 5.88843 42.3066 6.21328 42.3066 6.61518V16.7897H40.7582V10.9757C40.7582 10.5738 40.4121 10.2489 39.984 10.2489H36.8872C36.4591 10.2489 36.113 10.5738 36.113 10.9757V16.7897H34.5646V13.1559C34.5646 12.754 34.2186 12.4292 33.7904 12.4292H30.6937C30.2655 12.4292 29.9195 12.754 29.9195 13.1559V16.7897H28.3711V18.2432H48.5001V16.7897H46.9517ZM43.855 7.34193H45.4033V16.7897H43.855V7.34193ZM37.6614 11.7024H39.2098V16.7897H37.6614V11.7024ZM31.4679 13.8827H33.0163V16.7897H31.4679V13.8827Z" fill="#FFC13E"/>
<path d="M35.659 4.43484H39.9837C40.1896 4.43484 40.3863 4.35853 40.5311 4.2219L42.3063 2.55541V4.43484H43.8547V0.800989C43.8547 0.399085 43.5086 0.0742188 43.0805 0.0742188H39.2095V1.52776H41.2116L39.6632 2.9813H35.3385C35.1326 2.9813 34.9359 3.05761 34.7912 3.19424L30.146 7.55487L31.2407 8.58252L35.659 4.43484Z" fill="#FFC13E"/>
</svg>
