<svg width="106" height="106" viewBox="0 0 106 106" fill="none" xmlns="http://www.w3.org/2000/svg">
<g filter="url(#filter0_d_765_58)">
<rect x="17" y="16.604" width="72" height="72" rx="36" stroke="#FFC13E" stroke-width="3"/>
<path d="M53 30.604C40.869 30.604 31 40.473 31 52.604C31 64.735 40.869 74.604 53 74.604C65.131 74.604 75 64.735 75 52.604C75 40.473 65.131 30.604 53 30.604ZM47.7527 32.9873C46.2561 34.4466 44.9593 36.5192 43.945 39.0474C42.6713 38.4123 41.4607 37.644 40.3359 36.7454C42.4941 35.0187 45.0089 33.7218 47.7527 32.9873ZM39.0436 37.8724C40.3788 38.9696 41.8274 39.9009 43.3612 40.6489C42.3024 43.8525 41.665 47.6432 41.5877 51.7578H32.7138C32.9388 46.3001 35.3278 41.3947 39.0436 37.8724ZM32.7138 53.4501H41.5877C41.6649 57.5653 42.3024 61.3561 43.3618 64.5601C41.8286 65.3087 40.3805 66.2401 39.0458 67.3378C35.3289 63.8156 32.9388 58.909 32.7138 53.4501ZM40.3387 68.4643C41.4625 67.5656 42.673 66.7968 43.9456 66.1616C44.9593 68.6888 46.2562 70.7613 47.7533 72.2206C45.01 71.4862 42.4964 70.1904 40.3387 68.4643ZM52.1539 72.8266C49.5262 72.3279 47.1599 69.5429 45.5313 65.4548C47.6309 64.6239 49.8664 64.1416 52.1539 64.0462V72.8266ZM52.1539 62.354C49.6685 62.4493 47.2377 62.9649 44.9559 63.8623C43.9681 60.8393 43.3589 57.2601 43.28 53.4501H52.1539V62.354ZM52.1539 51.7579H43.28C43.3595 47.9479 43.9681 44.3692 44.9559 41.3462C47.2382 42.2431 49.6685 42.7587 52.1539 42.8541V51.7579ZM52.1539 41.1618C49.8665 41.0665 47.6309 40.5847 45.5313 39.7538C47.1593 35.6657 49.5256 32.8801 52.1539 32.3815V41.1618ZM73.2862 51.7579H64.4123C64.3351 47.6433 63.6976 43.8526 62.6388 40.649C64.1726 39.901 65.6211 38.9697 66.9564 37.8724C70.6722 41.3947 73.0612 46.3001 73.2862 51.7579ZM65.6636 36.7454C64.5393 37.644 63.3281 38.4123 62.0544 39.0474C61.0407 36.5197 59.7438 34.4466 58.2461 32.9873C60.9906 33.7218 63.5059 35.0187 65.6636 36.7454ZM53.8461 32.3814C56.4743 32.8801 58.8407 35.6656 60.4687 39.7537C58.3691 40.5846 56.133 41.0664 53.8461 41.1617V32.3814ZM53.8461 42.8541C56.3315 42.7587 58.7623 42.2431 61.0441 41.3462C62.0319 44.3692 62.6405 47.9479 62.72 51.7579H53.8461V42.8541ZM53.8461 53.4501H62.72C62.6405 57.2601 62.0319 60.8393 61.0441 63.8623C58.7623 62.9649 56.3315 62.4493 53.8461 62.354V53.4501ZM53.8461 72.8266V64.0463C56.1341 64.1416 58.3697 64.6234 60.4687 65.4549C58.8401 69.5423 56.4738 72.3279 53.8461 72.8266ZM58.2467 72.2207C59.7439 70.7614 61.0407 68.6888 62.0545 66.1617C63.3276 66.7968 64.5376 67.5657 65.6613 68.4644C63.5036 70.1904 60.99 71.4862 58.2467 72.2207ZM66.9542 67.3378C65.6201 66.2401 64.172 65.3081 62.6382 64.5601C63.6976 61.3566 64.3351 57.5659 64.4123 53.4507H73.2862C73.0612 58.909 70.6711 63.8156 66.9542 67.3378Z" fill="#263238"/>
</g>
<defs>
<filter id="filter0_d_765_58" x="0.5" y="0.104004" width="105" height="105" filterUnits="userSpaceOnUse" color-interpolation-filters="sRGB">
<feFlood flood-opacity="0" result="BackgroundImageFix"/>
<feColorMatrix in="SourceAlpha" type="matrix" values="0 0 0 0 0 0 0 0 0 0 0 0 0 0 0 0 0 0 127 0" result="hardAlpha"/>
<feOffset/>
<feGaussianBlur stdDeviation="7.5"/>
<feColorMatrix type="matrix" values="0 0 0 0 1 0 0 0 0 0.756863 0 0 0 0 0.243137 0 0 0 1 0"/>
<feBlend mode="normal" in2="BackgroundImageFix" result="effect1_dropShadow_765_58"/>
<feBlend mode="normal" in="SourceGraphic" in2="effect1_dropShadow_765_58" result="shape"/>
</filter>
</defs>
</svg>
