<svg width="76" height="46" viewBox="0 0 76 46" fill="none" xmlns="http://www.w3.org/2000/svg">
<path d="M50.9222 25.4586L44.5381 22.7946C44.0871 22.6064 43.7959 22.1854 43.7959 21.7222V20.0763C45.9404 18.472 47.3188 16.0015 47.3188 13.233V10.916C48.0253 10.5494 48.4931 9.84116 48.4931 9.04788V8.82301C48.4931 3.99896 44.3128 0.0742188 39.1747 0.0742188H36.8263C31.6882 0.0742188 27.508 3.99896 27.508 8.82301V10.8633C27.508 11.5606 27.8276 12.1923 28.3847 12.5965C28.4792 12.665 28.5786 12.7252 28.6822 12.7773V13.2328C28.6822 16.0013 30.0605 18.4718 32.2049 20.076V21.7221C32.2049 22.1853 31.9135 22.6063 31.4626 22.7944L25.0785 25.4584C22.9877 26.3308 21.6367 28.2826 21.6367 30.4307V44.1019C21.6367 44.6716 22.1286 45.1334 22.7354 45.1334C23.3421 45.1334 23.834 44.6716 23.834 44.1019V30.4309C23.834 30.3114 23.8431 30.1932 23.8563 30.076L26.798 32.838C27.2557 33.2679 27.508 33.8393 27.508 34.4473V44.1021C27.508 44.6717 27.9999 45.1335 28.6066 45.1335C29.2133 45.1335 29.7052 44.6717 29.7052 44.1021V34.4473C29.7052 33.2884 29.2246 32.1988 28.3517 31.3793L24.8447 28.0865C25.1607 27.7787 25.5398 27.5236 25.9711 27.3436L32.2475 24.7246L36.902 29.0946V44.1019C36.902 44.6716 37.3939 45.1334 38.0007 45.1334C38.6074 45.1334 39.0993 44.6716 39.0993 44.1019V29.0948L43.7539 24.7247L50.0301 27.3436C50.4614 27.5236 50.8405 27.7787 51.1564 28.0867L47.6495 31.3793C46.7766 32.1988 46.2959 33.2884 46.2959 34.4473V44.1021C46.2959 44.6717 46.7878 45.1335 47.3946 45.1335C48.0013 45.1335 48.4932 44.6717 48.4932 44.1021V34.4473C48.4932 33.8395 48.7453 33.2679 49.2032 32.838L52.1448 30.0762C52.158 30.1934 52.167 30.3112 52.167 30.4307V44.1019C52.167 44.6716 52.6589 45.1334 53.2657 45.1334C53.8724 45.1334 54.3643 44.6716 54.3643 44.1019V30.4309C54.3639 28.2828 53.013 26.3309 50.9222 25.4586ZM38.0002 27.2088L33.9161 23.3741C34.2266 22.8836 34.402 22.316 34.402 21.7222V21.3025C35.5098 21.7396 36.7255 21.9818 38.0004 21.9818C39.2752 21.9818 40.4908 21.7397 41.5985 21.3026V21.7222C41.5985 22.3161 41.7738 22.8836 42.0845 23.3743L38.0002 27.2088ZM38.0004 19.9186C34.0739 19.9188 30.8793 16.9195 30.8793 13.233V12.7691C31.5649 12.5139 32.234 12.108 32.8746 11.553C33.3203 11.1667 33.3483 10.5141 32.9367 10.0955C32.5252 9.67695 31.8303 9.65068 31.3842 10.037C30.8348 10.5133 30.2858 10.8209 29.7528 10.9516C29.74 10.9548 29.7304 10.9561 29.7237 10.9567C29.7158 10.9422 29.7051 10.912 29.7051 10.8634V8.82315C29.7051 5.13662 32.8996 2.13733 36.8261 2.13733H39.1746C43.1013 2.13733 46.2957 5.13662 46.2957 8.82315V9.04802C46.2957 9.08144 46.2743 9.11046 46.2461 9.11568C39.6674 10.3356 36.3677 8.03647 35.2544 6.99123C34.8253 6.5884 34.1297 6.5884 33.7008 6.99123C33.2717 7.39406 33.2717 8.0472 33.7008 8.44989C37.1124 11.653 42.0907 11.7108 45.1214 11.3689V13.2328C45.1214 16.9194 41.9269 19.9186 38.0004 19.9186Z" fill="#FFC13E"/>
<path d="M20.3109 19.8483V17.643C20.3109 14.952 18.8214 12.5832 16.5771 11.22C16.7157 10.8026 16.7881 10.3654 16.7881 9.92572C16.7881 7.53325 14.715 5.58691 12.1668 5.58691C9.61852 5.58691 7.54547 7.53338 7.54547 9.92572C7.54547 10.3709 7.61725 10.8039 7.75612 11.2203C5.51197 12.5834 4.02266 14.9522 4.02266 17.643V19.8479C4.02266 22.4536 5.4191 24.7578 7.54532 26.1389V28.4072C7.54532 28.8546 7.28063 29.2567 6.8545 29.4568L3.05455 31.2406C1.47881 31.9805 0.5 33.4675 0.5 35.1216V44.1022C0.5 44.6718 0.991895 45.1337 1.59863 45.1337C2.20537 45.1337 2.69727 44.6718 2.69727 44.1022V35.5677L4.48702 37.2481C4.94478 37.678 5.19703 38.2494 5.19703 38.8574V44.1022C5.19703 44.6718 5.68892 45.1337 6.29566 45.1337C6.9024 45.1337 7.3943 44.6718 7.3943 44.1022V38.8574C7.3943 37.6985 6.91354 36.609 6.04078 35.7894L3.54981 33.4507C3.5378 33.4394 3.52491 33.4297 3.5126 33.4191C3.6689 33.2895 3.84424 33.1768 4.03731 33.086L7.83727 31.3022C8.03195 31.2108 8.21315 31.1028 8.38204 30.9829L11.0681 33.5049V44.1023C11.0681 44.672 11.56 45.1338 12.1668 45.1338C12.7735 45.1338 13.2654 44.672 13.2654 44.1023V33.5048L15.9516 30.9827C16.1207 31.1028 16.3017 31.2108 16.4964 31.3021L17.5442 31.794C17.702 31.8682 17.8696 31.9032 18.0348 31.9032C18.4378 31.9032 18.8258 31.6942 19.0183 31.3329C19.2897 30.8233 19.0697 30.2038 18.527 29.9491L17.4792 29.4571C17.0529 29.257 16.7882 28.8549 16.7882 28.4076V26.1393C18.9144 24.7582 20.3109 22.4539 20.3109 19.8483ZM12.1668 7.64987C13.5034 7.64987 14.5908 8.6709 14.5908 9.92572C14.5908 10.0639 14.5776 10.1994 14.5524 10.3321C13.7974 10.1146 12.9966 9.99669 12.1668 9.99669C11.3381 9.99669 10.5383 10.1141 9.78449 10.3312C9.75915 10.1984 9.74274 10.0637 9.74274 9.92572C9.74274 8.67076 10.8301 7.64987 12.1668 7.64987ZM12.1668 12.0598C15.4458 12.0598 18.1136 14.5645 18.1136 17.6431V18.0169C13.5396 19.3317 10.8137 16.0649 10.6972 15.9218C10.5061 15.6826 10.2138 15.533 9.89626 15.5118C9.57868 15.4909 9.26667 15.6 9.04152 15.8113C7.99284 16.7959 6.96569 17.2708 6.22389 17.5001C6.30519 14.4873 8.93883 12.0598 12.1668 12.0598ZM12.1668 31.6187L9.62804 29.2351C9.70216 28.9691 9.74274 28.6919 9.74274 28.4073V27.1482C10.5087 27.373 11.323 27.4941 12.1668 27.4941C13.0105 27.4941 13.8248 27.373 14.5908 27.1482V28.4073C14.5908 28.6919 14.6314 28.9693 14.7055 29.2351L12.1668 31.6187ZM12.1668 25.4312C8.88771 25.4312 6.21993 22.9265 6.21993 19.8479V19.6341C7.09606 19.4452 8.39508 19.006 9.75021 17.9828C10.2297 18.4075 10.9149 18.9285 11.7875 19.3753C12.8197 19.9038 14.2451 20.3928 15.9862 20.3928C16.6479 20.3928 17.3558 20.3205 18.1042 20.1547C17.9339 23.0912 15.3361 25.4312 12.1668 25.4312Z" fill="#FFC13E"/>
<path d="M72.9456 29.0357L66.7972 26.1494C66.3711 25.9493 66.1064 25.5472 66.1064 25.0999V23.6381C67.5456 22.4385 68.4548 20.6902 68.4548 18.7455V17.5714C68.4801 17.5714 68.5051 17.5721 68.5304 17.5721C69.1371 17.5721 69.629 17.1103 69.629 16.5406V14.3358C69.629 10.7276 66.5023 7.79199 62.6591 7.79199H60.3107C56.4675 7.79199 53.3408 10.7276 53.3408 14.3358V16.5406C53.3408 17.1103 53.8327 17.5721 54.4395 17.5721C54.4485 17.5721 54.4749 17.5718 54.515 17.5703V18.7455C54.515 20.6903 55.4244 22.4386 56.8636 23.6383V25.1001C56.8636 25.5474 56.5989 25.9496 56.1727 26.1495C55.6299 26.4042 55.4099 27.0238 55.6814 27.5334C55.8738 27.8948 56.2619 28.1038 56.6648 28.1038C56.8299 28.1038 56.9975 28.0688 57.1553 27.9948C57.35 27.9033 57.5312 27.7954 57.7001 27.6754L60.3863 30.1974V44.1021C60.3863 44.6717 60.8782 45.1335 61.4849 45.1335C62.0917 45.1335 62.5836 44.6717 62.5836 44.1021V30.1972L65.2696 27.6752C65.4387 27.7952 65.6197 27.9032 65.8144 27.9945L71.7639 30.7875L69.9593 32.4817C69.0866 33.3012 68.6058 34.3907 68.6058 35.5497V44.1018C68.6058 44.6714 69.0977 45.1333 69.7045 45.1333C70.3112 45.1333 70.8031 44.6714 70.8031 44.1018V35.5497C70.8031 34.9418 71.0552 34.3702 71.5131 33.9403L73.2224 32.3355C73.2743 32.5221 73.3027 32.7167 73.3027 32.9164V44.1018C73.3027 44.6714 73.7946 45.1333 74.4014 45.1333C75.0081 45.1333 75.5 44.6714 75.5 44.1018V32.9164C75.5001 31.2625 74.5213 29.7755 72.9456 29.0357ZM55.5379 15.297V14.3356H55.5381C55.5381 11.8649 57.6791 9.85479 60.3107 9.85479H62.6591C65.2907 9.85479 67.4318 11.8649 67.4318 14.3356V15.4814C62.6559 15.2395 59.7738 13.4946 59.7459 13.4775C59.56 13.3611 59.3479 13.3042 59.1368 13.3042C58.8532 13.3042 58.5719 13.407 58.3595 13.6063C57.3084 14.5932 56.2784 15.0683 55.5379 15.297ZM61.4849 28.3112L58.9462 25.9277C59.0203 25.6617 59.0609 25.3845 59.0609 25.0999V24.8803C59.8162 25.1442 60.6328 25.2892 61.4849 25.2892C62.337 25.2892 63.1537 25.1442 63.909 24.8803V25.0999C63.909 25.3845 63.9494 25.6617 64.0236 25.9277L61.4849 28.3112ZM61.4849 23.2264C58.8533 23.2264 56.7123 21.2164 56.7123 18.7455V17.0826C57.4818 16.794 58.3783 16.335 59.2906 15.6053C60.4443 16.1689 62.8581 17.143 66.2575 17.4648V18.7455C66.2575 21.2162 64.1165 23.2264 61.4849 23.2264Z" fill="#FFC13E"/>
</svg>
