<svg width="106" height="106" viewBox="0 0 106 106" fill="none" xmlns="http://www.w3.org/2000/svg">
<g filter="url(#filter0_d_762_479)">
<rect x="16.6665" y="17.104" width="72" height="72" rx="36" stroke="#FFC13E" stroke-width="3"/>
<path d="M31.1893 71.5319C31.0361 71.7686 31.0431 72.0749 31.2102 72.3047C31.3424 72.4926 31.5582 72.604 31.781 72.604C31.8298 72.604 31.8785 72.604 31.9342 72.5901L38.3321 71.1699C40.1769 72.1097 42.2446 72.604 44.3192 72.604C51.5386 72.604 57.4213 66.784 57.5327 59.5855C60.6655 60.4348 64.0977 60.1146 67.0077 58.6387L73.4056 60.0519C73.4543 60.0658 73.503 60.0658 73.5587 60.0658C73.7815 60.0658 73.9973 59.9544 74.1296 59.7665C74.2897 59.5367 74.2967 59.2304 74.1505 58.9937L71.5398 54.8654C73.2942 52.5749 74.2549 49.7415 74.2549 46.8315C74.2549 39.5355 68.3235 33.6041 61.0275 33.6041C53.7316 33.6041 47.9254 39.4241 47.814 46.6157C46.7001 46.3093 45.5306 46.1353 44.3192 46.1353C37.0093 46.1423 31.0779 52.0737 31.0779 59.3697C31.0779 62.2727 32.0386 65.1062 33.7999 67.4036L31.1893 71.5319ZM61.0136 35.0034C67.5368 35.0034 72.8486 40.3152 72.8486 46.8384C72.8486 49.5883 71.8879 52.2686 70.1335 54.3781C69.9386 54.6078 69.9177 54.942 70.0778 55.1926L72.0619 58.3254L67.0495 57.2185C66.8893 57.1837 66.7153 57.2045 66.5691 57.2811C63.7913 58.757 60.4427 59.0424 57.4631 58.1096C56.9897 53.0901 53.6898 48.8782 49.1785 47.0821C49.1785 46.9986 49.1716 46.915 49.1716 46.8315C49.1716 40.3083 54.4834 34.9964 61.0066 34.9964L61.0136 35.0034ZM32.4702 59.3697C32.4702 52.8465 37.7821 47.5346 44.3053 47.5346C50.8285 47.5346 56.1403 52.8465 56.1403 59.3697C56.1403 65.8929 50.8285 71.2047 44.3053 71.2047C42.3699 71.2047 40.4485 70.7243 38.7428 69.8123C38.6384 69.7566 38.527 69.7288 38.4156 69.7288C38.3669 69.7288 38.3112 69.7288 38.2624 69.7427L33.2569 70.8497L35.241 67.7168C35.4012 67.4593 35.3803 67.1321 35.1923 66.9023C33.4379 64.7859 32.4772 62.1056 32.4772 59.3557L32.4702 59.3697Z" fill="black"/>
<path d="M44.3053 65.6352C44.882 65.6352 45.3495 65.1677 45.3495 64.591C45.3495 64.0142 44.882 63.5467 44.3053 63.5467C43.7285 63.5467 43.261 64.0142 43.261 64.591C43.261 65.1677 43.7285 65.6352 44.3053 65.6352Z" fill="#FFC13E"/>
<path d="M44.3054 53.8002C45.4541 53.8002 46.3939 54.74 46.3939 55.8887C46.3939 57.0374 45.4541 57.9773 44.3054 57.9773C43.9225 57.9773 43.6092 58.2906 43.6092 58.6734V62.1543H45.0015V59.3C46.5888 58.9798 47.7863 57.5735 47.7863 55.8887C47.7863 53.9673 46.2268 52.4078 44.3054 52.4078C42.3839 52.4078 40.8245 53.9673 40.8245 55.8887H42.2168C42.2168 54.74 43.1567 53.8002 44.3054 53.8002Z" fill="#FFC13E"/>
<path d="M55.4441 41.9651H66.583V43.3575H55.4441V41.9651Z" fill="#FFC13E"/>
<path d="M55.4441 46.1422H66.583V47.5346H55.4441V46.1422Z" fill="#FFC13E"/>
<path d="M58.2288 50.3193H66.5829V51.7117H58.2288V50.3193Z" fill="#FFC13E"/>
</g>
<defs>
<filter id="filter0_d_762_479" x="0.166504" y="0.604004" width="105" height="105" filterUnits="userSpaceOnUse" color-interpolation-filters="sRGB">
<feFlood flood-opacity="0" result="BackgroundImageFix"/>
<feColorMatrix in="SourceAlpha" type="matrix" values="0 0 0 0 0 0 0 0 0 0 0 0 0 0 0 0 0 0 127 0" result="hardAlpha"/>
<feOffset/>
<feGaussianBlur stdDeviation="7.5"/>
<feColorMatrix type="matrix" values="0 0 0 0 1 0 0 0 0 0.756863 0 0 0 0 0.243137 0 0 0 1 0"/>
<feBlend mode="normal" in2="BackgroundImageFix" result="effect1_dropShadow_762_479"/>
<feBlend mode="normal" in="SourceGraphic" in2="effect1_dropShadow_762_479" result="shape"/>
</filter>
</defs>
</svg>
