<svg width="45" height="49" viewBox="0 0 45 49" fill="none" xmlns="http://www.w3.org/2000/svg">
<path d="M42.7146 12.4612H42.2232C41.9326 11.4511 41.5268 10.4819 41.0109 9.5656L41.3602 9.21967C41.7599 8.82415 41.9799 8.29663 41.9799 7.73424C41.9799 7.17184 41.7599 6.64442 41.3599 6.24843L39.0324 3.94683C38.6327 3.54868 38.0992 3.3295 37.5301 3.3295C36.961 3.3295 36.4274 3.54868 36.0297 3.94486L35.6808 4.29032C34.7546 3.77799 33.7753 3.37543 32.7556 3.08791V2.60145C32.7557 1.44273 31.8035 0.5 30.633 0.5H27.3422C26.1718 0.5 25.2196 1.44273 25.2196 2.60145V3.08791C24.2001 3.37534 23.2202 3.77799 22.2921 4.29069L21.9448 3.94683C21.5449 3.54868 21.0114 3.3295 20.4424 3.32959C19.8734 3.32959 19.3399 3.54887 18.9422 3.94495L16.6151 6.2489C16.2154 6.64442 15.9954 7.17194 15.9954 7.73433C15.9954 8.29673 16.2154 8.82415 16.615 9.21967L16.9642 9.56551C16.4461 10.4846 16.0401 11.454 15.7512 12.4612H15.2579C14.0875 12.4612 13.1353 13.4039 13.1353 14.5626V17.8234C13.1353 18.9821 14.0875 19.9248 15.2579 19.9248H15.7512C16.0401 20.932 16.4461 21.9013 16.9642 22.8205L16.615 23.1663C16.2153 23.5619 15.9953 24.0894 15.9953 24.6518C15.9953 25.2141 16.2153 25.7416 16.6149 26.1371L18.9402 28.4392C19.3399 28.8373 19.8733 29.0565 20.4423 29.0565H20.4424C21.0114 29.0565 21.545 28.8373 21.9428 28.4412L22.292 28.0953C23.2211 28.6085 24.201 29.0106 25.2195 29.2965V29.7847C25.2195 30.9434 26.1717 31.8861 27.3421 31.8861H30.6329C31.8034 31.8861 32.7556 30.9434 32.7556 29.7847V29.2965C33.7744 29.0105 34.7535 28.6086 35.6808 28.0957L36.0277 28.4392C36.4274 28.8373 36.9609 29.0565 37.53 29.0565C38.0991 29.0565 38.6327 28.8372 39.03 28.4415L41.3602 26.1371C41.7598 25.7415 41.9798 25.214 41.9798 24.6517C41.9798 24.0893 41.7598 23.5619 41.3602 23.1663L41.0108 22.8204C41.5267 21.9041 41.9325 20.935 42.2231 19.9248H42.7145C43.8849 19.9248 44.8372 18.9821 44.8372 17.8234V14.5626C44.8373 13.4039 43.8851 12.4612 42.7146 12.4612ZM30.8618 29.7846C30.8618 29.9074 30.7571 30.0111 30.633 30.0111H27.3422C27.2182 30.0111 27.1135 29.9074 27.1135 29.7846V28.5674V22.6573C27.1135 22.2652 26.8671 21.9146 26.4959 21.7783C23.9513 20.844 22.2417 18.4195 22.2417 15.7453C22.2417 13.6259 23.3076 11.6392 25.0926 10.4313C25.1727 10.3771 25.2435 10.3328 25.3055 10.2966C25.3021 10.4184 25.2934 10.5343 25.2887 10.5948C25.2816 10.6899 25.2759 10.765 25.2759 10.8395V15.2642C25.2759 17.295 26.8788 18.9911 28.9249 19.1254C28.9666 19.1282 29.0085 19.1282 29.0502 19.1254C31.0949 18.9912 32.6965 17.2951 32.6965 15.2642V10.8395C32.6965 10.7654 32.6909 10.6908 32.6839 10.5962C32.6794 10.5354 32.6707 10.4189 32.6673 10.2965C32.7291 10.3326 32.7995 10.3768 32.8794 10.4309C34.6648 11.6391 35.7308 13.6258 35.7308 15.7452C35.7308 18.4191 34.0221 20.8437 31.479 21.7783C31.1079 21.9147 30.8616 22.2652 30.8616 22.6572V28.5673V29.7846H30.8618ZM42.9434 17.8234C42.9434 17.944 42.8365 18.0499 42.7146 18.0499H41.488C41.0456 18.0499 40.662 18.3531 40.5644 18.7804C40.2645 20.0922 39.7451 21.3326 39.0206 22.4673C38.7841 22.8378 38.8384 23.3211 39.1515 23.6311L40.0213 24.4921C40.0777 24.548 40.0861 24.6161 40.0861 24.6517C40.0861 24.6872 40.0777 24.7554 40.0215 24.8109L37.6893 27.1173C37.636 27.1703 37.5732 27.1815 37.5301 27.1815C37.487 27.1815 37.4243 27.1703 37.369 27.1152L36.4992 26.2541C36.1857 25.9438 35.697 25.8904 35.3227 26.1251C34.5144 26.6322 33.6541 27.0346 32.7557 27.3319V23.2808C35.6935 21.9273 37.6248 18.9777 37.6248 15.7451C37.6248 13.0061 36.2504 10.4407 33.9484 8.88293C33.5957 8.64434 32.5233 7.91845 31.5854 8.45291C30.6644 8.9779 30.7561 10.2085 30.7952 10.7341C30.7987 10.7797 30.802 10.8181 30.8027 10.8395V15.2642C30.8027 16.2903 30.0105 17.1506 28.9876 17.2495C27.9633 17.1506 27.1699 16.2902 27.1699 15.2642L27.1698 10.8463C27.1707 10.8181 27.1741 10.7797 27.1775 10.7339C27.217 10.2086 27.3095 8.97865 26.3892 8.45338C25.4517 7.91798 24.3777 8.64415 24.0244 8.88293C21.7222 10.4408 20.3478 13.0061 20.3478 15.7452C20.3478 18.9783 22.2802 21.928 25.2196 23.2812V27.332C24.321 27.0347 23.4596 26.6321 22.6489 26.1248C22.4931 26.0273 22.3177 25.9797 22.1432 25.9797C21.8986 25.9797 21.656 26.0734 21.4733 26.2543L20.6018 27.1173C20.5484 27.1704 20.4857 27.1816 20.4425 27.1816C20.3993 27.1816 20.3367 27.1704 20.2814 27.1154L17.9542 24.8113C17.8977 24.7555 17.8893 24.6873 17.8893 24.6518C17.8893 24.6162 17.8977 24.5481 17.9542 24.4921L18.8239 23.6311C19.1369 23.3211 19.1913 22.8378 18.9547 22.4673C18.2266 21.3266 17.7073 20.0867 17.4113 18.7819C17.3144 18.354 16.9305 18.0498 16.4874 18.0498H15.2581C15.1362 18.0498 15.0293 17.9439 15.0293 17.8233V14.5625C15.0293 14.4397 15.134 14.3361 15.2581 14.3361H16.4874C16.9305 14.3361 17.3143 14.0318 17.4113 13.6039C17.7073 12.2991 18.2265 11.0591 18.9547 9.91856C19.1913 9.54807 19.1369 9.06471 18.8239 8.75478L17.9541 7.8937C17.8977 7.83783 17.8893 7.76977 17.8893 7.73414C17.8893 7.69852 17.8977 7.63046 17.9542 7.57449L20.2834 5.26848C20.3367 5.21542 20.3994 5.20427 20.4426 5.20427C20.4858 5.20427 20.5484 5.21542 20.6037 5.27045L21.4734 6.13153C21.7867 6.44155 22.2749 6.49527 22.649 6.26109C23.7997 5.54091 25.0535 5.02577 26.3753 4.73018C26.8071 4.63362 27.1137 4.25385 27.1137 3.81577V2.60145C27.1137 2.47864 27.2184 2.37496 27.3424 2.37496H30.6332C30.7573 2.37496 30.862 2.47864 30.862 2.60145V3.81595C30.862 4.25413 31.1685 4.63381 31.6002 4.73037C32.9233 5.02624 34.1757 5.5411 35.3229 6.2608C35.6973 6.49555 36.1859 6.44211 36.4994 6.13181L37.3711 5.26876C37.4244 5.2157 37.4872 5.20455 37.5302 5.20455C37.5734 5.20455 37.6361 5.2157 37.6918 5.27111L40.0214 7.57477C40.0779 7.63065 40.0863 7.69871 40.0863 7.73433C40.0863 7.76996 40.0779 7.83802 40.0213 7.89398L39.1517 8.75506C38.8386 9.06499 38.7843 9.54835 39.0208 9.91884C39.7452 11.0535 40.2647 12.2939 40.5646 13.6058C40.6622 14.033 41.0457 14.3362 41.4882 14.3362H42.7148C42.8389 14.3362 42.9436 14.4399 42.9436 14.5627V17.8234H42.9434Z" fill="#FFC13E"/>
<path d="M34.5054 41.7791C34.1356 42.1452 34.1356 42.7388 34.5054 43.105C34.6903 43.288 34.9326 43.3796 35.175 43.3796C35.4173 43.3796 35.6596 43.288 35.8446 43.105L35.8472 43.1024C36.217 42.7363 36.2157 42.144 35.8458 41.7779C35.4759 41.4118 34.8752 41.4132 34.5054 41.7791Z" fill="#263238"/>
<path d="M38.8919 32.6976L31.3741 36.5198C30.7368 35.8664 29.8439 35.4588 28.8561 35.4588H23.7052C23.4167 35.4588 23.3463 35.4361 23.3415 35.4345C23.2998 35.4128 23.1678 35.2899 23.0618 35.1913L23.0148 35.1476C18.8476 31.264 15.3273 31.51 11.3241 33.0741C10.6764 33.3273 10.6639 33.3278 10.0135 33.3553L8.84875 33.3561C8.51695 32.3651 7.57266 31.6479 6.46181 31.6479H2.67444C1.28936 31.6479 0.162598 32.7648 0.162598 34.1374V43.978C0.162598 45.3492 1.28936 46.4648 2.67444 46.4648H6.46181C7.57257 46.4648 8.51676 45.7484 8.84866 44.7586H10.9793C11.1674 44.7586 11.1674 44.7586 11.3863 44.8197C11.4658 44.8419 11.5626 44.8689 11.6876 44.9022L21.4878 47.4979C21.9198 47.6134 22.316 47.7271 22.6992 47.8369C23.9549 48.1971 25.0103 48.4999 26.1104 48.4999C27.3537 48.4999 28.6537 48.1131 30.3636 46.985C30.3719 46.9795 30.3801 46.9739 30.3883 46.9682L32.2592 45.6474C32.685 45.3467 32.7841 44.7614 32.4804 44.3398C32.1767 43.9181 31.5853 43.8201 31.1597 44.1208L29.3012 45.4328C26.8198 47.0667 25.7662 46.7647 23.2263 46.0361C22.835 45.9238 22.4305 45.8078 21.9796 45.6872L12.1787 43.0914C12.0639 43.0609 11.9738 43.0358 11.9 43.0151C11.5424 42.9154 11.4087 42.8839 10.9794 42.8839H8.9764V35.2318H9.99976C10.0134 35.2318 10.0268 35.2315 10.0405 35.231L10.0944 35.2287C10.8883 35.1952 11.1103 35.1737 12.0196 34.8183C15.5355 33.4447 18.2494 33.2815 21.718 36.5142L21.7649 36.5578C22.3577 37.1093 22.699 37.3339 23.7052 37.3339H28.8562C29.4607 37.3339 29.9879 37.6662 30.2627 38.1556C30.2656 38.1611 30.269 38.1662 30.2721 38.1717C30.3948 38.3964 30.4647 38.6534 30.4647 38.9264C30.4647 39.8031 29.7432 40.5162 28.8563 40.5162H20.5084C19.9855 40.5162 19.5615 40.9359 19.5615 41.4537C19.5615 41.9714 19.9855 42.3911 20.5084 42.3911H28.8563C30.7875 42.3911 32.3585 40.8369 32.3585 38.9264C32.3585 38.6667 32.3286 38.414 32.2737 38.1705L39.7571 34.3658C40.4655 34.0058 41.434 34.0444 41.9148 34.8169C42.3402 35.4978 42.1062 36.4028 41.3709 36.9218L38.0882 39.2364C37.6621 39.5368 37.5627 40.1222 37.8661 40.5439C38.0509 40.8007 38.3423 40.9377 38.6382 40.9377C38.8283 40.9377 39.0201 40.8812 39.1867 40.7638L42.4698 38.4489C44.0291 37.3484 44.4828 35.363 43.5262 33.832C42.5856 32.3206 40.5934 31.8329 38.8919 32.6976ZM7.08243 43.978C7.08243 44.3097 6.79826 44.5898 6.46181 44.5898H2.67444C2.33942 44.5898 2.05647 44.3096 2.05647 43.978V34.1375C2.05647 33.7987 2.33373 33.523 2.67444 33.523H6.46181C6.79826 33.523 7.08243 33.8043 7.08243 34.1375V43.978Z" fill="#263238"/>
</svg>
