<svg width="300" height="201" viewBox="0 0 300 201" fill="none" xmlns="http://www.w3.org/2000/svg">
<path d="M278.856 61.0415C278.789 61.2735 278.683 61.4925 278.544 61.6895C278.225 62.1558 277.778 62.5202 277.258 62.7387C276.737 62.9573 276.164 63.0208 275.608 62.9215C275.082 62.8285 274.591 62.5949 274.188 62.2455C273.969 62.0591 273.781 61.8406 273.628 61.5975C273.464 61.3522 273.341 61.082 273.264 60.7975C273.094 60.1843 273.126 59.5328 273.355 58.9392C273.584 58.3457 273.998 57.8416 274.536 57.5015C274.782 57.3388 275.052 57.2159 275.336 57.1375C275.731 57.0294 276.145 57.0045 276.55 57.0644C276.956 57.1243 277.344 57.2677 277.692 57.4855C278.171 57.7848 278.554 58.2162 278.794 58.7279C279.033 59.2395 279.12 59.8096 279.044 60.3695C279.015 60.6086 278.946 60.8412 278.84 61.0575C278.84 61.0575 278.928 60.8135 278.98 60.3615C279.046 59.7176 278.895 59.0702 278.552 58.5215C278.3 58.119 277.951 57.7862 277.538 57.5535C277.124 57.3207 276.658 57.1956 276.184 57.1895C275.913 57.1833 275.644 57.2183 275.384 57.2935C275.11 57.3672 274.85 57.4833 274.612 57.6375C274.106 57.9618 273.718 58.4388 273.502 58.9991C273.286 59.5594 273.255 60.174 273.412 60.7535C273.485 61.0286 273.601 61.2904 273.756 61.5295C273.897 61.7608 274.074 61.9686 274.28 62.1455C274.637 62.4583 275.067 62.6771 275.53 62.7819C275.993 62.8866 276.475 62.8741 276.932 62.7455C277.554 62.5701 278.099 62.1912 278.48 61.6695C278.756 61.2815 278.836 61.0335 278.856 61.0415Z" fill="#E0E0E0"/>
<path d="M281.6 63.7895H281.7L282.008 63.8295L283.208 63.9895L283.18 64.0095C283.424 63.3575 283.748 62.5055 284.136 61.4735V61.5255L282.776 60.6175H282.752V60.5895C282.815 60.006 282.799 59.4166 282.704 58.8375V58.8055L282.728 58.7855L284.04 57.8015V57.8735L282.936 55.4015L283.008 55.4375L281.408 55.7575H281.368L281.34 55.7255C280.972 55.2715 280.545 54.868 280.072 54.5255L280.036 54.5015V54.4575C280.108 53.9575 280.188 53.4015 280.268 52.8575L280.316 52.9375L277.788 51.9655L277.88 51.9375L276.968 53.2975L276.944 53.3375H276.896C276.315 53.2747 275.729 53.2895 275.152 53.3815H275.104L275.072 53.3415L274.096 52.0295L274.192 52.0575L271.716 53.1575L271.764 53.0655L272.08 54.6655V54.7175L272.04 54.7495C271.585 55.1133 271.181 55.5371 270.84 56.0095L270.76 56.0455H270.708H270.656H270.556L270.352 56.0175L269.952 55.9575L269.152 55.8375L269.24 55.7855C268.912 56.6415 268.584 57.4855 268.264 58.3135L268.236 58.2175L269.592 59.1295L269.636 59.1575V59.2055C269.572 59.7862 269.587 60.3728 269.68 60.9495V60.9975L269.64 61.0255L268.328 62.0055L268.352 61.9095C268.728 62.7535 269.092 63.5815 269.448 64.3855L269.364 64.3415L270.964 64.0255H271.012L271.04 64.0615C271.406 64.5149 271.829 64.9184 272.3 65.2615L272.336 65.2855V65.3295C272.252 65.8855 272.172 66.4215 272.096 66.9295L272.052 66.8575L274.576 67.8375L274.5 67.8615L275.416 66.5015L275.436 66.4735H275.472C276.055 66.5371 276.644 66.5237 277.224 66.4335H277.256L277.276 66.4575L278.248 67.7735H278.192L280.672 66.6855L280.648 66.7255C280.528 66.0815 280.428 65.5575 280.344 65.1255C280.692 64.851 281.012 64.5428 281.3 64.2055L281.508 63.9535C281.529 63.894 281.56 63.8385 281.6 63.7895L281.54 63.8815C281.5 63.9415 281.432 64.0295 281.34 64.1415C281.061 64.4899 280.746 64.8077 280.4 65.0895V65.0615C280.488 65.5015 280.596 66.0255 280.728 66.6615V66.6935H280.7L278.232 67.8015H278.196L278.172 67.7695L277.2 66.5095H277.252C276.664 66.6059 276.065 66.6234 275.472 66.5615L275.528 66.5335L274.62 67.8975L274.592 67.9375H274.544L272 66.9895H271.952V66.9335C272.028 66.4095 272.104 65.8695 272.184 65.3335L272.212 65.4015C271.728 65.0502 271.294 64.6359 270.92 64.1695L270.992 64.1975L269.392 64.5175H269.332L269.308 64.4615L268.208 61.9855L268.18 61.9255L268.232 61.8895L269.544 60.9095L269.512 60.9855C269.417 60.3955 269.402 59.7954 269.468 59.2015L269.504 59.2775L268.144 58.3655L268.088 58.3295L268.112 58.2655C268.432 57.4362 268.756 56.5935 269.084 55.7375L269.108 55.6775H269.176L269.976 55.7975L270.376 55.8575L270.58 55.8855H270.68H270.732H270.8L270.72 55.9215C271.071 55.4363 271.485 55.0004 271.952 54.6255L271.924 54.7055L271.608 53.1055V53.0375L271.668 53.0135L274.148 51.9135L274.208 51.8895L274.244 51.9415L275.224 53.2535L275.144 53.2215C275.735 53.1288 276.337 53.1154 276.932 53.1815L276.856 53.2135L277.772 51.8575L277.804 51.8055L277.864 51.8255L280.388 52.8055L280.444 52.8255V52.8855C280.36 53.4495 280.28 54.0015 280.204 54.4855L280.176 54.4175C280.66 54.7699 281.094 55.1856 281.468 55.6535L281.4 55.6255L283 55.3135H283.052V55.3615L284.144 57.8415V57.8855L284.108 57.9135L282.8 58.8815L282.82 58.8295C282.91 59.4172 282.924 60.0143 282.86 60.6055L282.836 60.5615L284.192 61.4775L284.22 61.4975V61.5295C283.82 62.5575 283.484 63.4055 283.232 64.0495H283.2L282 63.8575L281.692 63.8055L281.6 63.7895Z" fill="#E0E0E0"/>
<path fill-rule="evenodd" clip-rule="evenodd" d="M265.488 47.7295C264.939 48.4777 264.293 49.1501 263.568 49.7295L264.068 52.2615L260.16 53.9975L258.62 51.9255C257.694 52.0734 256.752 52.0963 255.82 51.9935L254.4 54.1575L250.4 52.6175L250.772 50.0655C250.023 49.5158 249.35 48.8687 248.772 48.1415L246.236 48.6415L244.504 44.7375L246.576 43.1935C246.429 42.2674 246.405 41.3259 246.504 40.3935L244.352 38.9895L245.888 34.9895L248.444 35.3615C248.993 34.6134 249.639 33.941 250.364 33.3615L249.864 30.8255L253.772 29.0935L255.316 31.1655C256.242 31.0173 257.184 30.9944 258.116 31.0975L259.556 28.9535L263.556 30.4895L263.18 33.0415C263.928 33.5924 264.601 34.2393 265.18 34.9655L267.712 34.4655L269.444 38.3695L267.376 39.9135C267.524 40.8395 267.547 41.7813 267.444 42.7135L269.588 44.1535L268.052 48.1535L265.496 47.7815L265.488 47.7295ZM261.176 43.3895C261.501 42.5434 261.568 41.6199 261.369 40.7357C261.17 39.8515 260.712 39.0463 260.055 38.4218C259.398 37.7974 258.571 37.3817 257.678 37.2274C256.785 37.0731 255.866 37.187 255.037 37.5549C254.209 37.9227 253.508 38.5279 253.023 39.2939C252.539 40.0599 252.292 40.9524 252.315 41.8586C252.337 42.7648 252.628 43.6439 253.15 44.3848C253.672 45.1258 254.402 45.6954 255.248 46.0215C255.81 46.2382 256.409 46.3421 257.011 46.3271C257.614 46.3121 258.207 46.1785 258.758 45.9341C259.308 45.6897 259.805 45.3391 260.22 44.9025C260.635 44.4659 260.96 43.9517 261.176 43.3895Z" fill="#EBEBEB"/>
<path fill-rule="evenodd" clip-rule="evenodd" d="M260.664 86.8215C259.785 88.0336 258.748 89.122 257.58 90.0575L258.38 94.1255L252.112 96.9255L249.632 93.5975C248.154 93.8364 246.652 93.8755 245.164 93.7135L242.856 97.1535L236.456 94.6855L237.056 90.5895C235.845 89.7102 234.756 88.6731 233.82 87.5055L229.752 88.3055L226.952 82.0375L230.276 79.5575C230.038 78.0799 230 76.5771 230.164 75.0895L226.72 72.7815L229.188 66.3815L233.288 66.9815C234.166 65.7682 235.203 64.6784 236.372 63.7415L235.572 59.6735L241.844 56.8935L244.32 60.2175C245.799 59.9818 247.303 59.9442 248.792 60.1055L251.1 56.6615L257.5 59.1295L256.9 63.2295C258.111 64.1088 259.199 65.1459 260.136 66.3135L264.204 65.5135L267.004 71.7815L263.676 74.2575C263.913 75.7364 263.952 77.2403 263.792 78.7295L267.232 81.0375L264.764 87.4375L260.664 86.8375V86.8215ZM253.74 79.8295C254.264 78.4712 254.373 76.988 254.054 75.5676C253.734 74.1472 253.001 72.8534 251.947 71.8497C250.892 70.8461 249.564 70.1777 248.129 69.9292C246.695 69.6807 245.219 69.8632 243.888 70.4536C242.557 71.0439 241.431 72.0157 240.653 73.246C239.875 74.4762 239.479 75.9097 239.515 77.365C239.551 78.8204 240.019 80.2323 240.857 81.4222C241.696 82.612 242.869 83.5263 244.228 84.0495C246.049 84.7508 248.074 84.7002 249.857 83.9088C251.641 83.1175 253.038 81.6502 253.74 79.8295Z" fill="#EBEBEB"/>
<path d="M86.8401 30.3375C87.2671 33.2307 86.8262 36.1856 85.5732 38.8282C84.3202 41.4707 82.3113 43.6821 79.801 45.1825C77.2906 46.6829 74.3915 47.4048 71.4707 47.2568C68.5498 47.1088 65.7386 46.0976 63.3927 44.3512C61.0468 42.6048 59.2717 40.2017 58.2922 37.4461C57.3126 34.6904 57.1726 31.7061 57.8899 28.8709C58.6071 26.0356 60.1494 23.4769 62.3215 21.5185C64.4936 19.5602 67.1979 18.2903 70.0921 17.8695C72.0105 17.5879 73.9656 17.6871 75.8456 18.1614C77.7257 18.6357 79.4939 19.4757 81.0492 20.6336C82.6045 21.7914 83.9165 23.2444 84.9101 24.9094C85.9037 26.5744 86.5595 28.4189 86.8401 30.3375Z" fill="#F5F5F5"/>
<path d="M83.3601 30.8415C83.686 33.0465 83.3503 35.2985 82.3957 37.3127C81.441 39.3268 79.9103 41.0124 77.9972 42.1562C76.0841 43.2999 73.8747 43.8504 71.6486 43.7379C69.4225 43.6254 67.2799 42.855 65.4918 41.5242C63.7038 40.1934 62.3508 38.362 61.6041 36.2619C60.8573 34.1618 60.7504 31.8874 61.2969 29.7265C61.8434 27.5656 63.0187 25.6154 64.6741 24.1228C66.3294 22.6302 68.3904 21.6623 70.5961 21.3415C73.5485 20.9089 76.5517 21.6668 78.9454 23.4483C81.339 25.2299 82.927 27.8892 83.3601 30.8415Z" fill="#EBEBEB"/>
<path d="M83.3039 30.4935C83.2359 30.4935 83.1199 30.0255 82.8159 29.1975C82.3915 28.0346 81.7897 26.9443 81.0319 25.9655C79.9123 24.5281 78.4599 23.3846 76.7999 22.6335C76.3245 22.4178 75.8338 22.2373 75.3319 22.0935C74.8085 21.9378 74.2735 21.8241 73.7319 21.7535C73.1739 21.6776 72.611 21.6442 72.0479 21.6535C71.4688 21.67 70.8914 21.7261 70.3199 21.8215C69.7488 21.9275 69.186 22.0745 68.6359 22.2615C68.1034 22.4454 67.5859 22.67 67.0879 22.9335C66.6084 23.1815 66.1495 23.4678 65.7159 23.7895C65.2913 24.0965 64.8902 24.4347 64.5159 24.8015C63.8254 25.4809 63.2245 26.2457 62.7279 27.0775C62.3029 27.8088 61.9582 28.584 61.6999 29.3895C61.3257 30.5678 61.1368 31.7971 61.1399 33.0335C61.1399 33.9135 61.1959 34.4055 61.1399 34.4175C61.0839 34.4295 60.9199 33.9535 60.8159 33.0495C60.6802 31.7641 60.7847 30.4647 61.1239 29.2175C61.6314 27.3422 62.612 25.6288 63.9719 24.2415C64.7724 23.4253 65.6906 22.7336 66.6959 22.1895C67.2311 21.901 67.7873 21.6536 68.3599 21.4495C69.5444 21.0337 70.7887 20.8135 72.0439 20.7975C72.6515 20.7888 73.2588 20.829 73.8599 20.9175C74.4405 21.0039 75.0131 21.1377 75.5719 21.3175C76.109 21.4809 76.6331 21.6841 77.1399 21.9255C78.0734 22.3745 78.9436 22.9448 79.7279 23.6215C80.4036 24.2148 81.0064 24.8862 81.5239 25.6215C82.2695 26.676 82.812 27.8602 83.1239 29.1135C83.3479 29.9815 83.3559 30.4855 83.3039 30.4935Z" fill="#E0E0E0"/>
<path d="M74.4399 38.9255L74.7519 40.8655L73.0199 41.1415L72.7199 39.2575C70.9919 39.4255 69.2599 39.1535 68.1919 38.5615L68.7999 36.2975C69.9046 36.8344 71.1305 37.073 72.3559 36.9895L71.8919 34.1015C69.8919 33.9415 67.6519 33.6455 67.2559 31.1735C66.9639 29.3375 68.0559 27.5735 70.7239 26.8015L70.4159 24.8815L72.1479 24.6055L72.4479 26.4895C73.6966 26.3593 74.9583 26.5294 76.1279 26.9855L75.5999 29.2495C74.7075 28.9065 73.7556 28.7447 72.7999 28.7735L73.2679 31.7135C75.2679 31.8575 77.4719 32.1575 77.8639 34.5975C78.1679 36.3975 77.1039 38.1655 74.4399 38.9255ZM71.4879 31.5575L71.0879 29.1015C70.2039 29.4575 69.9239 30.0175 70.0159 30.5895C70.1079 31.1615 70.6879 31.4375 71.4879 31.5575ZM75.1279 35.2495C75.0319 34.6455 74.4799 34.3975 73.6919 34.2575L74.0919 36.6575C74.9079 36.3135 75.1999 35.7895 75.1279 35.2495Z" fill="#E0E0E0"/>
<path d="M82.2679 82.4975C83.0107 87.52 82.2466 92.6499 80.0724 97.2379C77.8982 101.826 74.4116 105.666 70.054 108.271C65.6965 110.877 60.6638 112.131 55.5932 111.874C50.5226 111.618 45.642 109.863 41.5692 106.832C37.4965 103.8 34.4147 99.6287 32.7141 94.8449C31.0134 90.0611 30.7704 84.8802 32.0156 79.9582C33.2609 75.0362 35.9386 70.5943 39.7096 67.1949C43.4806 63.7955 48.1755 61.5913 53.1999 60.8615C59.9236 59.8762 66.7633 61.6022 72.2146 65.6597C77.6658 69.7172 81.2821 75.7739 82.2679 82.4975Z" fill="#F5F5F5"/>
<path d="M76.2281 83.3895C76.7935 87.217 76.2105 91.1262 74.5531 94.6223C72.8957 98.1183 70.2382 101.044 66.9172 103.029C63.5962 105.014 59.7609 105.969 55.8968 105.773C52.0327 105.578 48.3136 104.24 45.2101 101.929C42.1067 99.619 39.7586 96.4397 38.4629 92.7941C37.1672 89.1484 36.9823 85.2003 37.9316 81.4495C38.8808 77.6987 40.9216 74.3139 43.7955 71.7235C46.6694 69.133 50.2472 67.4535 54.0761 66.8975C59.2005 66.148 64.4127 67.4643 68.5668 70.5569C72.7208 73.6496 75.4766 78.2654 76.2281 83.3895Z" fill="#EBEBEB"/>
<path d="M76.1358 82.7735C76.0198 82.7735 75.8118 81.9735 75.2838 80.5175C74.5486 78.5023 73.5055 76.6133 72.1918 74.9175C71.2845 73.7664 70.2544 72.7175 69.1198 71.7895C67.8138 70.7315 66.3782 69.8444 64.8478 69.1495C64.0236 68.7719 63.1718 68.4577 62.2998 68.2095C61.3939 67.9418 60.4684 67.7452 59.5318 67.6215C58.5632 67.4873 57.5855 67.4298 56.6078 67.4495C55.6008 67.4741 54.5968 67.5717 53.6038 67.7415C52.6132 67.923 51.6373 68.177 50.6838 68.5015C49.7589 68.819 48.8602 69.2082 47.9958 69.6655C47.1583 70.1057 46.3559 70.6099 45.5958 71.1735C44.8634 71.7075 44.1721 72.2958 43.5278 72.9335C42.3296 74.1112 41.2877 75.4381 40.4278 76.8815C39.6825 78.1451 39.0775 79.4864 38.6238 80.8815C37.9764 82.9269 37.6486 85.06 37.6518 87.2055C37.6518 88.7375 37.7478 89.6055 37.6518 89.6055C37.5558 89.6055 37.2518 88.8055 37.0918 87.2295C36.8487 85.0038 37.0209 82.7523 37.5998 80.5895C38.4771 77.3344 40.1801 74.3611 42.5438 71.9575C43.2214 71.2571 43.953 70.6111 44.7318 70.0255C45.5391 69.4065 46.3952 68.854 47.2918 68.3735C48.2209 67.8708 49.1879 67.4415 50.1838 67.0895C52.2421 66.3692 54.4034 65.987 56.5838 65.9575C57.6397 65.9436 58.695 66.0132 59.7398 66.1655C61.7129 66.4558 63.6315 67.0396 65.4318 67.8975C68.4734 69.3417 71.0911 71.5461 73.0318 74.2975C74.3343 76.127 75.2839 78.1835 75.8318 80.3615C76.2118 81.8815 76.2198 82.7575 76.1358 82.7735Z" fill="#E0E0E0"/>
<path d="M60.7441 97.4095L61.2841 100.773L58.2841 101.253L57.7601 97.9815C54.7561 98.2775 51.7601 97.8055 49.9001 96.7815L50.9641 92.8535C52.8797 93.7818 55.0041 94.1954 57.1281 94.0535L56.3281 89.0375C52.8681 88.7615 48.9681 88.2375 48.2801 83.9535C47.7681 80.7535 49.6441 77.6695 54.3001 76.3535L53.7681 73.0215L56.7721 72.5375L57.2921 75.8135C59.5761 75.6335 61.8601 75.8815 63.6921 76.6655L62.7841 80.6015C61.2342 80.0104 59.582 79.7344 57.9241 79.7895L58.7241 84.8935C62.1841 85.1415 66.0241 85.6655 66.7001 89.8975C67.2001 93.0175 65.3681 96.0855 60.7441 97.4095ZM55.6201 84.6095L54.9361 80.3455C53.4041 80.9615 52.9121 81.9455 53.0721 82.9255C53.2321 83.9055 54.2321 84.4135 55.6201 84.6215V84.6095ZM61.9441 91.0095C61.7721 89.9575 60.8121 89.5295 59.4481 89.2855L60.1121 93.4255C61.5601 92.8775 62.0961 91.9895 61.9441 91.0295V91.0095Z" fill="#E0E0E0"/>
<path d="M26.3 56.8215C24.4401 55.3108 23.0702 53.2823 22.3638 50.9927C21.6574 48.7031 21.6462 46.2554 22.3317 43.9594C23.0171 41.6635 24.3683 39.6225 26.2143 38.0949C28.0603 36.5673 30.318 35.6217 32.7017 35.3779C35.0854 35.1341 37.4878 35.603 39.6048 36.7253C41.7218 37.8476 43.4582 39.5727 44.5943 41.6824C45.7303 43.7921 46.2149 46.1914 45.9866 48.5765C45.7584 50.9617 44.8275 53.2256 43.312 55.0815C42.3095 56.3132 41.0742 57.3353 39.6765 58.0894C38.2789 58.8436 36.7464 59.3149 35.1665 59.4765C33.5867 59.638 31.9904 59.4867 30.4691 59.0312C28.9477 58.5756 27.531 57.8248 26.3 56.8215Z" fill="#F5F5F5"/>
<path d="M28.1199 54.5895C26.7029 53.4377 25.6595 51.8915 25.1217 50.1465C24.5839 48.4014 24.5759 46.5361 25.0987 44.7865C25.6216 43.0369 26.6517 41.4818 28.0588 40.3179C29.4658 39.1541 31.1865 38.4338 33.0031 38.2484C34.8197 38.0629 36.6505 38.4205 38.2637 39.276C39.8769 40.1315 41.2001 41.4464 42.0657 43.0542C42.9313 44.662 43.3004 46.4905 43.1264 48.3082C42.9523 50.1259 42.2429 51.8512 41.0879 53.2655C40.3247 54.2059 39.3834 54.9863 38.3179 55.562C37.2524 56.1378 36.0837 56.4974 34.8789 56.6205C33.674 56.7435 32.4568 56.6274 31.2969 56.2789C30.137 55.9303 29.0574 55.3562 28.1199 54.5895Z" fill="#EBEBEB"/>
<path d="M28.3442 54.7735C28.3802 54.7255 28.7202 54.9535 29.3602 55.2855C30.2598 55.7517 31.2258 56.0768 32.2242 56.2495C33.6958 56.4966 35.2054 56.3841 36.6242 55.9215C37.4533 55.6443 38.2396 55.2525 38.9602 54.7575C39.3398 54.4954 39.6983 54.2038 40.0322 53.8855C40.3752 53.5561 40.6934 53.2018 40.9842 52.8255C41.2716 52.4448 41.5309 52.0438 41.7602 51.6255C41.9796 51.2195 42.1669 50.7968 42.3202 50.3615C42.4731 49.9424 42.5922 49.5117 42.6762 49.0735C42.7611 48.6542 42.8133 48.2289 42.8322 47.8015C42.874 47.0104 42.8135 46.2171 42.6522 45.4415C42.5088 44.762 42.2901 44.1006 42.0002 43.4695C41.5732 42.5514 41.008 41.7042 40.3242 40.9575C39.8362 40.4255 39.5242 40.1575 39.5642 40.1135C39.9239 40.2594 40.2485 40.4803 40.5162 40.7615C41.3092 41.4635 41.9644 42.3073 42.4482 43.2495C42.7877 43.9029 43.0482 44.5945 43.2242 45.3095C43.5326 46.5834 43.5721 47.9075 43.3402 49.1975C43.2551 49.6702 43.1334 50.1356 42.9762 50.5895C42.8137 51.0611 42.6131 51.5186 42.3762 51.9575C42.1329 52.4092 41.8547 52.8411 41.5442 53.2495C41.2312 53.6553 40.8875 54.0364 40.5162 54.3895C40.1526 54.7307 39.7635 55.0436 39.3522 55.3255C38.9556 55.5954 38.5383 55.8335 38.1042 56.0375C37.69 56.2376 37.2606 56.4048 36.8202 56.5375C35.2993 57.0061 33.6834 57.0749 32.1282 56.7375C31.093 56.5208 30.107 56.1139 29.2202 55.5375C28.6042 55.1055 28.3202 54.8055 28.3442 54.7735Z" fill="#E0E0E0"/>
<path d="M29.032 44.7695L27.772 43.7895L28.664 42.6655L29.892 43.6375C30.7143 42.6631 31.7941 41.9396 33.008 41.5495L33.892 43.2535C32.9294 43.5438 32.0584 44.0785 31.364 44.8055L33.24 46.2935C34.536 45.2855 36.04 44.2215 37.664 45.4935C38.864 46.4415 39.192 48.1175 37.988 50.0535L39.236 51.0455L38.344 52.1695L37.12 51.1975C36.4365 51.9659 35.5813 52.5621 34.624 52.9375L33.684 51.2775C34.4108 50.991 35.074 50.5642 35.636 50.0215L33.724 48.5055C32.44 49.5215 30.924 50.5615 29.352 49.3055C28.18 48.3615 27.848 46.7055 29.032 44.7695ZM34.896 47.5695L36.496 48.8375C36.832 48.1335 36.692 47.6375 36.324 47.3455C35.956 47.0535 35.444 47.2175 34.896 47.5855V47.5695ZM30.652 47.3895C31.052 47.7015 31.516 47.5455 32.068 47.1935L30.516 45.9655C30.196 46.6095 30.292 47.0895 30.652 47.3895Z" fill="#E0E0E0"/>
<path d="M274.588 181.925C274.588 181.981 217.908 182.029 148.008 182.029C78.1081 182.029 21.4121 181.981 21.4121 181.925C21.4121 181.869 78.0801 181.821 148.008 181.821C217.936 181.821 274.588 181.869 274.588 181.925Z" fill="#263238"/>
<path d="M34.6439 171.149C34.6632 171.086 34.6886 171.024 34.7199 170.965C34.7799 170.833 34.8639 170.661 34.9679 170.437C35.2681 169.755 35.5115 169.048 35.6959 168.325C36.1759 166.445 36.3439 163.577 35.6319 160.165C35.2475 158.308 34.7425 156.477 34.1199 154.685C33.4799 152.741 32.7359 150.685 32.1199 148.445C31.4332 146.118 31.1015 143.7 31.1359 141.273C31.2279 138.733 31.9799 136.201 32.8039 133.673C33.6279 131.145 34.4839 128.677 34.7359 126.193C35.0206 123.805 34.5417 121.389 33.3679 119.289C32.2719 117.289 30.8959 115.553 29.8679 113.765C28.9065 112.111 28.1974 110.322 27.7639 108.457C27.1435 105.756 27.0985 102.954 27.6319 100.233C27.8206 99.2383 28.1073 98.2642 28.4879 97.3255C28.4802 97.3926 28.4641 97.4584 28.4399 97.5215C28.3959 97.6575 28.3399 97.8415 28.2639 98.0775C28.0468 98.7925 27.8692 99.5189 27.7319 100.253C27.2403 102.96 27.3124 105.74 27.9439 108.417C28.3849 110.259 29.0967 112.025 30.0559 113.657C31.0839 115.421 32.4559 117.137 33.5799 119.177C34.7885 121.318 35.2858 123.788 34.9999 126.229C34.7439 128.753 33.8839 131.237 33.0639 133.761C32.2439 136.285 31.4919 138.785 31.3999 141.281C31.3635 143.683 31.6871 146.076 32.3599 148.381C32.9559 150.601 33.6919 152.665 34.3239 154.617C34.9412 156.42 35.4396 158.261 35.8159 160.129C36.5079 163.565 36.3079 166.465 35.7919 168.349C35.5971 169.075 35.3374 169.782 35.0159 170.461C34.8999 170.677 34.8119 170.861 34.7439 170.977C34.7155 171.038 34.682 171.095 34.6439 171.149Z" fill="#263238"/>
<path d="M31.2759 115.537C31.2759 115.537 29.1999 108.849 32.9359 104.933C32.9651 104.901 33.0027 104.878 33.0444 104.866C33.0862 104.855 33.1304 104.855 33.172 104.867C33.2137 104.879 33.2511 104.902 33.28 104.935C33.309 104.967 33.3283 105.007 33.3359 105.049C33.5319 106.153 33.7839 109.517 31.2759 115.537Z" fill="#FFC13E"/>
<path d="M32.528 107.161C32.5235 107.577 32.4766 107.991 32.388 108.397C32.248 109.245 32.088 110.245 31.908 111.345C31.728 112.445 31.576 113.445 31.44 114.293C31.4068 114.706 31.3331 115.115 31.22 115.513C31.1825 115.1 31.1946 114.684 31.256 114.273C31.328 113.509 31.46 112.457 31.656 111.301C31.852 110.145 32.056 109.109 32.208 108.361C32.2702 107.951 32.3775 107.548 32.528 107.161Z" fill="#263238"/>
<path d="M33.7319 131.305C33.7319 131.305 35.0079 124.417 40.1559 122.709C40.1964 122.696 40.2398 122.694 40.2815 122.703C40.3231 122.712 40.3614 122.733 40.392 122.763C40.4226 122.793 40.4444 122.83 40.455 122.872C40.4655 122.913 40.4645 122.957 40.4519 122.997C40.1119 124.069 38.7599 127.157 33.7319 131.305Z" fill="#FFC13E"/>
<path d="M38.7519 124.489C38.5546 124.854 38.32 125.197 38.0519 125.513L36.2519 127.913L34.4599 130.313C34.2344 130.662 33.9773 130.988 33.6919 131.289C33.8524 130.906 34.0592 130.543 34.3079 130.209C34.7079 129.565 35.3359 128.697 36.0439 127.769C36.7519 126.841 37.4119 126.013 37.9079 125.429C38.1516 125.084 38.4349 124.769 38.7519 124.489Z" fill="#263238"/>
<path d="M32.3402 148.589C32.3402 148.589 31.5642 141.621 36.0002 138.493C36.0351 138.468 36.0764 138.453 36.1194 138.45C36.1624 138.447 36.2054 138.456 36.2436 138.476C36.2818 138.496 36.3137 138.526 36.3357 138.563C36.3577 138.6 36.369 138.642 36.3682 138.685C36.3442 139.789 35.9482 143.153 32.3402 148.589Z" fill="#FFC13E"/>
<path d="M35.168 140.589C35.0827 141.001 34.9567 141.403 34.792 141.789L33.764 144.589L32.74 147.389C32.6251 147.787 32.4752 148.174 32.292 148.545C32.3321 148.136 32.4235 147.733 32.564 147.345C32.776 146.609 33.112 145.601 33.516 144.505C33.92 143.409 34.316 142.429 34.62 141.725C34.7568 141.326 34.9408 140.945 35.168 140.589Z" fill="#263238"/>
<path d="M36.2161 165.965C36.2161 165.965 35.6881 158.977 40.2161 156.013C40.2516 155.99 40.2928 155.977 40.3352 155.975C40.3777 155.973 40.4198 155.983 40.4569 156.004C40.4941 156.025 40.5248 156.055 40.5458 156.092C40.5669 156.129 40.5774 156.171 40.5761 156.213C40.5361 157.333 40.0201 160.665 36.2161 165.965Z" fill="#FFC13E"/>
<path d="M39.3281 158.089C39.2337 158.492 39.0997 158.885 38.9281 159.261C38.6001 160.061 38.2201 160.993 37.7961 162.025L36.6761 164.793C36.5465 165.186 36.3818 165.566 36.1841 165.929C36.2425 165.519 36.3485 165.116 36.5001 164.729C36.7401 164.001 37.1081 163.005 37.5561 161.929C38.0041 160.853 38.4281 159.881 38.7561 159.189C38.906 158.803 39.0978 158.434 39.3281 158.089Z" fill="#263238"/>
<path d="M28.268 109.661C28.268 109.661 22.06 106.417 21.94 100.989C21.9388 100.947 21.9493 100.905 21.9703 100.868C21.9914 100.831 22.0221 100.801 22.0593 100.78C22.0964 100.759 22.1385 100.749 22.181 100.751C22.2234 100.753 22.2646 100.766 22.3 100.789C23.224 101.437 25.78 103.633 28.268 109.661Z" fill="#FFC13E"/>
<path d="M23.228 102.861C23.5176 103.159 23.7762 103.484 24 103.833L25.752 106.253L27.508 108.653C27.7748 108.971 28.0118 109.312 28.216 109.673C27.8964 109.408 27.6103 109.104 27.364 108.769C26.872 108.181 26.224 107.341 25.54 106.393C24.856 105.445 24.264 104.569 23.848 103.925C23.6026 103.595 23.3946 103.238 23.228 102.861Z" fill="#263238"/>
<path d="M34.9361 124.021C34.9361 124.021 28.5361 121.161 28.0921 115.757C28.0886 115.715 28.0967 115.673 28.1156 115.635C28.1345 115.597 28.1634 115.565 28.1993 115.542C28.2352 115.519 28.2767 115.507 28.3191 115.506C28.3616 115.505 28.4034 115.516 28.4401 115.537C29.4001 116.117 32.0881 118.157 34.9361 124.021Z" fill="#FFC13E"/>
<path d="M29.4922 117.537C29.7981 117.818 30.0767 118.128 30.3242 118.461L32.2162 120.769C32.9282 121.629 33.5722 122.409 34.1162 123.073C34.4038 123.373 34.661 123.7 34.8842 124.049C34.5589 123.799 34.2624 123.513 34.0002 123.197C33.4722 122.637 32.7722 121.841 32.0362 120.937C31.3002 120.033 30.6482 119.193 30.1962 118.573C29.9227 118.256 29.6865 117.909 29.4922 117.537Z" fill="#263238"/>
<path d="M31.2562 140.037C31.2562 140.037 26.8562 134.577 28.9282 129.565C28.945 129.528 28.9712 129.496 29.0043 129.472C29.0374 129.449 29.0761 129.434 29.1167 129.43C29.1572 129.426 29.1981 129.433 29.2353 129.449C29.2724 129.466 29.3045 129.492 29.3282 129.525C29.9282 130.481 31.3922 133.517 31.2562 140.037Z" fill="#FFC13E"/>
<path d="M29.3643 131.789C29.5089 132.178 29.616 132.58 29.6843 132.989C29.8643 133.829 30.0843 134.817 30.3163 135.909C30.5483 137.001 30.7723 137.985 30.9603 138.825C31.0754 139.218 31.1557 139.619 31.2003 140.025C31.0204 139.652 30.8861 139.259 30.8003 138.853C30.5843 138.117 30.3243 137.089 30.0803 135.949C29.8363 134.809 29.6403 133.765 29.5203 133.009C29.4234 132.61 29.3711 132.201 29.3643 131.789Z" fill="#263238"/>
<path d="M35.6 158.885C35.6 158.885 29.252 155.917 28.892 150.509C28.8882 150.466 28.8965 150.423 28.9161 150.384C28.9357 150.346 28.9657 150.313 29.0028 150.291C29.0398 150.268 29.0825 150.256 29.1258 150.257C29.1691 150.257 29.2115 150.27 29.248 150.293C30.204 150.889 32.856 152.989 35.6 158.885Z" fill="#FFC13E"/>
<path d="M30.272 152.313C30.5696 152.598 30.8377 152.911 31.072 153.249L32.928 155.589L34.8 157.925C35.0797 158.23 35.3314 158.56 35.552 158.909C35.2194 158.66 34.9197 158.37 34.66 158.045C34.14 157.477 33.46 156.669 32.732 155.753C32.004 154.837 31.376 153.985 30.936 153.353C30.6777 153.032 30.455 152.683 30.272 152.313Z" fill="#263238"/>
<path d="M48.2479 131.341C48.2538 131.393 48.2538 131.446 48.2479 131.497C48.2479 131.617 48.2479 131.765 48.2479 131.945C48.2479 132.365 48.2039 132.933 48.1719 133.645C48.0919 135.137 47.9759 137.217 47.8399 139.709C47.3879 142.241 46.0959 145.053 44.3599 147.781C43.0879 149.781 41.7559 151.617 40.6039 153.317C39.5635 154.801 38.6278 156.356 37.8039 157.969C37.2579 159.064 36.816 160.208 36.4839 161.385C36.3719 161.805 36.2879 162.129 36.2399 162.353C36.2208 162.468 36.1899 162.581 36.1479 162.689C36.1496 162.572 36.163 162.456 36.1879 162.341C36.2199 162.117 36.2879 161.785 36.3879 161.361C36.683 160.164 37.1013 159.001 37.6359 157.889C38.4517 156.253 39.3876 154.679 40.4359 153.181C41.5799 151.469 42.9039 149.641 44.1719 147.641C45.8959 144.925 47.1799 142.161 47.6519 139.665C47.8279 137.177 47.9719 135.097 48.0799 133.605C48.1359 132.901 48.1799 132.333 48.2159 131.913C48.2159 131.733 48.2479 131.589 48.2599 131.465C48.2719 131.341 48.2399 131.341 48.2479 131.341Z" fill="#263238"/>
<path d="M44.4681 147.273C44.4681 147.273 47.1561 140.805 43.7761 136.565C43.7493 136.533 43.7144 136.509 43.675 136.495C43.6356 136.481 43.5932 136.478 43.5523 136.486C43.5113 136.495 43.4733 136.514 43.4423 136.542C43.4113 136.57 43.3884 136.606 43.3761 136.645C43.0721 137.725 42.5161 141.053 44.4681 147.273Z" fill="#FFC13E"/>
<path d="M44.0003 138.821C44.1152 139.221 44.1863 139.631 44.2123 140.045C44.3083 140.805 44.4163 141.861 44.4963 143.025C44.5763 144.189 44.6203 145.249 44.6203 146.017C44.6476 146.432 44.622 146.849 44.5443 147.257C44.4713 146.85 44.4352 146.436 44.4363 146.021C44.3763 145.165 44.3123 144.157 44.2363 143.045C44.1603 141.933 44.0883 140.921 44.0283 140.065C43.9766 139.653 43.9672 139.236 44.0003 138.821Z" fill="#263238"/>
<g opacity="0.3">
<path d="M44.4681 147.273C44.4681 147.273 47.1561 140.805 43.7761 136.565C43.7493 136.533 43.7144 136.509 43.675 136.495C43.6356 136.481 43.5932 136.478 43.5523 136.486C43.5113 136.495 43.4733 136.514 43.4423 136.542C43.4113 136.57 43.3884 136.606 43.3761 136.645C43.0721 137.725 42.5161 141.053 44.4681 147.273Z" fill="black"/>
</g>
<path d="M36.144 162.865C36.144 162.865 38.3 156.197 34.584 152.249C34.5559 152.216 34.5186 152.191 34.4767 152.178C34.4349 152.165 34.3901 152.165 34.3479 152.176C34.3057 152.188 34.2678 152.212 34.2388 152.245C34.2097 152.278 34.1907 152.318 34.184 152.361C33.976 153.461 33.692 156.821 36.144 162.865Z" fill="#FFC13E"/>
<path d="M34.9722 154.481C35.1213 154.868 35.226 155.271 35.2842 155.681C35.4402 156.433 35.6322 157.473 35.8082 158.629C35.9842 159.785 36.1122 160.837 36.1722 161.601C36.2313 162.013 36.2407 162.431 36.2002 162.845C36.0911 162.445 36.0201 162.035 35.9882 161.621C35.8642 160.769 35.7122 159.773 35.5482 158.669C35.3842 157.565 35.2282 156.565 35.1002 155.713C35.0162 155.308 34.9733 154.895 34.9722 154.481Z" fill="#263238"/>
<g opacity="0.3">
<path d="M36.144 162.865C36.144 162.865 38.3 156.197 34.584 152.249C34.5559 152.216 34.5186 152.191 34.4767 152.178C34.4349 152.165 34.3901 152.165 34.3479 152.176C34.3057 152.188 34.2678 152.212 34.2388 152.245C34.2097 152.278 34.1907 152.318 34.184 152.361C33.976 153.461 33.692 156.821 36.144 162.865Z" fill="black"/>
</g>
<path d="M47.8921 139.389C47.8921 139.389 53.6321 135.369 53.0521 129.981C53.0505 129.936 53.0355 129.892 53.0089 129.854C52.9823 129.817 52.9454 129.789 52.9026 129.772C52.8599 129.756 52.8133 129.753 52.7687 129.763C52.7242 129.773 52.6836 129.796 52.6521 129.829C51.8321 130.561 49.6001 133.069 47.8921 139.389Z" fill="#FFC13E"/>
<g opacity="0.3">
<path d="M47.8921 139.389C47.8921 139.389 53.6321 135.369 53.0521 129.981C53.0505 129.936 53.0355 129.892 53.0089 129.854C52.9823 129.817 52.9454 129.789 52.9026 129.772C52.8599 129.756 52.8133 129.753 52.7687 129.763C52.7242 129.773 52.6836 129.796 52.6521 129.829C51.8321 130.561 49.6001 133.069 47.8921 139.389Z" fill="black"/>
</g>
<path d="M52 131.973C51.885 132.373 51.7253 132.758 51.524 133.121C51.196 133.813 50.724 134.757 50.168 135.785C49.612 136.813 49.076 137.729 48.664 138.377C48.4634 138.742 48.2189 139.08 47.936 139.385C48.0923 139.003 48.2823 138.634 48.504 138.285L49.936 135.661L51.36 133.037C51.5365 132.662 51.751 132.305 52 131.973Z" fill="#263238"/>
<path d="M38.46 156.257C38.46 156.257 45.38 155.177 47.236 150.081C47.2508 150.041 47.2543 149.998 47.246 149.956C47.2377 149.914 47.218 149.875 47.189 149.844C47.1601 149.812 47.123 149.789 47.0818 149.778C47.0407 149.766 46.9971 149.766 46.956 149.777C45.876 150.085 42.748 151.345 38.46 156.257Z" fill="#FFC13E"/>
<g opacity="0.3">
<path d="M38.46 156.257C38.46 156.257 45.38 155.177 47.236 150.081C47.2508 150.041 47.2543 149.998 47.246 149.956C47.2377 149.914 47.218 149.875 47.189 149.844C47.1601 149.812 47.123 149.789 47.0818 149.778C47.0407 149.766 46.9971 149.766 46.956 149.777C45.876 150.085 42.748 151.345 38.46 156.257Z" fill="black"/>
</g>
<path d="M45.4161 151.433C45.1346 151.738 44.8223 152.013 44.4841 152.253C43.8841 152.729 43.0401 153.369 42.0841 154.049C41.1281 154.729 40.2521 155.313 39.5961 155.713C39.2545 155.952 38.8851 156.148 38.4961 156.297C38.8056 156.02 39.1404 155.772 39.4961 155.557L41.9321 153.833L44.3681 152.105C44.6923 151.845 45.0437 151.619 45.4161 151.433Z" fill="#263238"/>
<path d="M30.2681 168.993L32.2561 182.017L40.1841 182.005L42.8561 168.993H30.2681Z" fill="#455A64"/>
<path d="M41.6923 174.017C41.6923 174.017 41.6923 174.037 41.6243 174.065C41.5582 174.111 41.4886 174.151 41.4163 174.185C41.1374 174.32 40.839 174.409 40.5323 174.449C40.0416 174.516 39.5423 174.469 39.0723 174.313C38.4401 174.113 37.89 173.713 37.5043 173.173C37.2878 172.85 37.1608 172.474 37.1363 172.085C37.1154 171.867 37.1547 171.648 37.2499 171.45C37.3451 171.253 37.4926 171.085 37.6763 170.965C37.8863 170.86 38.1212 170.815 38.3554 170.834C38.5895 170.853 38.814 170.936 39.0043 171.073C39.3987 171.364 39.6699 171.793 39.7643 172.273C39.8679 172.757 39.9016 173.253 39.8643 173.745C39.8346 174.261 39.7253 174.768 39.5403 175.249C39.3466 175.756 39.0306 176.207 38.6203 176.561C38.1973 176.937 37.6609 177.161 37.0963 177.197C36.5284 177.211 35.97 177.051 35.4963 176.737C35.0391 176.451 34.6334 176.09 34.2963 175.669C33.9566 175.263 33.7475 174.764 33.6963 174.237C33.6759 173.979 33.7162 173.72 33.8142 173.48C33.9121 173.241 34.0649 173.027 34.2603 172.857C34.4603 172.707 34.7 172.62 34.9496 172.605C35.1993 172.59 35.4478 172.648 35.6643 172.773C35.87 172.877 36.0492 173.026 36.188 173.21C36.3267 173.394 36.4212 173.607 36.4643 173.833C36.5236 174.238 36.4595 174.651 36.2804 175.019C36.1012 175.386 35.8154 175.691 35.4603 175.893C34.8768 176.212 34.1981 176.31 33.5483 176.169C33.0662 176.073 32.6046 175.893 32.1843 175.637C31.919 175.482 31.6639 175.309 31.4203 175.121C31.3318 175.061 31.2501 174.991 31.1763 174.913C31.2703 174.963 31.3599 175.021 31.4443 175.085C31.6203 175.201 31.8763 175.373 32.2443 175.565C32.6674 175.798 33.1253 175.962 33.6003 176.049C34.2211 176.168 34.8638 176.064 35.4163 175.757C35.7375 175.567 35.9949 175.286 36.1558 174.949C36.3168 174.612 36.374 174.235 36.3203 173.865C36.2797 173.666 36.1937 173.478 36.0688 173.317C35.9439 173.156 35.7836 173.026 35.6003 172.937C35.4151 172.831 35.2028 172.781 34.9895 172.793C34.7762 172.806 34.5713 172.881 34.4003 173.009C34.2338 173.159 34.1039 173.346 34.0207 173.554C33.9375 173.762 33.9031 173.986 33.9203 174.209C33.9696 174.693 34.1649 175.151 34.4803 175.521C34.7985 175.921 35.1811 176.264 35.6123 176.537C36.0454 176.835 36.559 176.992 37.0843 176.989C37.601 176.953 38.0915 176.748 38.4803 176.405C38.8645 176.073 39.1612 175.651 39.3443 175.177C39.5227 174.718 39.6279 174.234 39.6563 173.741C39.6941 173.269 39.6645 172.794 39.5683 172.329C39.4884 171.897 39.2485 171.51 38.8963 171.245C38.7355 171.126 38.5452 171.052 38.3458 171.032C38.1464 171.013 37.9454 171.048 37.7643 171.133C37.6076 171.236 37.4819 171.379 37.4008 171.547C37.3197 171.716 37.2863 171.903 37.3043 172.089C37.3233 172.45 37.4364 172.799 37.6323 173.101C37.9946 173.619 38.5133 174.008 39.1123 174.209C39.5631 174.37 40.0443 174.427 40.5203 174.377C40.9284 174.324 41.3246 174.202 41.6923 174.017Z" fill="#263238"/>
<path d="M256 141.357C258.617 138.739 261.87 136.846 265.439 135.864C269.009 134.883 272.772 134.846 276.36 135.757C270.288 139.894 263.123 142.133 255.776 142.189" fill="#FFC13E"/>
<path d="M262.92 116.905C262.072 110.905 264.404 104.157 268.896 99.7975C269.044 105.741 266.532 112.433 262.92 116.905Z" fill="#FFC13E"/>
<path d="M259.328 128.237C262.576 122.081 267.741 117.15 274.04 114.189C273.056 117.644 271.17 120.774 268.574 123.257C265.978 125.739 262.767 127.485 259.272 128.313" fill="#FFC13E"/>
<path d="M258.584 130.425C262.208 130.525 265.876 130.401 269.384 129.473C272.892 128.545 276.244 126.761 278.584 123.989C271.486 124.012 264.552 126.128 258.652 130.073" fill="#FFC13E"/>
<path d="M260.424 123.221C258.584 116.329 255.552 111.561 250.132 107.697C249.716 111.087 250.524 114.514 252.411 117.36C254.298 120.206 257.14 122.285 260.424 123.221Z" fill="#FFC13E"/>
<path d="M246.748 135.109C246.735 133.099 247.316 131.13 248.419 129.449C249.521 127.768 251.095 126.451 252.944 125.661C252.644 129.221 249.848 133.337 246.748 135.109Z" fill="#FFC13E"/>
<path d="M245.016 129.297C244.764 126.411 243.693 123.658 241.928 121.36C240.164 119.063 237.78 117.317 235.056 116.329C236.308 122.089 239.636 126.885 245.016 129.297Z" fill="#FFC13E"/>
<path d="M247.624 139.613C246.348 137.785 244.26 136.649 242.104 136.085C239.948 135.521 237.704 135.469 235.46 135.421C236.98 137.072 238.84 138.373 240.912 139.236C242.984 140.098 245.218 140.501 247.46 140.417" fill="#FFC13E"/>
<path d="M250.212 154.305C246.145 153.052 241.756 153.367 237.911 155.189C234.065 157.012 231.041 160.208 229.436 164.149C236.984 162.717 244.432 159.349 250.212 154.305Z" fill="#FFC13E"/>
<path d="M258.496 149.201C257.244 152.905 257.484 157.385 260.272 160.581C260.827 158.67 260.955 156.661 260.648 154.694C260.341 152.728 259.607 150.853 258.496 149.201Z" fill="#FFC13E"/>
<path d="M263.392 147.141C263.595 149.53 264.41 151.826 265.759 153.807C267.107 155.789 268.944 157.389 271.092 158.453C271.191 158.518 271.303 158.562 271.42 158.581C271.537 158.601 271.657 158.595 271.772 158.565C272.112 158.429 272.144 157.965 272.104 157.601C271.556 152.853 268.04 148.261 263.392 147.141Z" fill="#FFC13E"/>
<path d="M266.592 146.661C267.655 147.811 268.943 148.73 270.377 149.361C271.81 149.992 273.358 150.321 274.924 150.329C276.49 150.337 278.04 150.023 279.48 149.407C280.919 148.79 282.217 147.884 283.292 146.745C277.984 146.165 271.856 145.777 266.592 146.661Z" fill="#FFC13E"/>
<path d="M267.384 104.217C267.374 104.271 267.358 104.324 267.336 104.373L267.176 104.821C267.024 105.221 266.808 105.805 266.536 106.541C266.264 107.277 265.92 108.201 265.536 109.269C265.344 109.801 265.136 110.369 264.92 110.973L264.26 112.893C263.32 115.581 262.26 118.809 261.148 122.401C260.036 125.993 258.876 129.973 257.732 134.165C256.588 138.357 255.604 142.381 254.752 146.049C253.9 149.717 253.212 153.037 252.7 155.841C252.568 156.541 252.44 157.205 252.324 157.841C252.208 158.477 252.116 159.069 252.02 159.625C251.828 160.741 251.664 161.701 251.552 162.489C251.44 163.277 251.34 163.877 251.272 164.305C251.24 164.501 251.216 164.657 251.196 164.773C251.176 164.889 251.164 164.933 251.164 164.933C251.159 164.88 251.159 164.827 251.164 164.773C251.164 164.657 251.196 164.497 251.22 164.297C251.276 163.873 251.36 163.261 251.46 162.477C251.56 161.693 251.712 160.725 251.896 159.609C251.984 159.049 252.08 158.453 252.184 157.817C252.288 157.181 252.42 156.517 252.548 155.817C253.044 153.017 253.748 149.689 254.548 146.013C255.348 142.337 256.388 138.317 257.516 134.117C258.644 129.917 259.832 125.945 260.948 122.349C262.064 118.753 263.144 115.549 264.104 112.849L264.78 110.933C265.004 110.333 265.212 109.765 265.412 109.233C265.812 108.169 266.144 107.257 266.44 106.517C266.736 105.777 266.956 105.213 267.116 104.813L267.296 104.369C267.36 104.269 267.38 104.217 267.384 104.217Z" fill="#263238"/>
<path d="M238.224 119.389C238.224 119.389 238.256 119.417 238.316 119.473L238.568 119.741C238.792 119.977 239.112 120.333 239.512 120.797C240.652 122.12 241.697 123.521 242.64 124.989C244.046 127.158 245.146 129.511 245.908 131.981C246.784 134.781 247.328 137.929 247.868 141.237C248.948 147.857 250.268 153.785 251.232 158.073C251.712 160.209 252.104 161.937 252.38 163.149C252.512 163.741 252.612 164.205 252.688 164.533C252.716 164.681 252.744 164.801 252.76 164.893C252.771 164.934 252.778 164.976 252.78 165.017C252.763 164.979 252.749 164.939 252.74 164.897C252.716 164.805 252.684 164.689 252.648 164.541C252.564 164.213 252.448 163.741 252.304 163.169C252.012 161.969 251.6 160.233 251.104 158.105C250.108 153.825 248.76 147.897 247.68 141.269C247.14 137.961 246.6 134.809 245.74 132.037C244.996 129.578 243.92 127.233 242.54 125.065C241.611 123.603 240.588 122.202 239.476 120.873C239.076 120.397 238.776 120.037 238.564 119.793L238.324 119.513C238.286 119.476 238.252 119.435 238.224 119.389Z" fill="#263238"/>
<path d="M268.176 146.433C268.114 146.456 268.05 146.468 267.984 146.469L267.436 146.529L267.036 146.569L266.564 146.641C266.228 146.689 265.844 146.741 265.424 146.833L264.768 146.965L264.06 147.141C263.568 147.253 263.06 147.433 262.52 147.597C261.362 147.998 260.238 148.493 259.16 149.077C258.089 149.676 257.079 150.378 256.144 151.173C255.738 151.52 255.352 151.89 254.988 152.281C254.664 152.617 254.358 152.969 254.072 153.337C253.831 153.636 253.605 153.947 253.396 154.269C253.225 154.506 253.07 154.753 252.932 155.009L252.648 155.485C252.619 155.543 252.583 155.597 252.54 155.645C252.555 155.582 252.58 155.522 252.612 155.465L252.864 154.969C252.989 154.705 253.135 154.451 253.3 154.209C253.501 153.877 253.722 153.556 253.96 153.249C254.239 152.87 254.541 152.508 254.864 152.165C255.228 151.766 255.614 151.387 256.02 151.029C256.96 150.22 257.978 149.507 259.06 148.901C260.149 148.311 261.286 147.814 262.46 147.417C263.008 147.257 263.52 147.085 264.02 146.977L264.732 146.809L265.4 146.689C265.824 146.605 266.2 146.565 266.552 146.529L267.024 146.473H267.424L267.98 146.449C268.045 146.437 268.11 146.432 268.176 146.433Z" fill="#263238"/>
<path d="M269.688 119.533C269.566 119.668 269.432 119.791 269.288 119.901L268.196 120.849C267.268 121.649 265.976 122.725 264.544 123.917C263.112 125.109 261.8 126.173 260.848 126.941L259.716 127.837C259.582 127.954 259.438 128.057 259.284 128.145C259.404 128.009 259.538 127.885 259.684 127.777L260.78 126.829C261.708 126.029 263 124.949 264.432 123.761C265.864 122.573 267.172 121.505 268.124 120.737L269.26 119.841C269.392 119.724 269.535 119.621 269.688 119.533Z" fill="#263238"/>
<path d="M270.992 126.553C270.992 126.609 268.22 127.481 264.768 128.501C261.316 129.521 258.5 130.305 258.484 130.249C258.468 130.193 261.256 129.325 264.712 128.305C268.168 127.285 270.976 126.501 270.992 126.553Z" fill="#263238"/>
<path d="M260.7 123.757C260.59 123.634 260.494 123.5 260.412 123.357L259.676 122.237C259.056 121.297 258.168 120.009 257.124 118.637C256.08 117.265 255.068 116.073 254.324 115.221C253.972 114.821 253.676 114.485 253.444 114.213C253.324 114.093 253.22 113.959 253.132 113.813C253.266 113.911 253.389 114.022 253.5 114.145C253.728 114.365 254.044 114.697 254.432 115.109C255.204 115.941 256.232 117.109 257.284 118.497C258.336 119.885 259.204 121.177 259.8 122.141C260.096 122.625 260.328 123.021 260.48 123.297C260.569 123.443 260.643 123.597 260.7 123.757Z" fill="#263238"/>
<path d="M251.02 127.657C250.824 128.03 250.605 128.389 250.364 128.733C249.964 129.385 249.384 130.297 248.8 131.325C248.216 132.353 247.72 133.325 247.372 133.997C247.206 134.381 247.015 134.752 246.8 135.109C246.916 134.704 247.07 134.31 247.26 133.933C247.58 133.225 248.06 132.257 248.644 131.225C249.228 130.193 249.816 129.289 250.268 128.653C250.487 128.299 250.739 127.966 251.02 127.657Z" fill="#263238"/>
<path d="M247.708 139.789C247.226 139.605 246.753 139.397 246.292 139.165C245.42 138.765 244.204 138.261 242.832 137.781C241.46 137.301 240.188 136.941 239.264 136.705C238.759 136.598 238.26 136.464 237.768 136.305C237.903 136.306 238.037 136.32 238.168 136.349C238.436 136.389 238.816 136.461 239.284 136.561C241.727 137.099 244.096 137.929 246.34 139.033C246.768 139.245 247.112 139.433 247.344 139.561C247.474 139.622 247.596 139.699 247.708 139.789Z" fill="#263238"/>
<path d="M250.316 154.329C250.262 154.358 250.204 154.376 250.144 154.385L249.64 154.513L247.788 154.941C245.743 155.372 243.722 155.906 241.732 156.541C239.752 157.203 237.856 158.095 236.084 159.197C235.408 159.625 234.884 159.997 234.524 160.277C234.346 160.422 234.159 160.556 233.964 160.677C234.001 160.629 234.042 160.585 234.088 160.545C234.176 160.465 234.3 160.345 234.488 160.201C234.976 159.792 235.486 159.411 236.016 159.057C237.779 157.913 239.681 156.998 241.676 156.333C243.673 155.692 245.707 155.175 247.768 154.785L249.636 154.421C249.86 154.374 250.087 154.343 250.316 154.329Z" fill="#263238"/>
<path d="M259.744 157.909C259.688 157.909 259.344 155.961 259.004 153.541C258.664 151.121 258.408 149.141 258.464 149.141C258.52 149.141 258.864 151.089 259.204 153.509C259.544 155.929 259.8 157.901 259.744 157.909Z" fill="#263238"/>
<path d="M269.56 154.345C269.243 154.014 268.948 153.663 268.676 153.293C268.144 152.633 267.412 151.721 266.58 150.733C265.748 149.745 264.98 148.865 264.42 148.229C264.102 147.898 263.806 147.545 263.536 147.173C263.64 147.241 263.735 147.323 263.816 147.417C263.988 147.581 264.216 147.817 264.524 148.129C265.112 148.741 265.9 149.613 266.736 150.605C267.572 151.597 268.288 152.521 268.792 153.205C269.04 153.549 269.24 153.829 269.372 154.005C269.452 154.108 269.516 154.223 269.56 154.345Z" fill="#263238"/>
<path d="M243.58 163.449V168.301H244.796L249.104 181.909H258.668L262.844 168.433L264.46 168.301V163.449H243.58Z" fill="#263238"/>
<path d="M263.652 168.433C263.652 168.489 259.432 168.537 254.224 168.537C249.016 168.537 244.796 168.489 244.796 168.433C244.796 168.377 249.016 168.333 254.224 168.333C259.432 168.333 263.652 168.377 263.652 168.433Z" fill="#455A64"/>
<path d="M270.532 137.233C270.331 137.304 270.125 137.359 269.916 137.397L268.24 137.797C266.824 138.149 264.884 138.681 262.776 139.397C260.668 140.113 258.8 140.857 257.46 141.433L255.88 142.125C255.691 142.22 255.494 142.299 255.292 142.361C255.467 142.243 255.652 142.14 255.844 142.053C256.208 141.865 256.74 141.605 257.404 141.301C260.87 139.722 264.489 138.504 268.204 137.665C268.916 137.509 269.496 137.393 269.896 137.325C270.104 137.274 270.318 137.243 270.532 137.233Z" fill="#263238"/>
<path d="M260.48 175.993C260.48 176.049 257.516 176.093 253.864 176.093C250.212 176.093 247.248 176.049 247.248 175.993C247.248 175.937 250.208 175.889 253.864 175.889C257.52 175.889 260.48 175.937 260.48 175.993Z" fill="#FAFAFA"/>
<path d="M260.852 174.866C260.852 174.922 257.712 174.97 253.84 174.97C249.968 174.97 246.828 174.922 246.828 174.866C246.828 174.81 249.968 174.766 253.84 174.766C257.712 174.766 260.852 174.81 260.852 174.866Z" fill="#FAFAFA"/>
<path d="M234.8 37.8975H71.8998C71.2302 37.8954 70.5667 38.0256 69.9475 38.2806C69.3283 38.5357 68.7656 38.9106 68.2917 39.3837C67.8178 39.8569 67.4421 40.419 67.186 41.0378C66.93 41.6566 66.7988 42.3198 66.7998 42.9895V158.053C66.7998 159.402 67.3354 160.695 68.2889 161.648C69.2423 162.602 70.5355 163.137 71.8838 163.137H134.424C134.424 163.137 138.4 175.437 126.072 181.789H184.536C184.536 181.789 170.616 177.017 174.196 163.129H234.8C235.467 163.129 236.129 162.998 236.745 162.742C237.362 162.487 237.923 162.113 238.395 161.64C238.867 161.168 239.241 160.608 239.497 159.991C239.752 159.374 239.884 158.713 239.884 158.045V42.9895C239.885 42.3212 239.754 41.6592 239.499 41.0415C239.244 40.4237 238.87 39.8623 238.398 39.3894C237.925 38.9164 237.365 38.5412 236.747 38.2852C236.13 38.0293 235.468 37.8975 234.8 37.8975Z" fill="#455A64"/>
<path d="M155.532 151.034C157.748 154.202 154.276 157.67 151.108 155.454C151.003 155.378 150.911 155.287 150.836 155.182C148.628 152.018 152.092 148.554 155.256 150.762C155.362 150.837 155.455 150.928 155.532 151.034Z" fill="#263238"/>
<path d="M73.3678 40.0215H233.084C234.113 40.0215 235.1 40.4303 235.827 41.1579C236.555 41.8856 236.964 42.8724 236.964 43.9015V142.101H69.4878V43.9015C69.4878 42.8724 69.8966 41.8856 70.6242 41.1579C71.3519 40.4303 72.3388 40.0215 73.3678 40.0215Z" fill="white"/>
<path d="M73.2796 40.0055H233.956C234.753 40.0055 235.518 40.3224 236.083 40.8865C236.647 41.4506 236.964 42.2157 236.964 43.0135V48.4895H69.5996V43.6695C69.5991 43.1868 69.694 42.7088 69.879 42.263C70.0639 41.8172 70.3352 41.4123 70.6772 41.0718C71.0193 40.7312 71.4253 40.4617 71.8719 40.2787C72.3185 40.0957 72.797 40.0028 73.2796 40.0055Z" fill="#EBEBEB"/>
<path d="M76.1279 44.4255C76.1279 44.6581 76.0589 44.8854 75.9297 45.0788C75.8005 45.2722 75.6168 45.423 75.4019 45.512C75.187 45.601 74.9506 45.6243 74.7225 45.5789C74.4943 45.5335 74.2848 45.4215 74.1203 45.257C73.9559 45.0926 73.8439 44.883 73.7985 44.6549C73.7531 44.4268 73.7764 44.1903 73.8654 43.9754C73.9544 43.7606 74.1051 43.5769 74.2985 43.4477C74.4919 43.3185 74.7193 43.2495 74.9519 43.2495C75.2638 43.2495 75.5629 43.3734 75.7834 43.5939C76.004 43.8145 76.1279 44.1136 76.1279 44.4255Z" fill="#263238"/>
<path d="M79.6357 44.4255C79.6357 44.6581 79.5667 44.8854 79.4375 45.0788C79.3083 45.2722 79.1246 45.423 78.9097 45.512C78.6948 45.601 78.4584 45.6243 78.2303 45.5789C78.0021 45.5335 77.7926 45.4215 77.6281 45.257C77.4637 45.0926 77.3517 44.883 77.3063 44.6549C77.2609 44.4268 77.2842 44.1903 77.3732 43.9754C77.4622 43.7606 77.6129 43.5769 77.8063 43.4477C77.9997 43.3185 78.2271 43.2495 78.4597 43.2495C78.7716 43.2495 79.0707 43.3734 79.2913 43.5939C79.5118 43.8145 79.6357 44.1136 79.6357 44.4255Z" fill="#263238"/>
<path d="M82.9716 44.4255C82.9716 44.6581 82.9027 44.8854 82.7734 45.0788C82.6442 45.2722 82.4605 45.423 82.2457 45.512C82.0308 45.601 81.7943 45.6243 81.5662 45.5789C81.3381 45.5335 81.1285 45.4215 80.9641 45.257C80.7996 45.0926 80.6876 44.883 80.6422 44.6549C80.5969 44.4268 80.6201 44.1903 80.7091 43.9754C80.7982 43.7606 80.9489 43.5769 81.1423 43.4477C81.3357 43.3185 81.563 43.2495 81.7956 43.2495C82.1075 43.2495 82.4066 43.3734 82.6272 43.5939C82.8477 43.8145 82.9716 44.1136 82.9716 44.4255Z" fill="#263238"/>
<path d="M205.684 163.153C205.684 163.205 182.484 163.249 153.912 163.249C125.34 163.249 102.136 163.205 102.136 163.153C102.136 163.101 125.312 163.053 153.912 163.053C182.512 163.053 205.684 163.097 205.684 163.153Z" fill="#263238"/>
<path d="M217.252 105.789C219.188 104.789 221.468 104.661 223.616 105.013C224.768 105.205 225.972 105.549 226.76 106.417C227.548 107.285 227.692 108.817 226.792 109.557C226.204 109.952 225.496 110.129 224.792 110.057C223.112 110.037 221.244 109.741 219.9 110.753C219.136 111.333 218.624 112.293 217.708 112.573C217.247 112.685 216.762 112.641 216.328 112.45C215.895 112.258 215.536 111.929 215.308 111.513C214.87 110.671 214.774 109.693 215.04 108.781C215.151 108.145 215.409 107.544 215.793 107.025C216.177 106.505 216.676 106.083 217.252 105.789Z" fill="#EBEBEB"/>
<path d="M212.82 97.2135C214.02 98.9055 216.304 98.3455 217.368 97.3135C218.432 96.2815 218.888 94.7855 219.296 93.3615C220.236 90.1055 221.18 86.6855 220.496 83.3615C220.328 82.3562 219.886 81.4166 219.22 80.6455C218.881 80.2663 218.45 79.9822 217.968 79.8216C217.486 79.6609 216.97 79.6291 216.472 79.7295C215.312 80.0375 214.588 81.1735 214.072 82.2535C212.54 85.4436 211.736 88.9345 211.72 92.4735C211.72 94.1215 211.908 95.8455 212.836 97.2055" fill="#EBEBEB"/>
<path d="M209.572 99.6375C210.856 98.1135 211.1 95.8895 210.528 93.9815C209.956 92.0735 208.664 90.4455 207.176 89.1175C205.424 87.5602 203.386 86.3579 201.176 85.5775C200.319 85.2334 199.398 85.0766 198.476 85.1175C198.015 85.1445 197.568 85.2836 197.174 85.5227C196.779 85.7618 196.449 86.0937 196.212 86.4895C195.58 87.6895 196.184 89.1535 196.84 90.3455C197.992 92.4467 199.31 94.453 200.78 96.3455C201.98 97.8695 203.316 99.3735 205.116 100.062C206.916 100.75 208.788 100.67 209.744 99.4175" fill="#EBEBEB"/>
<path d="M212.74 122.706C212.805 122.455 212.842 122.197 212.848 121.937C212.904 121.381 212.972 120.678 213.052 119.842C213.155 118.81 213.312 117.784 213.524 116.77C213.798 115.532 214.171 114.319 214.64 113.142C215.1 111.965 215.724 110.86 216.492 109.858C217.119 109.043 217.92 108.377 218.836 107.909C219.457 107.603 220.123 107.396 220.808 107.297C221.066 107.288 221.322 107.25 221.572 107.185C221.313 107.16 221.051 107.16 220.792 107.185C220.08 107.242 219.384 107.423 218.736 107.721C217.773 108.176 216.928 108.849 216.268 109.685C215.465 110.7 214.818 111.828 214.348 113.033C213.872 114.229 213.5 115.463 213.236 116.721C213.04 117.75 212.906 118.789 212.836 119.833C212.768 120.725 212.744 121.434 212.732 121.942C212.708 122.196 212.711 122.452 212.74 122.706Z" fill="#E0E0E0"/>
<path d="M212.884 121.093C212.9 120.975 212.9 120.856 212.884 120.737V119.717C212.884 118.833 212.884 117.553 212.928 115.973C213.008 112.813 213.28 109.413 213.804 104.617C214.3 100.109 214.968 94.8615 215.676 91.4495C215.824 90.6735 215.98 89.9775 216.12 89.3655C216.26 88.7535 216.376 88.2215 216.488 87.7975C216.6 87.3735 216.664 87.0655 216.724 86.8055C216.76 86.6913 216.781 86.573 216.788 86.4535C216.733 86.5599 216.691 86.6728 216.664 86.7895C216.588 87.0455 216.488 87.3655 216.368 87.7655C216.248 88.1655 216.104 88.7135 215.948 89.3215C215.792 89.9295 215.62 90.6295 215.456 91.4015C214.584 95.437 213.927 99.5161 213.488 103.621C212.964 108.421 212.724 112.801 212.688 115.969C212.688 117.569 212.688 118.837 212.744 119.721C212.768 120.121 212.788 120.473 212.804 120.741C212.819 120.861 212.846 120.979 212.884 121.093Z" fill="#E0E0E0"/>
<path d="M212.908 112.657C212.933 112.302 212.933 111.945 212.908 111.589C212.868 110.905 212.772 109.917 212.58 108.705C212.347 107.289 212.035 105.887 211.644 104.505C211.184 102.806 210.596 101.144 209.884 99.5335C208.666 96.5658 206.919 93.8442 204.728 91.5015C204.352 91.1007 203.951 90.724 203.528 90.3735C203.344 90.2135 203.176 90.0575 203.012 89.9335L202.54 89.6095C202.255 89.3962 201.956 89.2037 201.644 89.0335C201.592 89.1055 202.912 89.8815 204.58 91.6535C206.698 94.016 208.399 96.7212 209.612 99.6535C210.301 101.258 210.882 102.907 211.352 104.589C211.755 105.958 212.089 107.347 212.352 108.749C212.572 109.949 212.7 110.925 212.776 111.605C212.791 111.959 212.835 112.311 212.908 112.657Z" fill="#E0E0E0"/>
<path d="M204.748 127.542L205.596 139.126H220.476L221.324 127.542H204.748Z" fill="#E0E0E0"/>
<path d="M223.1 122.973H203.312V127.541H223.1V122.973Z" fill="#E0E0E0"/>
<path d="M203.312 138.681V139.949H204.244H222.772V138.681H203.312Z" fill="#EBEBEB"/>
<path d="M205.152 142.177L204.244 139.949H222.064L221 142.177H205.152Z" fill="#E0E0E0"/>
<path d="M221.048 131.325C221.048 131.325 221.048 131.365 220.976 131.433C220.904 131.501 220.844 131.609 220.756 131.729L219.888 132.837L219.848 132.885L219.812 132.837L217.684 129.889H217.804L215.708 132.857L215.644 132.953L215.568 132.865L213.08 129.905H213.224L213.088 130.077L210.864 132.877L210.792 132.969L210.72 132.873L208.624 129.901H208.744L206.16 132.845L206.116 132.897L206.08 132.837L205.28 131.477L205.072 131.117C205.047 131.076 205.026 131.034 205.008 130.989C205.008 130.989 205.044 131.025 205.096 131.101L205.324 131.449C205.532 131.777 205.816 132.225 206.176 132.785H206.092L208.636 129.809L208.7 129.733L208.76 129.813C209.4 130.713 210.112 131.705 210.876 132.769H210.732L212.952 129.969L213.088 129.797L213.16 129.709L213.232 129.793L215.712 132.761H215.572L217.692 129.805L217.752 129.721L217.812 129.805L219.896 132.785H219.824L220.724 131.705L220.964 131.425C220.987 131.389 221.016 131.355 221.048 131.325Z" fill="#F5F5F5"/>
<path d="M221.532 127.465C221.532 127.517 217.8 127.557 213.204 127.557C208.608 127.557 204.872 127.517 204.872 127.465C204.872 127.413 208.6 127.389 213.2 127.389C217.8 127.389 221.532 127.413 221.532 127.465Z" fill="#F5F5F5"/>
<path d="M222.284 140.073C222.284 140.125 218.228 140.166 213.232 140.166C208.236 140.166 204.18 140.125 204.18 140.073C204.18 140.021 208.232 139.982 213.232 139.982C218.232 139.982 222.284 140.021 222.284 140.073Z" fill="#F5F5F5"/>
<path d="M175.056 75.1295C174.632 68.0308 173.937 60.9535 172.972 53.8975C172.392 49.6535 171.704 45.3895 170.24 41.3615C168.776 37.3335 166.476 33.5295 163.136 30.8695C159.796 28.2095 155.336 26.8135 151.2 27.7375L168.084 79.8495C169.344 80.0175 170.628 80.1815 171.872 79.9335C173.116 79.6855 174.336 78.9455 174.828 77.7655C175.102 76.9154 175.18 76.0141 175.056 75.1295Z" fill="#263238"/>
<path d="M145.692 29.5295C142.456 29.2775 138.532 30.5175 136.692 33.2095C135.264 35.3015 135.604 38.9495 135.092 41.4415C134.292 45.4415 133.516 49.4415 133.416 53.5175C133.308 57.9895 134.028 62.4335 134.752 66.8455C135.552 71.7255 136.352 76.6041 137.152 81.4815C137.508 83.6495 137.876 85.8815 138.896 87.8095C139.916 89.7375 141.724 91.4095 143.896 91.6655C145.896 91.8975 147.872 90.8935 149.208 89.3935C150.544 87.8935 151.292 85.9535 151.756 83.9935L145.692 29.5295Z" fill="#263238"/>
<path d="M148.544 75.0815C147.576 75.0335 141.124 76.5815 141.124 76.5815L148.632 105.981L160.652 106.953L171.32 73.4855L148.544 75.0815Z" fill="#AA6550"/>
<path d="M162.052 99.9335C160.326 102.061 157.95 103.563 155.288 104.209C153.823 104.62 152.267 104.576 150.828 104.081C149.42 103.533 148.228 102.269 148.052 100.757L146 106.989L149.644 125.161L155.56 142.109L167.14 142.041L162.052 99.9335Z" fill="#263238"/>
<path d="M115.808 103.537L120.98 97.2855C120.98 97.2855 125.976 80.9775 127.476 79.7575C128.976 78.5375 142.676 75.0975 142.676 75.0975L147.56 96.1655L150.044 122.093L154.6 132.389L159.072 142.073L143.372 142.117C143.372 142.117 136.972 127.665 133.58 119.261C132.479 116.531 131.793 113.651 131.544 110.717L131.376 108.717C131.376 108.717 121.164 132.345 118.756 133.865C116.348 135.385 113.344 137.673 110.032 137.533C106.72 137.393 99.912 127.553 99.912 127.553L99.876 114.409L109.5 110.385L111.168 114.021L115.808 103.537Z" fill="#FFC13E"/>
<path d="M157.232 131.677L158.28 129.097L180.504 118.649L179.816 87.7095L185.736 75.0935C185.736 75.0935 189.096 76.5615 191.04 80.8975C192.412 83.9455 196.368 127.101 194.128 128.449C191.2 130.189 171.536 138.005 164.96 140.589C164.365 140.823 163.706 140.834 163.104 140.621C162.501 140.408 161.996 139.985 161.68 139.429L157.232 131.677Z" fill="#FFC13E"/>
<path d="M183.14 128.305L185.656 74.9895L173.128 72.6815L169.528 70.0855H166.68C166.68 70.0855 167.728 72.7975 167.588 75.0335C167.448 77.2695 157.128 117.209 157.128 117.209L162.988 142.065L189.48 141.985L183.14 128.305Z" fill="#FFC13E"/>
<path d="M173.128 72.6695V72.7455C173.128 72.8055 173.128 72.8775 173.128 72.9695C173.128 73.1815 173.164 73.4735 173.188 73.8455C173.236 74.6135 173.288 75.7415 173.32 77.1695C173.388 80.0335 173.272 84.1215 173.036 88.9975V89.0775H172.952L168.236 89.3415L168.312 89.1895C169.403 90.9213 170.898 92.3625 172.668 93.3895L172.748 93.4375L172.712 93.5215L170.828 97.6895C169.028 101.689 167.356 105.517 166.004 109.065C164.783 112.199 163.729 115.396 162.848 118.641C162.104 121.413 161.676 123.701 161.396 125.281C161.276 126.081 161.18 126.681 161.112 127.109C161.08 127.309 161.056 127.469 161.036 127.585C161.031 127.64 161.021 127.694 161.004 127.745C160.999 127.691 160.999 127.636 161.004 127.581C161.004 127.465 161.036 127.305 161.06 127.105C161.116 126.705 161.184 126.065 161.304 125.269C161.56 123.669 161.968 121.389 162.692 118.601C163.558 115.347 164.599 112.143 165.812 109.001C167.156 105.441 168.828 101.609 170.612 97.6055L172.5 93.4375L172.54 93.5695C170.75 92.5253 169.24 91.062 168.14 89.3055L168.052 89.1655H168.216L172.936 88.9175L172.848 89.0015C173.104 84.1295 173.248 80.0495 173.208 77.1895C173.208 75.7575 173.156 74.6335 173.128 73.8655C173.128 73.4895 173.104 73.1975 173.092 72.9895V72.7615C173.097 72.7286 173.11 72.6972 173.128 72.6695Z" fill="#263238"/>
<path d="M158.4 138.933L158.228 138.853L157.728 138.605C157.288 138.397 156.664 138.037 155.864 137.561C155.464 137.305 155.04 137.029 154.58 136.705C154.12 136.381 153.62 136.017 153.12 135.589C151.957 134.648 150.868 133.619 149.864 132.509C147.248 129.618 145.107 126.331 143.52 122.769C141.606 118.402 140.27 113.803 139.548 109.089C139.02 105.913 138.712 102.801 138.496 99.8415C138.388 98.3695 138.324 96.8855 138.712 95.5095C139.1 94.1335 139.96 92.9135 141.212 92.3815L141.188 92.5335C140.714 92.1297 140.146 91.852 139.536 91.7262C138.927 91.6003 138.295 91.6304 137.7 91.8135L137.588 91.8535V91.7335C137.736 87.1375 137.856 83.3335 137.94 80.7095C137.988 79.4015 138.028 78.3735 138.052 77.6615C138.052 77.3215 138.08 77.0535 138.088 76.8615C138.096 76.6695 138.108 76.5855 138.108 76.5855C138.108 76.5855 138.108 76.6815 138.108 76.8615C138.108 77.0415 138.108 77.3175 138.108 77.6615C138.108 78.3695 138.068 79.3975 138.04 80.7095C137.972 83.3535 137.876 87.1375 137.76 91.7335L137.648 91.6495C138.271 91.4543 138.933 91.4198 139.573 91.5491C140.213 91.6785 140.81 91.9676 141.308 92.3895L141.416 92.4855L141.284 92.5455C140.084 93.0495 139.264 94.2415 138.884 95.5575C138.504 96.8735 138.576 98.3575 138.684 99.8255C138.904 102.781 139.212 105.885 139.744 109.053C140.461 113.75 141.785 118.334 143.684 122.689C145.256 126.237 147.374 129.516 149.96 132.409C150.955 133.517 152.031 134.547 153.18 135.493C153.676 135.925 154.18 136.293 154.624 136.617C155.068 136.941 155.516 137.225 155.896 137.489C156.696 137.973 157.3 138.345 157.736 138.565L158.224 138.829L158.4 138.933Z" fill="#263238"/>
<path d="M179.648 92.5175C179.653 92.5587 179.653 92.6002 179.648 92.6415C179.648 92.7295 179.648 92.8495 179.648 93.0055C179.668 93.3375 179.692 93.8055 179.728 94.4335C179.788 95.6855 179.876 97.5135 179.988 99.8295C180.204 104.477 180.504 111.093 180.868 118.973V119.037L180.812 119.061L160.224 128.189L158.244 129.065L158.3 129.009C158.156 129.369 158.012 129.717 157.868 130.069V129.989C159.328 133.529 160.732 136.949 162.052 140.153L162.012 140.105C162.537 140.417 163.122 140.615 163.728 140.685C163.874 140.696 164.02 140.688 164.164 140.661C164.301 140.627 164.435 140.58 164.564 140.521L165.42 140.197L168.752 138.921L174.956 136.521C178.872 134.993 182.324 133.617 185.176 132.449C188.028 131.281 190.284 130.317 191.808 129.605C192.568 129.249 193.148 128.961 193.524 128.737C193.666 128.656 193.8 128.561 193.924 128.453C193.967 128.419 194 128.373 194.02 128.321C194.012 128.38 193.982 128.433 193.936 128.469C193.813 128.581 193.679 128.681 193.536 128.765C192.983 129.096 192.413 129.398 191.828 129.669C190.312 130.397 188.064 131.381 185.216 132.565C182.368 133.749 178.924 135.137 175.012 136.681L168.812 139.081L165.48 140.365L164.628 140.693C164.482 140.755 164.331 140.805 164.176 140.841C164.015 140.871 163.851 140.88 163.688 140.869C163.05 140.798 162.433 140.592 161.88 140.265H161.852V140.233C160.528 137.033 159.12 133.613 157.66 130.073V130.033V129.993C157.804 129.645 157.944 129.293 158.092 128.933V128.897L158.128 128.877L160.128 128.001L180.76 118.885L180.704 118.973C180.376 111.089 180.1 104.477 179.904 99.8255C179.812 97.5095 179.74 95.6815 179.692 94.4255C179.671 93.8041 179.655 93.3281 179.644 92.9975C179.644 92.8415 179.644 92.7215 179.644 92.6335L179.648 92.5175Z" fill="#263238"/>
<path d="M185.236 76.6095C185.264 76.6335 184.792 77.1695 184.132 78.1055C183.273 79.3275 182.546 80.6376 181.964 82.0135C181.388 83.3915 180.963 84.8279 180.696 86.2975C180.488 87.4255 180.436 88.1375 180.4 88.1335C180.384 87.9659 180.384 87.7971 180.4 87.6295C180.425 87.174 180.473 86.7201 180.544 86.2695C181.001 83.2768 182.188 80.4427 184 78.0175C184.271 77.652 184.561 77.3008 184.868 76.9655C184.979 76.8347 185.102 76.7155 185.236 76.6095Z" fill="#263238"/>
<path d="M131.904 93.2015C131.852 93.0227 131.818 92.8391 131.804 92.6535C131.76 92.3015 131.68 91.7895 131.564 91.1655C130.972 87.8923 129.8 84.751 128.104 81.8895C127.78 81.3415 127.504 80.9015 127.304 80.6055C127.195 80.4547 127.099 80.294 127.02 80.1255C127.15 80.2584 127.268 80.403 127.372 80.5575C127.588 80.8415 127.884 81.2695 128.224 81.8135C130.006 84.654 131.19 87.8279 131.704 91.1415C131.8 91.7735 131.86 92.2895 131.88 92.6455C131.908 92.8294 131.916 93.0158 131.904 93.2015Z" fill="#263238"/>
<path d="M153.476 104.477C153.371 103.962 153.334 103.435 153.368 102.909C153.33 102.386 153.363 101.86 153.468 101.345C153.606 102.385 153.606 103.438 153.468 104.477H153.476Z" fill="#754034"/>
<g opacity="0.3">
<path d="M171.04 89.9775L174.56 90.4495C173.804 88.5135 173.912 78.0495 173.3 76.0055L172.976 88.9895L168.26 89.2415C168.26 89.2415 170.288 91.9655 171.236 92.5375C171.718 92.8148 172.179 93.1263 172.616 93.4695C172.616 93.4695 165.944 109.069 164.904 111.757C162.692 117.481 161.084 127.109 161.084 127.109C166.616 117.509 169.828 106.401 172.728 95.6775C173.01 94.8581 173.119 93.9891 173.048 93.1255C172.852 91.8775 171.924 90.8855 171.04 89.9775Z" fill="black"/>
</g>
<g opacity="0.3">
<path d="M137.704 91.7455C137.64 91.9375 137.756 87.3455 137.784 87.2495C137.812 87.1535 137.184 92.7575 137.072 93.0895L139.004 92.6655C138.524 92.9042 138.1 93.2413 137.758 93.6548C137.417 94.0683 137.167 94.5489 137.024 95.0655C136.745 96.1079 136.636 97.1883 136.7 98.2655C136.828 106.301 138.572 114.553 142.892 121.313C140.068 114.589 139.2 107.221 138.516 99.9495C138.384 98.5215 138.272 97.0975 138.672 95.7175C139.072 94.3375 139.988 92.8695 141.244 92.4015C140.276 91.6015 138.916 91.2015 137.704 91.7455Z" fill="black"/>
</g>
<g opacity="0.3">
<path d="M162.56 140.493C163.068 141.569 164.92 141.493 166.212 141.349C167.496 141.149 168.749 140.785 169.94 140.265C175.316 138.193 180.516 136.329 185.892 134.265L185.144 132.645L164.4 140.713C164.096 140.813 163.774 140.845 163.456 140.807C163.138 140.769 162.832 140.662 162.56 140.493Z" fill="black"/>
</g>
<path d="M107.624 88.5095C106.6 88.4215 103.564 89.3095 102.768 90.7215L101.096 96.3215C101.096 96.3215 104.856 92.4495 106.588 91.8255C109.3 90.8495 110.556 90.8295 109.388 89.3695C109.175 89.1051 108.907 88.8909 108.602 88.7423C108.297 88.5936 107.963 88.5141 107.624 88.5095Z" fill="#AA6550"/>
<path d="M91.8037 92.7455L93.6277 96.9495L93.6997 104.589L102.792 103.249L101.484 95.9295L102.38 92.7135L98.6317 89.5495L91.8037 92.7455Z" fill="#AA6550"/>
<path d="M131.357 99.4112L83.709 99.5526L83.8061 132.268L131.454 132.127L131.357 99.4112Z" fill="#FAFAFA"/>
<path d="M131.444 132.133C131.444 132.133 131.444 131.929 131.444 131.537C131.444 131.145 131.444 130.561 131.444 129.805C131.444 128.289 131.424 126.065 131.404 123.221C131.38 117.533 131.34 109.365 131.292 99.4215L131.376 99.5055L83.7319 99.6615L83.8359 99.5575C83.8639 111.237 83.8959 122.333 83.9199 132.273L83.8239 132.177L118.16 132.125H131.476H131.252H130.592L128.004 132.145L118.224 132.197L83.8239 132.345H83.7319V132.249C83.6999 122.309 83.6639 111.213 83.6279 99.5335V99.4295H83.7359L131.38 99.3135H131.464V99.3975C131.464 109.361 131.484 117.545 131.488 123.249V129.817C131.488 130.565 131.488 131.137 131.488 131.529C131.488 131.921 131.444 132.133 131.444 132.133Z" fill="#263238"/>
<path d="M87.3641 128.765C87.3081 128.765 87.2441 123.213 87.2241 116.365C87.2041 109.517 87.2241 103.965 87.2961 103.965C87.3681 103.965 87.4161 109.513 87.4361 116.365C87.4561 123.217 87.4241 128.765 87.3641 128.765Z" fill="#263238"/>
<path d="M128.708 125.229C128.708 125.289 119.416 125.361 107.952 125.393C96.4878 125.425 87.1958 125.393 87.1958 125.349C87.1958 125.305 96.4878 125.217 107.952 125.185C119.416 125.153 128.708 125.173 128.708 125.229Z" fill="#EBEBEB"/>
<path d="M128.696 121.593C128.696 121.649 119.404 121.725 107.944 121.757C96.4837 121.789 87.1997 121.789 87.1997 121.713C87.1997 121.637 96.4877 121.581 107.956 121.549C119.424 121.517 128.696 121.537 128.696 121.593Z" fill="#EBEBEB"/>
<path d="M128.684 117.957C128.684 118.013 119.392 118.089 107.932 118.121C96.4718 118.153 87.1758 118.121 87.1758 118.077C87.1758 118.033 96.4678 117.945 107.932 117.913C119.396 117.881 128.684 117.897 128.684 117.957Z" fill="#EBEBEB"/>
<path d="M128.676 114.321C128.676 114.377 119.384 114.449 107.92 114.485C96.4561 114.521 87.1641 114.485 87.1641 114.437C87.1641 114.389 96.4561 114.309 107.92 114.277C119.384 114.245 128.676 114.261 128.676 114.321Z" fill="#EBEBEB"/>
<path d="M128.664 110.681C128.664 110.741 119.372 110.813 107.912 110.845C96.4518 110.877 87.1558 110.845 87.1558 110.801C87.1558 110.757 96.4438 110.673 107.912 110.637C119.38 110.601 128.664 110.625 128.664 110.681Z" fill="#EBEBEB"/>
<path d="M128.656 107.045C128.656 107.105 119.36 107.177 107.9 107.209C96.44 107.241 87.144 107.209 87.144 107.165C87.144 107.121 96.436 107.033 107.9 107.001C119.364 106.969 128.656 106.989 128.656 107.045Z" fill="#EBEBEB"/>
<path d="M128.644 103.409C128.644 103.465 119.352 103.541 107.892 103.573C96.4317 103.605 87.1357 103.573 87.1357 103.529C87.1357 103.485 96.4237 103.397 107.888 103.365C119.352 103.333 128.644 103.353 128.644 103.409Z" fill="#EBEBEB"/>
<path d="M92.9867 123.073L90.0107 123.082L90.0276 128.75L93.0035 128.741L92.9867 123.073Z" fill="#FFC13E"/>
<path d="M114.581 123.025L111.605 123.033L111.621 128.701L114.597 128.693L114.581 123.025Z" fill="#FFC13E"/>
<path d="M98.8105 118.884L95.8345 118.893L95.8637 128.729L98.8396 128.72L98.8105 118.884Z" fill="#FFC13E"/>
<path d="M109.691 116.315L106.715 116.323L106.749 128.719L109.725 128.711L109.691 116.315Z" fill="#FFC13E"/>
<path d="M104.286 108.798L101.31 108.806L101.365 128.73L104.341 128.722L104.286 108.798Z" fill="#FFC13E"/>
<path d="M120.32 112.441L117.344 112.449L117.389 128.689L120.365 128.681L120.32 112.441Z" fill="#FFC13E"/>
<path d="M123.924 128.657C123.924 128.717 115.756 128.785 105.684 128.813C95.6119 128.841 87.4399 128.813 87.4399 128.765C87.4399 128.717 95.6039 128.637 105.684 128.605C115.764 128.573 123.924 128.589 123.924 128.657Z" fill="#263238"/>
<path d="M104.848 102.017L103.924 103.973L102.816 102.021L102.732 82.6175L104.764 82.6135L104.848 102.017Z" fill="#263238"/>
<path d="M104 82.6535C104 82.6535 103.124 80.8975 102.156 80.9015C101.188 80.9055 99.736 82.6655 99.736 82.6655C99.736 82.6655 97.504 81.5015 96.728 81.7935C95.952 82.0855 94.796 84.0455 94.796 84.0455C94.1809 84.2418 93.6035 84.5406 93.088 84.9295C92.572 85.4175 92.48 86.9815 92.48 86.9815C92.48 86.9815 91.124 87.1775 91.124 87.9615C91.124 88.7455 91.124 91.9615 91.816 92.7415C92.508 93.5215 96.288 96.4375 97.596 96.3415C98.904 96.2455 98.896 94.3855 98.604 93.9975C98.604 93.9975 100.16 95.1655 100.932 94.0895C101.704 93.0135 101.312 91.4535 101.312 91.4535C101.312 91.4535 101.908 93.3095 103.112 92.4855C104.508 91.5335 103.312 89.5455 103.312 89.5455C103.312 89.5455 104.316 91.1455 104.912 90.3695C105.508 89.5935 105.312 88.3175 104.912 87.4415C104.512 86.5655 104 82.6535 104 82.6535Z" fill="#AA6550"/>
<path d="M97.436 93.0935C97.2088 92.9259 97.0056 92.7281 96.832 92.5055C95.9336 91.4891 95.1638 90.366 94.54 89.1615C94.3942 88.9193 94.2824 88.6582 94.208 88.3855C94.264 88.3575 94.864 89.4895 95.756 90.7855C96.648 92.0815 97.48 93.0495 97.436 93.0935Z" fill="#754034"/>
<path d="M101.316 91.2935C100.556 90.4358 99.8497 89.5328 99.1997 88.5895C98.4901 87.683 97.8356 86.7346 97.2397 85.7495C98.0027 86.6115 98.7133 87.5184 99.3677 88.4655C100.072 89.3688 100.723 90.3131 101.316 91.2935Z" fill="#754034"/>
<path d="M103.444 89.6295C103.241 89.3705 103.066 89.0902 102.924 88.7935L101.756 86.7255L100.576 84.6615C100.396 84.3857 100.244 84.0921 100.124 83.7855C100.348 84.0287 100.542 84.2971 100.704 84.5855C101.036 85.0935 101.476 85.8135 101.936 86.6215C102.396 87.4295 102.784 88.1775 103.052 88.7215C103.215 89.0093 103.346 89.3137 103.444 89.6295Z" fill="#754034"/>
<path d="M101.108 91.2575C101.108 91.2575 101.144 91.2855 101.192 91.3535C101.265 91.4513 101.325 91.5591 101.368 91.6735C101.509 92.0404 101.546 92.4389 101.475 92.8255C101.405 93.2121 101.229 93.5718 100.968 93.8655C100.713 94.1536 100.364 94.3432 99.9839 94.4015C99.5592 94.4393 99.1327 94.3532 98.7559 94.1535C98.3481 93.9518 97.9849 93.6702 97.6879 93.3255L97.8319 93.1855C98.2798 93.5558 98.6013 94.0562 98.7519 94.6175C98.8117 94.9055 98.791 95.2045 98.6919 95.4815C98.5923 95.7583 98.3944 95.9889 98.1359 96.1295C97.6436 96.3345 97.0938 96.3544 96.5879 96.1855C95.7503 95.969 94.9569 95.6076 94.2439 95.1175C93.7647 94.7901 93.3269 94.406 92.9399 93.9735C92.8079 93.8175 92.7079 93.6935 92.6439 93.6055C92.5799 93.5175 92.5519 93.4695 92.5599 93.4655C93.0865 94.0428 93.6785 94.5569 94.3239 94.9975C95.0321 95.4581 95.8121 95.7974 96.6319 96.0015C97.0927 96.1509 97.5914 96.1324 98.0399 95.9495C98.2512 95.8163 98.4144 95.6192 98.5058 95.3868C98.5972 95.1544 98.6119 94.8989 98.5479 94.6575C98.4043 94.1402 98.1072 93.6786 97.6959 93.3335L97.8399 93.1935C98.4159 93.8495 99.2279 94.2975 99.9599 94.2215C100.303 94.1776 100.619 94.0132 100.852 93.7575C101.059 93.5364 101.214 93.2711 101.304 92.9815C101.437 92.5638 101.437 92.1151 101.304 91.6975C101.2 91.3895 101.092 91.2695 101.108 91.2575Z" fill="#754034"/>
<path d="M103.036 88.8455C103.242 89.0796 103.401 89.3512 103.504 89.6455C103.638 89.9634 103.732 90.2966 103.784 90.6375C103.822 91.066 103.759 91.4975 103.6 91.8975C103.535 92.1124 103.415 92.3068 103.253 92.4618C103.09 92.6167 102.89 92.7268 102.672 92.7815C102.491 92.7998 102.308 92.7729 102.14 92.7031C101.971 92.6333 101.823 92.5227 101.708 92.3815C101.562 92.1989 101.445 91.9952 101.36 91.7775C101.3 91.6295 101.276 91.5415 101.288 91.5375C101.3 91.5335 101.348 91.6055 101.432 91.7415C101.545 91.9357 101.679 92.1169 101.832 92.2815C101.933 92.398 102.061 92.4889 102.204 92.5466C102.347 92.6044 102.502 92.6273 102.656 92.6135C102.838 92.5584 103.003 92.4591 103.138 92.3243C103.272 92.1896 103.37 92.0237 103.424 91.8415C103.569 91.4699 103.631 91.0715 103.608 90.6735C103.568 90.3476 103.493 90.0271 103.384 89.7175C103.2 89.1735 103.004 88.8615 103.036 88.8455Z" fill="#754034"/>
<path d="M100.428 95.9455C99.9052 96.3714 99.3394 96.7414 98.7398 97.0495C98.1768 97.4189 97.5761 97.7273 96.9478 97.9695C97.4727 97.548 98.0382 97.1795 98.6358 96.8695C99.2003 96.5017 99.8007 96.1921 100.428 95.9455Z" fill="#754034"/>
<path d="M158.352 129.873L144.54 133.893L139.492 130.446C139.492 130.446 134.896 129.038 133.4 128.846C131.904 128.654 129.44 128.761 127.8 128.765C126.934 128.812 126.075 128.587 125.344 128.121C125.344 128.121 123.924 128.069 124.304 129.889C124.776 132.145 130.144 132.129 130.144 132.129L123.028 132.153H118.888L122.488 134.689C123.401 135.328 124.486 135.674 125.6 135.681H127.048C126.676 137.681 127.4 138.77 128.724 139.346C127.68 140.33 128.204 142.169 130.252 142.093C131.244 142.057 148.572 142.093 148.572 142.093L163.484 139.973L158.352 129.873Z" fill="#AA6550"/>
<path d="M130.276 135.569C129.51 135.715 128.731 135.771 127.952 135.737C127.176 135.771 126.399 135.758 125.624 135.697C126.39 135.552 127.169 135.496 127.948 135.529C128.724 135.493 129.502 135.507 130.276 135.569Z" fill="#754034"/>
<path d="M134.44 131.281C133.52 131.521 132.585 131.692 131.64 131.793C130.716 131.966 129.78 132.069 128.84 132.101C129.76 131.864 130.695 131.693 131.64 131.589C132.564 131.419 133.5 131.316 134.44 131.281Z" fill="#754034"/>
<path d="M136.944 76.0375C137.052 75.9855 136.892 75.4135 136.544 74.4375C136.196 73.4615 135.612 72.0375 134.98 70.2775C134.224 68.2493 133.637 66.1622 133.224 64.0375C132.731 61.4764 132.723 58.8456 133.2 56.2815C133.7 53.5415 134.588 50.9655 135.312 48.5695C136 46.4281 136.498 44.2303 136.8 42.0015C137.008 40.4821 136.993 38.9406 136.756 37.4255C136.564 36.3615 136.316 35.8255 136.212 35.8255C135.948 35.8735 136.38 38.1895 135.62 41.8255C135.154 43.9497 134.549 46.0409 133.808 48.0855C133.008 50.4335 132.056 53.0455 131.516 55.9775C131.381 56.7027 131.284 57.4343 131.224 58.1695C131.2 58.5335 131.172 58.8935 131.172 59.2575C131.172 59.6215 131.148 59.9735 131.172 60.3255C131.215 61.6716 131.383 63.0108 131.676 64.3255C132.173 66.5297 132.902 68.675 133.852 70.7255C134.471 72.0956 135.164 73.4309 135.928 74.7255C136.484 75.6175 136.844 76.0895 136.944 76.0375Z" fill="#263238"/>
<path d="M164.3 42.7935C164.183 40.9601 163.696 39.1692 162.871 37.5281C162.045 35.887 160.896 34.4293 159.494 33.2425C158.092 32.0556 156.464 31.1639 154.709 30.6208C152.954 30.0776 151.108 29.8942 149.28 30.0815C141.916 30.7735 136.48 37.3255 136.732 44.6375C136.952 51.0375 137.312 57.4935 137.772 59.7735C139.152 66.6455 143.732 68.5495 145.536 69.0415C146.169 69.1424 146.812 69.1772 147.452 69.1455C147.458 69.1449 147.464 69.1456 147.47 69.1476C147.476 69.1496 147.481 69.1527 147.486 69.1568C147.49 69.161 147.494 69.166 147.496 69.1716C147.499 69.1773 147.5 69.1833 147.5 69.1895L147.436 77.3895C147.708 82.7055 151.5 86.7695 156.872 86.5295C162.244 86.2895 165.6 81.5295 165.444 76.1895L164.3 42.7935Z" fill="#AA6550"/>
<path d="M140.228 48.2135C140.236 48.5052 140.36 48.7819 140.571 48.9834C140.782 49.1849 141.064 49.2948 141.356 49.2895C141.5 49.2953 141.643 49.2726 141.777 49.2224C141.912 49.1723 142.035 49.0958 142.14 48.9975C142.244 48.8991 142.328 48.7809 142.387 48.6497C142.445 48.5186 142.477 48.377 142.48 48.2335C142.47 47.9424 142.346 47.6669 142.135 47.4659C141.924 47.2648 141.643 47.1541 141.352 47.1575C141.209 47.1521 141.066 47.1753 140.931 47.2256C140.797 47.276 140.674 47.3525 140.569 47.4507C140.465 47.5489 140.381 47.6669 140.322 47.7978C140.264 47.9288 140.232 48.07 140.228 48.2135Z" fill="#263238"/>
<path d="M138.692 46.1895C138.836 46.3295 139.664 45.6655 140.876 45.6135C142.088 45.5615 142.996 46.1255 143.124 45.9695C143.184 45.9015 143.032 45.6455 142.636 45.3855C142.095 45.0495 141.464 44.8875 140.828 44.9215C140.197 44.9466 139.591 45.1706 139.096 45.5615C138.736 45.8695 138.62 46.1415 138.692 46.1895Z" fill="#263238"/>
<path d="M151.808 48.1015C151.819 48.3925 151.942 48.668 152.153 48.8691C152.364 49.0701 152.645 49.1808 152.936 49.1775C153.079 49.1823 153.222 49.1587 153.356 49.1082C153.49 49.0577 153.613 48.9811 153.718 48.883C153.822 48.7849 153.906 48.6671 153.965 48.5364C154.024 48.4057 154.056 48.2647 154.06 48.1215C154.051 47.83 153.927 47.554 153.716 47.3527C153.505 47.1515 153.224 47.0411 152.932 47.0455C152.789 47.0396 152.645 47.0624 152.511 47.1125C152.376 47.1626 152.253 47.2391 152.148 47.3374C152.044 47.4358 151.96 47.554 151.901 47.6852C151.843 47.8164 151.811 47.9579 151.808 48.1015Z" fill="#263238"/>
<path d="M150.604 45.8935C150.748 46.0295 151.58 45.3695 152.788 45.3175C153.996 45.2655 154.912 45.8255 155.036 45.6735C155.1 45.6055 154.948 45.3495 154.548 45.0895C154.009 44.7521 153.379 44.59 152.744 44.6255C152.114 44.6497 151.508 44.8723 151.012 45.2615C150.648 45.5615 150.532 45.8295 150.604 45.8935Z" fill="#263238"/>
<path d="M146.556 54.9895C146.556 54.9215 145.8 54.8255 144.576 54.7255C144.264 54.7255 143.968 54.6615 143.908 54.4535C143.871 54.1378 143.931 53.8183 144.08 53.5375C144.344 52.7855 144.616 51.9935 144.904 51.1655C146.044 47.7935 146.856 45.0215 146.72 44.9775C146.584 44.9335 145.548 47.6255 144.4 50.9895C144.124 51.8215 143.864 52.6175 143.6 53.3895C143.424 53.7644 143.385 54.1886 143.488 54.5895C143.537 54.6965 143.61 54.7908 143.702 54.8651C143.793 54.9393 143.901 54.9914 144.016 55.0175C144.189 55.0533 144.367 55.0694 144.544 55.0655C145.792 55.0735 146.556 55.0455 146.556 54.9895Z" fill="#263238"/>
<path d="M147.5 69.1415C147.5 69.1415 152.192 69.3135 157.9 65.5695C157.9 65.5695 156.3 71.7695 147.48 71.3535L147.5 69.1415Z" fill="#754034"/>
<path d="M147.2 57.8455C147.42 57.5475 147.712 57.3097 148.048 57.1539C148.384 56.998 148.754 56.9291 149.124 56.9535C149.391 56.9649 149.654 57.0299 149.895 57.1447C150.137 57.2594 150.354 57.4216 150.532 57.6215C150.701 57.8149 150.806 58.0558 150.834 58.3114C150.861 58.567 150.809 58.8248 150.684 59.0495C150.496 59.2732 150.246 59.4369 149.966 59.5201C149.686 59.6033 149.387 59.6024 149.108 59.5175C148.522 59.3464 147.978 59.0579 147.508 58.6695C147.367 58.5822 147.244 58.468 147.148 58.3335C147.103 58.2673 147.079 58.1893 147.079 58.1095C147.079 58.0296 147.103 57.9516 147.148 57.8855" fill="#754034"/>
<path d="M150.152 55.6495C149.956 55.6495 150.004 56.9455 148.916 57.9215C147.828 58.8975 146.42 58.8135 146.416 58.9975C146.416 59.0775 146.74 59.2335 147.332 59.2255C148.102 59.2009 148.84 58.9097 149.42 58.4015C149.972 57.9142 150.314 57.2316 150.372 56.4975C150.4 55.9535 150.244 55.6375 150.152 55.6495Z" fill="#263238"/>
<path d="M149.976 43.8175C150.108 44.1375 151.312 43.9295 152.74 44.0375C154.168 44.1455 155.332 44.4735 155.508 44.1735C155.588 44.0295 155.376 43.7335 154.9 43.4375C154.263 43.079 153.554 42.8683 152.825 42.8212C152.096 42.7742 151.365 42.8918 150.688 43.1655C150.172 43.3895 149.92 43.6655 149.976 43.8175Z" fill="#263238"/>
<path d="M139.04 43.7335C139.264 43.9975 140.088 43.6775 141.092 43.6175C142.096 43.5575 142.952 43.7175 143.136 43.4255C143.216 43.2815 143.072 43.0255 142.688 42.7735C142.175 42.487 141.589 42.3577 141.003 42.4018C140.417 42.4459 139.857 42.6614 139.392 43.0215C139.048 43.3175 138.94 43.6055 139.04 43.7335Z" fill="#263238"/>
<path d="M135.512 61.5255C134.34 66.7615 136.48 72.1695 139.16 76.8135C140.172 78.5655 141.276 80.2935 141.88 82.2295C142.484 84.1655 142.512 86.3895 141.444 88.1095C141.818 88.2357 142.225 88.2245 142.591 88.0779C142.958 87.9313 143.26 87.6589 143.444 87.3095C143.544 88.3815 143.64 89.4495 143.736 90.5095C145.04 91.0695 146.592 90.1335 147.22 88.8535C147.848 87.5735 147.796 86.0815 147.732 84.6575C147.54 80.4775 147.692 75.5335 147.5 71.3535L140.048 69.8415L135.512 61.5255Z" fill="#263238"/>
<path d="M155.6 38.7935C158.424 44.2335 158.764 50.6215 158.56 56.7615C158.356 62.9015 157.676 69.0935 158.688 75.1615C159.088 77.5415 159.748 79.9615 159.384 82.3375C159.168 83.7415 158.604 85.0695 158.32 86.4615C158.036 87.8535 158.08 89.4175 158.948 90.5375C159.816 91.6575 161.4 92.0895 162.796 91.8215C164.191 91.4908 165.449 90.7346 166.396 89.6575C168.54 87.3975 169.66 84.3095 170.076 81.2135C170.492 78.1175 170.26 74.9735 170.028 71.8575C169.425 63.7508 168.82 55.6455 168.212 47.5415C167.952 44.0375 167.672 40.4495 166.252 37.2375C164.706 33.8924 162.161 31.1086 158.968 29.2695C155.216 27.0335 150.356 26.0695 146.5 28.1215C145.212 28.8055 143.976 30.1215 144.284 31.5455C144.528 32.6775 145.628 33.3775 146.632 33.9455L156.54 39.5855" fill="#263238"/>
<path d="M160.708 82.5655C160.816 82.5095 160.608 81.8815 160.184 80.7775C159.76 79.6735 159.124 78.1015 158.468 76.1215C157.692 73.8315 157.18 71.46 156.944 69.0535C156.688 66.3655 157.032 63.3775 157.584 60.2535C158.136 57.1295 158.784 54.0615 158.956 51.1895C159.159 48.6347 158.922 46.0641 158.256 43.5895C157.803 41.9092 157.003 40.3424 155.908 38.9895C155.7 38.7615 155.508 38.5655 155.356 38.3975C155.213 38.2553 155.063 38.1217 154.904 37.9975C154.652 37.8055 154.504 37.7255 154.46 37.7655C154.416 37.8055 154.492 37.9695 154.656 38.2295L154.972 38.7055C155.084 38.8975 155.22 39.1055 155.372 39.3575C156.189 40.7505 156.773 42.2679 157.1 43.8495C157.563 46.2097 157.667 48.6262 157.408 51.0175C157.156 53.7295 156.484 56.7095 155.92 59.9135C155.356 63.1175 155.036 66.3135 155.396 69.1855C155.713 71.7051 156.369 74.1703 157.348 76.5135C157.99 78.0836 158.742 79.6061 159.6 81.0695C160.204 82.0895 160.608 82.6175 160.708 82.5655Z" fill="#263238"/>
<path d="M170.548 41.9775C170.465 41.9357 170.378 41.9035 170.288 41.8815L169.536 41.6375C169.208 41.5375 168.804 41.4095 168.336 41.2375C167.868 41.0655 167.344 40.9095 166.768 40.6895C165.608 40.2895 164.244 39.7415 162.768 39.0895C161.292 38.4375 159.656 37.6815 157.996 36.8095C156.336 35.9375 154.796 35.0215 153.412 34.1575C152.028 33.2935 150.824 32.4615 149.812 31.7335C149.308 31.3815 148.868 31.0375 148.476 30.7455C148.084 30.4535 147.748 30.1975 147.48 29.9815L146.852 29.4975C146.78 29.4382 146.704 29.3847 146.624 29.3375C146.688 29.4047 146.756 29.4675 146.828 29.5255L147.44 30.0335C147.704 30.2575 148.028 30.5255 148.42 30.8335C148.812 31.1415 149.24 31.4855 149.744 31.8455C150.732 32.5815 151.94 33.4175 153.312 34.3015C154.684 35.1855 156.236 36.0895 157.9 36.9695C159.564 37.8495 161.192 38.6015 162.7 39.2455C164.208 39.8895 165.576 40.4055 166.74 40.8055C167.32 41.0135 167.852 41.1735 168.34 41.3255C168.828 41.4775 169.208 41.5975 169.54 41.6895L170.304 41.9015C170.384 41.9321 170.465 41.9575 170.548 41.9775Z" fill="#455A64"/>
<path d="M170.62 43.1935C170.53 43.1674 170.437 43.15 170.344 43.1415L169.544 43.0215L168.964 42.9415L168.284 42.8175C167.792 42.7255 167.232 42.6415 166.624 42.4895L165.664 42.2735C165.332 42.1975 164.988 42.0935 164.632 42.0015C163.916 41.8215 163.172 41.5735 162.38 41.3215C160.679 40.7405 159.014 40.0566 157.396 39.2735C155.786 38.4738 154.226 37.5775 152.724 36.5895C152.044 36.1175 151.388 35.6775 150.808 35.2215C150.516 34.9975 150.224 34.7895 149.96 34.5695L149.2 33.9295C148.708 33.5295 148.296 33.1295 147.924 32.8175L147.404 32.3495L147.004 31.9495L146.4 31.3895C146.333 31.3229 146.262 31.2601 146.188 31.2015C146.252 31.2708 146.323 31.3337 146.4 31.3895C146.536 31.5375 146.724 31.7295 146.96 31.9775L147.36 32.3775C147.512 32.5255 147.684 32.6815 147.868 32.8535C148.236 33.1935 148.644 33.5935 149.132 33.9895L149.888 34.6295C150.152 34.8495 150.44 35.0615 150.732 35.2895C151.312 35.7535 151.964 36.1975 152.648 36.6775C154.149 37.6827 155.714 38.5899 157.332 39.3935C158.956 40.1814 160.629 40.8641 162.34 41.4375C163.14 41.6855 163.884 41.9295 164.604 42.1055C164.964 42.1975 165.308 42.2975 165.64 42.3695L166.608 42.5775C167.22 42.7175 167.784 42.7975 168.276 42.8815C168.52 42.9175 168.748 42.9615 168.96 42.9895L169.544 43.0575L170.344 43.1415C170.435 43.1658 170.527 43.1832 170.62 43.1935Z" fill="white"/>
<path d="M165.976 85.9735C165.989 85.9388 165.997 85.9024 166 85.8655C166 85.7815 166.032 85.6735 166.052 85.5335C166.092 85.2455 166.16 84.8215 166.212 84.2655C166.378 82.7058 166.457 81.138 166.448 79.5695C166.448 77.5695 166.32 75.2175 166.068 72.6055C165.816 69.9935 165.464 67.1295 165.116 64.1215C164.4 58.1215 163.756 52.6695 163.284 48.7215C163.044 46.7575 162.848 45.1695 162.708 44.0575C162.64 43.5135 162.584 43.0895 162.544 42.7895L162.496 42.4615C162.493 42.4236 162.486 42.3861 162.476 42.3495C162.479 42.3874 162.486 42.4249 162.496 42.4615C162.496 42.5455 162.496 42.6535 162.528 42.7935C162.56 43.0935 162.604 43.5215 162.66 44.0655C162.784 45.1775 162.964 46.7695 163.18 48.7335C163.64 52.6855 164.268 58.1295 164.964 64.1415C165.316 67.1495 165.676 70.0095 165.932 72.6215C166.188 75.2335 166.332 77.5895 166.332 79.5695C166.352 81.1355 166.292 82.7016 166.152 84.2615C166.108 84.8135 166.052 85.2415 166.02 85.5295C166.02 85.6695 165.996 85.7775 165.988 85.8615C165.98 85.9455 165.976 85.9735 165.976 85.9735Z" fill="#455A64"/>
<path d="M161.688 67.8655C161.706 67.7746 161.716 67.6822 161.716 67.5895L161.764 66.7895C161.804 66.1055 161.848 65.1175 161.888 63.8935C161.968 61.4495 162.02 58.0655 161.96 54.3335C161.9 50.6015 161.732 47.2215 161.56 44.7815C161.476 43.5575 161.4 42.5735 161.34 41.8895C161.308 41.5615 161.284 41.3015 161.268 41.0895C161.264 40.9977 161.25 40.9065 161.228 40.8175C161.222 40.9094 161.222 41.0016 161.228 41.0935C161.228 41.2895 161.252 41.5495 161.272 41.8935C161.312 42.5895 161.368 43.5735 161.436 44.7815C161.568 47.2255 161.712 50.6015 161.776 54.3335C161.84 58.0655 161.804 61.4415 161.752 63.8855C161.724 65.0855 161.7 66.0815 161.684 66.7815C161.684 67.1135 161.684 67.3735 161.684 67.5815C161.678 67.6761 161.679 67.7711 161.688 67.8655Z" fill="#455A64"/>
<path d="M180.92 60.8855L184.264 54.9095C182.436 51.9238 181.65 48.4165 182.028 44.9363C182.406 41.4561 183.927 38.1995 186.353 35.6759C188.779 33.1523 191.973 31.5042 195.436 30.9895C198.899 30.4748 202.434 31.1226 205.49 32.8314C208.545 34.5402 210.947 37.2136 212.321 40.4334C213.695 43.6532 213.963 47.2376 213.083 50.6258C212.202 54.0139 210.224 57.0147 207.456 59.1584C204.689 61.3022 201.289 62.468 197.788 62.4735C194.272 62.4855 190.854 61.3179 188.08 59.1575L180.92 60.8855Z" fill="#FAFAFA"/>
<path d="M180.92 60.8855L188.072 59.1135L188.044 59.1975C188.039 59.193 188.035 59.1874 188.032 59.1812C188.029 59.175 188.028 59.1683 188.028 59.1615C188.028 59.1547 188.029 59.1479 188.032 59.1417C188.035 59.1355 188.039 59.13 188.044 59.1255C188.053 59.1189 188.064 59.1154 188.076 59.1154C188.087 59.1154 188.099 59.1189 188.108 59.1255C189.114 59.896 190.207 60.5471 191.364 61.0655C192.745 61.6704 194.205 62.0745 195.7 62.2655C196.527 62.3766 197.362 62.4127 198.196 62.3735C198.624 62.3455 199.06 62.3375 199.5 62.2895L200.832 62.0815C204.786 61.2591 208.278 58.9622 210.6 55.6575C211.891 53.831 212.777 51.7499 213.2 49.5535C213.634 47.2329 213.558 44.8455 212.976 42.5575C212.378 40.1673 211.221 37.9533 209.6 36.0975L208.956 35.3895C208.744 35.1535 208.492 34.9575 208.264 34.7415C208.038 34.522 207.8 34.3151 207.552 34.1215L206.8 33.5575C206.547 33.3646 206.28 33.192 206 33.0415L205.2 32.5575L204.368 32.1575C204.095 32.0147 203.813 31.8904 203.524 31.7855C201.288 30.9021 198.881 30.5383 196.484 30.7215C194.215 30.887 192.011 31.5551 190.032 32.6775C186.475 34.6981 183.827 38.0047 182.632 41.9175C182.148 43.5826 181.92 45.3117 181.956 47.0455C182.038 49.8184 182.842 52.5221 184.288 54.8895C184.292 54.8969 184.294 54.9051 184.294 54.9135C184.294 54.9218 184.292 54.9301 184.288 54.9375L180.9 60.8895C181.072 60.5815 182.1 58.7175 184.2 54.8895V54.9415C182.723 52.5663 181.895 49.8449 181.8 47.0495C181.756 45.3004 181.979 43.5548 182.464 41.8735C183.667 37.9044 186.351 34.5502 189.96 32.5055C191.96 31.3614 194.19 30.6781 196.488 30.5055C198.916 30.3173 201.355 30.6839 203.62 31.5775C203.913 31.6837 204.199 31.8093 204.476 31.9535L205.32 32.3535L206.12 32.8455C206.398 33.0012 206.665 33.1749 206.92 33.3655L207.68 33.9375C207.944 34.1215 208.16 34.3375 208.404 34.5655C208.648 34.7935 208.888 34.9855 209.104 35.2255L209.752 35.9415C211.396 37.8202 212.57 40.0633 213.176 42.4855C213.765 44.8025 213.84 47.2203 213.396 49.5695C212.969 51.7928 212.07 53.8988 210.76 55.7455C208.41 59.0879 204.871 61.405 200.868 62.2215L199.524 62.4295C199.08 62.4735 198.636 62.4815 198.204 62.5095C197.362 62.5468 196.518 62.5067 195.684 62.3895C194.177 62.1898 192.707 61.7735 191.32 61.1535C190.156 60.6264 189.058 59.9646 188.048 59.1815L188.12 59.1055C188.129 59.1152 188.134 59.1281 188.134 59.1415C188.134 59.1549 188.129 59.1678 188.12 59.1775H188.1L180.92 60.8855Z" fill="#263238"/>
<path d="M204.4 42.1895C204.252 42.3736 204.089 42.5449 203.912 42.7015L202.52 44.0455C201.32 45.1695 199.692 46.7135 197.868 48.4095L197.592 48.6695L197.524 48.7335L197.448 48.6695L195.216 46.7535H195.352L192.308 49.5095L191.428 50.2855C191.326 50.383 191.215 50.4701 191.096 50.5455C191.18 50.4323 191.275 50.3278 191.38 50.2335C191.604 50.0215 191.884 49.7495 192.224 49.4335L195.212 46.6335L195.28 46.5735L195.348 46.6295L197.588 48.5375H197.444L197.72 48.2815C199.544 46.5855 201.204 45.0815 202.416 43.9615L203.852 42.6735C204.02 42.4969 204.204 42.335 204.4 42.1895Z" fill="#263238"/>
<path d="M204.624 45.8695C204.55 45.5168 204.509 45.1578 204.504 44.7975C204.456 44.1295 204.404 43.1975 204.356 42.1735L204.472 42.2815H204.284C203.22 42.3255 202.252 42.3575 201.552 42.3655C201.175 42.3949 200.795 42.3855 200.42 42.3375C200.791 42.2577 201.169 42.2148 201.548 42.2095C202.244 42.1615 203.208 42.1055 204.276 42.0615H204.46H204.568V42.1695C204.608 43.2015 204.636 44.1255 204.644 44.7935C204.671 45.152 204.664 45.5122 204.624 45.8695Z" fill="#263238"/>
<circle cx="150" cy="185.589" r="15" fill="#FFC13E"/>
<path d="M146.786 189.713C148.54 189.717 149.588 188.332 149.588 185.946C149.588 183.574 148.533 182.203 146.786 182.203C145.039 182.203 143.987 183.57 143.984 185.946C143.984 188.329 145.031 189.713 146.786 189.713ZM146.786 188.602C145.88 188.602 145.312 187.693 145.316 185.946C145.319 184.213 145.884 183.3 146.786 183.3C147.691 183.3 148.256 184.213 148.259 185.946C148.259 187.693 147.695 188.602 146.786 188.602ZM153.377 189.674C154.933 189.674 156.066 188.783 156.062 187.554C156.066 186.645 155.498 185.992 154.478 185.846V185.789C155.267 185.619 155.796 185.033 155.792 184.216C155.796 183.108 154.851 182.203 153.399 182.203C151.985 182.203 150.892 183.044 150.863 184.262H152.131C152.152 183.652 152.721 183.272 153.392 183.272C154.07 183.272 154.521 183.684 154.517 184.294C154.521 184.93 153.995 185.353 153.243 185.353H152.6V186.368H153.243C154.162 186.368 154.709 186.83 154.706 187.487C154.709 188.13 154.152 188.57 153.374 188.57C152.642 188.57 152.078 188.19 152.046 187.597H150.711C150.746 188.826 151.843 189.674 153.377 189.674Z" fill="#14212A"/>
</svg>
