<svg width="106" height="106" viewBox="0 0 106 106" fill="none" xmlns="http://www.w3.org/2000/svg">
<g filter="url(#filter0_d_765_51)">
<rect x="17" y="16.604" width="72" height="72" rx="36" stroke="#FFC13E" stroke-width="3"/>
<path d="M66.2055 59.4431C66.1952 59.4461 66.1849 59.4494 66.1747 59.4529L55.4833 63.1739C55.2734 62.1583 54.6699 61.1263 53.6051 60.6572L46.382 57.4629C44.6216 56.6856 43.1045 56.9897 41.8523 57.3897L37.3749 58.8238L37.1668 58.1196C37.0662 57.7798 36.8334 57.4935 36.5195 57.3236C36.2056 57.1537 35.8363 57.1141 35.4929 57.2135L31.9713 58.233C31.6281 58.3327 31.3389 58.5629 31.1668 58.8732C30.9947 59.1834 30.9539 59.5485 31.0532 59.8884L34.824 72.6423C34.9243 72.9822 35.1568 73.2689 35.4706 73.4393C35.7844 73.6096 36.1537 73.6497 36.4974 73.5508L40.0246 72.5305C40.3669 72.4301 40.655 72.1997 40.826 71.8897C40.997 71.5797 41.0369 71.2154 40.9371 70.8763L40.6586 69.9346L42.0164 69.5823L48.2276 71.8299C49.1598 72.1667 50.1299 72.4727 51.1214 72.4727C51.797 72.4772 52.4638 72.3203 53.0651 72.0154L66.8903 65.0254C66.8948 65.0231 66.8995 65.0208 66.904 65.0183C67.0277 64.9517 67.1572 64.8863 67.2945 64.8169C68.3462 64.2856 69.9356 63.4826 69.2982 61.3285C68.8804 59.9165 67.4931 59.0713 66.2055 59.4431ZM39.7724 71.3199C39.754 71.3539 39.7229 71.3794 39.6856 71.3909L36.1622 72.4102C36.1243 72.4203 36.0839 72.4156 36.0495 72.397C36.0151 72.3783 35.9893 72.3472 35.9776 72.3102L32.2068 59.5563C32.1962 59.5187 32.2011 59.4783 32.2203 59.4442C32.2385 59.4105 32.2694 59.3853 32.3062 59.3741L32.3075 59.3737L35.8322 58.3534C35.845 58.3497 35.8584 58.3478 35.8718 58.3478C35.8967 58.348 35.9212 58.3543 35.943 58.3661C35.9599 58.3751 35.9748 58.3873 35.9869 58.402C35.999 58.4167 36.008 58.4337 36.0134 58.4518L39.7852 71.2116C39.7905 71.2296 39.7921 71.2484 39.7899 71.267C39.7877 71.2856 39.7818 71.3036 39.7724 71.3199ZM66.7492 63.7586C66.6134 63.8273 66.4732 63.8982 66.3377 63.9712L52.5198 70.957C51.3946 71.5241 50.288 71.3091 48.6405 70.7138L42.2529 68.4021C42.1379 68.3604 42.0128 68.3545 41.8943 68.385L40.3216 68.7932L37.7117 59.9641L42.2214 58.5198C43.7081 58.0447 44.7718 58.0529 45.8918 58.5474L53.1156 61.7413C53.8505 62.0654 54.3653 62.9876 54.3674 63.9839C54.3674 63.9865 54.3679 63.9891 54.3679 63.9916C54.3679 63.9942 54.3674 63.9973 54.3674 64.0001C54.3673 64.2852 54.3153 64.568 54.2139 64.8349C53.7394 66.0743 52.5124 66.1188 51.6051 65.7811L46.743 63.9764C46.6691 63.949 46.5906 63.9362 46.5117 63.9388C46.4329 63.9415 46.3554 63.9594 46.2836 63.9917C46.2118 64.024 46.1472 64.0699 46.0933 64.1269C46.0395 64.1839 45.9975 64.2508 45.9698 64.3239C45.9421 64.3969 45.9292 64.4747 45.9318 64.5526C45.9345 64.6306 45.9526 64.7073 45.9853 64.7783C46.0179 64.8494 46.0643 64.9134 46.1219 64.9666C46.1795 65.0199 46.2472 65.0614 46.321 65.0889L51.1828 66.894C51.6234 67.0626 52.0911 67.1511 52.5634 67.1552C53.8169 67.1552 54.8725 66.4709 55.337 65.2577C55.4411 64.9857 55.5104 64.7019 55.5433 64.4128L66.5561 60.5797C67.1945 60.4051 67.9197 60.8977 68.1459 61.6624C68.488 62.8181 67.9022 63.176 66.7492 63.7586ZM53.5819 42.9699C52.0264 43.2034 50.6295 43.9392 49.4954 45.1334C48.2346 46.4609 47.3692 48.3111 47.0588 50.343L46.7299 52.4927C46.65 52.9713 46.6789 53.4614 46.8146 53.9274C46.9502 54.3935 47.1891 54.8237 47.514 55.187C49.0754 56.9829 54.7683 57.1232 56.4844 57.1232H56.4892C57.7499 57.1232 64.1193 57.0288 65.7206 55.1875C66.0456 54.8244 66.2847 54.3941 66.4204 53.928C66.5561 53.4619 66.5851 52.9717 66.5052 52.4931L66.1764 50.3432C65.866 48.3111 65.0005 46.4609 63.7397 45.1334C62.6057 43.9396 61.2088 43.2033 59.6533 42.9699C59.9238 42.7477 60.1723 42.5006 60.3957 42.232C61.4709 40.9405 62.0392 39.1201 62.0392 36.9681C62.0392 35.5455 61.468 34.1811 60.4513 33.1751C59.4345 32.1691 58.0555 31.604 56.6176 31.604C55.1797 31.604 53.8007 32.1691 52.7839 33.1751C51.7672 34.1811 51.196 35.5455 51.196 36.9681C51.196 39.1203 51.7643 40.9405 52.8395 42.232C53.0627 42.5007 53.3112 42.7479 53.5815 42.9702L53.5819 42.9699ZM64.9885 50.5212L65.3175 52.6716C65.371 52.9806 65.3533 53.2977 65.2656 53.599C65.1778 53.9004 65.0224 54.1782 64.8109 54.4117L64.8102 54.4125C64.1532 55.1686 61.0838 55.9344 56.4887 55.9351H56.4828C52.5175 55.9351 49.2039 55.309 48.4236 54.4116C48.212 54.1781 48.0564 53.9002 47.9686 53.5989C47.8808 53.2975 47.863 52.9804 47.9166 52.6712L48.246 50.5212C48.7358 47.3139 50.9148 44.0777 54.6781 44.0777H58.5564C62.3196 44.0776 64.4985 47.3138 64.9885 50.5212ZM56.6172 32.7926C57.7361 32.7938 58.8089 33.2341 59.6001 34.0169C60.3914 34.7997 60.8365 35.861 60.8379 36.9681C60.8379 41.0361 58.65 42.8889 56.6172 42.8889C54.5845 42.8889 52.3966 41.0365 52.3966 36.9681C52.398 35.8611 52.8431 34.7997 53.6343 34.017C54.4255 33.2342 55.4982 32.7939 56.6172 32.7926ZM35.099 60.2332C35.1191 60.3092 35.1238 60.3884 35.1128 60.4663C35.1017 60.5441 35.0752 60.619 35.0347 60.6866C34.9942 60.7542 34.9406 60.8131 34.8769 60.8601C34.8132 60.907 34.7408 60.941 34.6637 60.9601C34.5867 60.9792 34.5065 60.9829 34.428 60.9711C34.3495 60.9593 34.2741 60.9323 34.2062 60.8914C34.1384 60.8506 34.0793 60.7969 34.0326 60.7334C33.9858 60.6699 33.9523 60.5978 33.9339 60.5214L33.9315 60.5117C33.9124 60.436 33.9085 60.3573 33.9201 60.2801C33.9317 60.203 33.9586 60.1288 33.9992 60.0619C34.0398 59.995 34.0933 59.9367 34.1566 59.8903C34.22 59.8438 34.292 59.8102 34.3685 59.7913C34.445 59.7723 34.5245 59.7685 34.6025 59.78C34.6805 59.7915 34.7554 59.8181 34.8231 59.8582C34.8907 59.8984 34.9496 59.9513 34.9966 60.014C35.0435 60.0767 35.0775 60.1479 35.0966 60.2236L35.099 60.2332ZM64.9477 38.235V43.3749C64.9496 43.5312 65.0137 43.6805 65.1261 43.7904C65.2385 43.9003 65.3901 43.9619 65.5482 43.9619C65.7062 43.9619 65.8578 43.9003 65.9703 43.7904C66.0827 43.6805 66.1468 43.5312 66.1487 43.3749V38.235C66.5296 38.1104 66.8612 37.8701 67.0962 37.5484C67.3312 37.2266 67.4577 36.8398 67.4577 36.4428C67.4577 36.0458 67.3312 35.6589 67.0962 35.3371C66.8612 35.0154 66.5296 34.7751 66.1487 34.6506V33.6229C66.1468 33.4665 66.0827 33.3172 65.9703 33.2073C65.8578 33.0974 65.7062 33.0358 65.5482 33.0358C65.3901 33.0358 65.2385 33.0974 65.1261 33.2073C65.0137 33.3172 64.9496 33.4665 64.9477 33.6229V34.6507C64.5667 34.7753 64.2351 35.0156 64.0001 35.3373C63.7651 35.6591 63.6386 36.046 63.6386 36.4429C63.6386 36.8399 63.7651 37.2268 64.0001 37.5486C64.2351 37.8703 64.5667 38.1106 64.9477 38.2351V38.235ZM65.5481 35.7425C65.6881 35.7425 65.825 35.7836 65.9414 35.8605C66.0578 35.9375 66.1485 36.0468 66.2021 36.1748C66.2557 36.3027 66.2697 36.4435 66.2424 36.5794C66.2151 36.7152 66.1477 36.84 66.0487 36.9379C65.9497 37.0359 65.8236 37.1026 65.6863 37.1296C65.549 37.1566 65.4067 37.1428 65.2774 37.0898C65.148 37.0368 65.0375 36.947 64.9597 36.8319C64.8819 36.7167 64.8404 36.5813 64.8404 36.4428C64.8407 36.2572 64.9153 36.0793 65.048 35.948C65.1807 35.8168 65.3605 35.743 65.5481 35.7427V35.7425ZM39.6519 47.3603C40.1095 47.3609 40.5482 47.541 40.8718 47.8611C41.1954 48.1813 41.3774 48.6153 41.3779 49.0681C41.3779 49.2257 41.4411 49.3768 41.5538 49.4882C41.6664 49.5996 41.8191 49.6622 41.9784 49.6622C42.1377 49.6622 42.2904 49.5996 42.403 49.4882C42.5157 49.3768 42.5789 49.2257 42.5789 49.0681C42.5794 48.6153 42.7614 48.1813 43.085 47.8611C43.4086 47.541 43.8473 47.3609 44.3049 47.3603C44.3844 47.3613 44.4632 47.3466 44.5369 47.3172C44.6106 47.2877 44.6777 47.2441 44.7342 47.1889C44.7907 47.1336 44.8356 47.0678 44.8662 46.9952C44.8968 46.9227 44.9126 46.8449 44.9126 46.7662C44.9126 46.6876 44.8968 46.6098 44.8662 46.5372C44.8356 46.4647 44.7907 46.3989 44.7342 46.3436C44.6777 46.2883 44.6106 46.2447 44.5369 46.2153C44.4632 46.1858 44.3844 46.1712 44.3049 46.1721C43.8473 46.1716 43.4086 45.9915 43.085 45.6714C42.7614 45.3513 42.5794 44.9172 42.5789 44.4645C42.5789 44.3069 42.5157 44.1558 42.403 44.0443C42.2904 43.9329 42.1377 43.8703 41.9784 43.8703C41.8191 43.8703 41.6664 43.9329 41.5538 44.0443C41.4411 44.1558 41.3779 44.3069 41.3779 44.4645C41.3774 44.9172 41.1953 45.3512 40.8718 45.6714C40.5482 45.9915 40.1095 46.1716 39.6519 46.1721C39.5724 46.1712 39.4936 46.1858 39.4199 46.2153C39.3462 46.2447 39.2792 46.2883 39.2226 46.3436C39.1661 46.3989 39.1212 46.4647 39.0906 46.5372C39.06 46.6098 39.0442 46.6876 39.0442 46.7662C39.0442 46.8449 39.06 46.9227 39.0906 46.9952C39.1212 47.0678 39.1661 47.1336 39.2226 47.1889C39.2792 47.2441 39.3462 47.2877 39.4199 47.3172C39.4936 47.3466 39.5724 47.3613 39.6519 47.3603ZM41.9784 46.22C42.1372 46.4255 42.3229 46.6092 42.5306 46.7663C42.3228 46.9234 42.1372 47.1071 41.9784 47.3126C41.8196 47.1071 41.6339 46.9234 41.4262 46.7663C41.6339 46.6092 41.8196 46.4255 41.9784 46.22ZM73.691 35.3473V33.6229C73.691 33.4653 73.6278 33.3141 73.5151 33.2027C73.4025 33.0913 73.2498 33.0287 73.0905 33.0287C72.9312 33.0287 72.7785 33.0913 72.6659 33.2027C72.5532 33.3141 72.49 33.4653 72.49 33.6229V35.3473C72.109 35.4719 71.7774 35.7122 71.5424 36.0339C71.3074 36.3557 71.1809 36.7426 71.1809 37.1396C71.1809 37.5365 71.3074 37.9234 71.5424 38.2452C71.7774 38.5669 72.109 38.8072 72.49 38.9318V43.375C72.49 43.5326 72.5532 43.6837 72.6659 43.7952C72.7785 43.9066 72.9312 43.9692 73.0905 43.9692C73.2498 43.9692 73.4025 43.9066 73.5151 43.7952C73.6278 43.6837 73.691 43.5326 73.691 43.375V38.9317C74.072 38.8071 74.4035 38.5668 74.6385 38.2451C74.8735 37.9233 75 37.5365 75 37.1395C75 36.7425 74.8735 36.3557 74.6385 36.0339C74.4035 35.7122 74.072 35.4719 73.691 35.3473ZM73.0905 37.8398C72.9505 37.8398 72.8137 37.7987 72.6973 37.7218C72.5808 37.6449 72.4901 37.5355 72.4365 37.4075C72.3829 37.2796 72.3689 37.1388 72.3962 37.0029C72.4235 36.8671 72.491 36.7423 72.5899 36.6443C72.6889 36.5464 72.8151 36.4797 72.9524 36.4527C73.0897 36.4257 73.232 36.4395 73.3613 36.4926C73.4906 36.5456 73.6012 36.6353 73.679 36.7505C73.7567 36.8657 73.7982 37.0011 73.7982 37.1396C73.7979 37.3252 73.7233 37.5032 73.5906 37.6344C73.458 37.7657 73.2781 37.8395 73.0905 37.8398ZM43.7495 41.3201C44.3531 41.3208 44.9317 41.5584 45.3585 41.9806C45.7853 42.4029 46.0254 42.9754 46.0261 43.5726C46.0251 43.6512 46.0399 43.7293 46.0697 43.8022C46.0994 43.8751 46.1435 43.9414 46.1994 43.9973C46.2552 44.0533 46.3217 44.0977 46.3951 44.128C46.4684 44.1583 46.5471 44.1739 46.6265 44.1739C46.706 44.1739 46.7847 44.1583 46.858 44.128C46.9313 44.0977 46.9979 44.0533 47.0537 43.9973C47.1096 43.9414 47.1537 43.8751 47.1834 43.8022C47.2132 43.7293 47.228 43.6512 47.227 43.5726C47.2281 42.9751 47.4686 42.4024 47.8958 41.9802C48.3231 41.5579 48.9022 41.3205 49.5061 41.3201C49.6641 41.3183 49.815 41.2548 49.9261 41.1436C50.0372 41.0324 50.0994 40.8824 50.0994 40.726C50.0994 40.5697 50.0372 40.4196 49.9261 40.3084C49.815 40.1972 49.6641 40.1338 49.5061 40.1319C48.9019 40.1312 48.3226 39.8935 47.8953 39.4708C47.4681 39.0481 47.2277 38.4749 47.227 37.8771C47.228 37.7985 47.2132 37.7205 47.1834 37.6476C47.1537 37.5747 47.1096 37.5083 47.0537 37.4524C46.9979 37.3965 46.9313 37.3521 46.858 37.3217C46.7847 37.2914 46.706 37.2758 46.6265 37.2758C46.5471 37.2758 46.4684 37.2914 46.3951 37.3217C46.3217 37.3521 46.2552 37.3965 46.1994 37.4524C46.1435 37.5083 46.0994 37.5747 46.0697 37.6476C46.0399 37.7205 46.0251 37.7985 46.0261 37.8771C46.0257 38.4746 45.7858 39.0475 45.359 39.4702C44.9322 39.893 44.3534 40.1309 43.7495 40.1319C43.67 40.131 43.5912 40.1456 43.5175 40.1751C43.4438 40.2045 43.3767 40.2481 43.3202 40.3034C43.2637 40.3586 43.2188 40.4245 43.1882 40.497C43.1575 40.5695 43.1418 40.6474 43.1418 40.726C43.1418 40.8046 43.1575 40.8825 43.1882 40.955C43.2188 41.0276 43.2637 41.0934 43.3202 41.1487C43.3767 41.2039 43.4438 41.2475 43.5175 41.277C43.5912 41.3064 43.67 41.3211 43.7495 41.3201ZM46.6268 39.809C46.8747 40.1696 47.1891 40.4808 47.5535 40.7262C47.1891 40.9713 46.8747 41.2821 46.6268 41.6425C46.379 41.2822 46.0649 40.9713 45.7007 40.7262C46.0649 40.4808 46.3791 40.1696 46.6268 39.809ZM69.9203 38.84V33.6229C69.9203 33.4653 69.857 33.3141 69.7444 33.2027C69.6318 33.0913 69.479 33.0287 69.3197 33.0287C69.1605 33.0287 69.0077 33.0913 68.8951 33.2027C68.7825 33.3141 68.7192 33.4653 68.7192 33.6229V38.84C68.3384 38.9651 68.0071 39.2056 67.7722 39.5275C67.5374 39.8494 67.411 40.2363 67.411 40.6333C67.411 41.0303 67.5374 41.4172 67.7722 41.7391C68.0071 42.061 68.3384 42.3016 68.7192 42.4267V43.375C68.7192 43.5326 68.7825 43.6837 68.8951 43.7952C69.0077 43.9066 69.1605 43.9692 69.3197 43.9692C69.479 43.9692 69.6318 43.9066 69.7444 43.7952C69.857 43.6837 69.9203 43.5326 69.9203 43.375V42.4267C70.3011 42.3017 70.6324 42.0611 70.8672 41.7392C71.1021 41.4173 71.2284 41.0304 71.2284 40.6334C71.2284 40.2364 71.1021 39.8495 70.8672 39.5276C70.6324 39.2057 70.3011 38.9651 69.9203 38.84ZM69.3197 41.3347C69.1794 41.3349 69.0422 41.294 68.9254 41.217C68.8086 41.14 68.7175 41.0305 68.6637 40.9023C68.6099 40.774 68.5957 40.6329 68.623 40.4967C68.6503 40.3605 68.7179 40.2354 68.8171 40.1372C68.9163 40.0391 69.0428 39.9722 69.1804 39.9452C69.318 39.9181 69.4607 39.9321 69.5903 39.9854C69.7199 40.0386 69.8306 40.1287 69.9084 40.2442C69.9863 40.3598 70.0277 40.4956 70.0274 40.6344C70.0273 40.8201 69.9526 40.9982 69.8198 41.1295C69.687 41.2608 69.507 41.3346 69.3193 41.3347H69.3197Z" fill="black"/>
</g>
<defs>
<filter id="filter0_d_765_51" x="0.5" y="0.104004" width="105" height="105" filterUnits="userSpaceOnUse" color-interpolation-filters="sRGB">
<feFlood flood-opacity="0" result="BackgroundImageFix"/>
<feColorMatrix in="SourceAlpha" type="matrix" values="0 0 0 0 0 0 0 0 0 0 0 0 0 0 0 0 0 0 127 0" result="hardAlpha"/>
<feOffset/>
<feGaussianBlur stdDeviation="7.5"/>
<feColorMatrix type="matrix" values="0 0 0 0 1 0 0 0 0 0.756863 0 0 0 0 0.243137 0 0 0 1 0"/>
<feBlend mode="normal" in2="BackgroundImageFix" result="effect1_dropShadow_765_51"/>
<feBlend mode="normal" in="SourceGraphic" in2="effect1_dropShadow_765_51" result="shape"/>
</filter>
</defs>
</svg>
