<svg width="49" height="46" viewBox="0 0 49 46" fill="none" xmlns="http://www.w3.org/2000/svg">
<path d="M38.8849 23.7233L41.0729 21.6695C41.7164 21.0653 40.7186 20.133 40.0752 20.7371L37.9458 22.7361C37.2652 23.2422 36.4809 23.2308 35.8209 22.7235L38.7898 19.9363C39.4333 19.3322 38.4354 18.3997 37.7921 19.004L33.1024 23.4066C32.521 23.9524 31.5525 23.9524 30.971 23.4066C30.3821 22.8538 30.3821 21.9545 30.9708 21.4017C30.9709 21.4016 30.971 21.4016 30.971 21.4015L31.7326 20.6865C32.3762 20.0824 31.3782 19.1499 30.7348 19.7542L29.9732 20.4692C29.3918 21.015 28.4233 21.015 27.8418 20.4692C27.2529 19.9163 27.2529 19.0169 27.8419 18.464C27.8421 18.4638 27.8422 18.4638 27.8424 18.4636L28.6035 17.749C29.247 17.145 28.2491 16.2125 27.6058 16.8168L26.8448 17.5312C26.2766 18.0634 25.2811 18.0651 24.7129 17.5317C24.0392 16.8993 24.2591 16.0747 24.7855 15.4583L25.4744 14.8115C26.118 14.2075 25.1201 13.2752 24.4767 13.8793L23.7884 14.5256C23.1934 15.0399 22.252 15.0851 21.6564 14.5261C21.0675 13.9733 21.0675 13.0738 21.6564 12.5209L28.9559 5.66849C30.4745 4.24283 32.8103 3.84173 34.7683 4.67033C35.0358 4.78349 35.3501 4.72964 35.5573 4.53498L39.1074 1.20221C39.7509 0.59819 38.7531 -0.334244 38.1097 0.269955L34.8898 3.29271C32.5016 2.48057 29.7714 3.0339 27.9581 4.73624L20.6586 11.5888C18.7813 13.3496 20.2228 16.3894 22.877 16.2569C22.6753 17.9062 24.2004 19.3996 26 19.2586C25.9381 20.0269 26.2195 20.8152 26.844 21.4015C27.4436 21.9644 28.2839 22.2549 29.129 22.196C29.0671 22.9644 29.3484 23.7527 29.973 24.339C31.088 25.3858 32.9821 25.3882 34.0998 24.339L34.8252 23.658C35.8979 24.6617 37.7829 24.7571 38.8849 23.7233Z" fill="#FFC13E"/>
<path d="M48.2929 8.89323C48.0174 8.63583 47.5712 8.63618 47.2964 8.89428L43.7462 12.2271C43.5397 12.4211 43.4825 12.7142 43.6025 12.964C44.4857 14.8036 44.0583 16.9979 42.5389 18.4244C41.8955 19.0284 42.8931 19.9611 43.5366 19.3567C45.3498 17.6545 45.9386 15.0917 45.073 12.8507L48.2942 9.82673C48.569 9.56863 48.5685 9.15071 48.2929 8.89323Z" fill="#FFC13E"/>
<path d="M6.19875 25.163L5.46542 25.8514C3.65224 27.5536 3.06342 30.1164 3.92904 32.3574L0.707831 35.3814C0.0644161 35.9855 1.06195 36.918 1.70556 36.3138L5.25571 32.981C5.46222 32.7871 5.51944 32.4939 5.39946 32.2441C4.51627 30.4045 4.94358 28.2102 6.46305 26.7837L7.19638 26.0954C7.83998 25.4913 6.84207 24.5588 6.19875 25.163Z" fill="#FFC13E"/>
<path d="M26.3516 31.6128C26.3519 31.6125 26.3522 31.6121 26.3525 31.6119C27.4881 30.5449 27.4878 28.8096 26.3516 27.7431C25.752 27.1802 24.9118 26.8897 24.0666 26.9486C24.1285 26.1803 23.8472 25.392 23.2227 24.8057C22.6234 24.243 21.7825 23.9518 20.9376 24.0112C20.9995 23.2429 20.7182 22.4547 20.0937 21.8683C19.4777 21.2901 18.6064 20.9996 17.7403 21.0793C17.7823 20.331 17.4995 19.5695 16.892 18.9991C15.7769 17.9523 13.8829 17.95 12.7653 18.9991L8.72447 22.7923C8.08096 23.3964 9.07859 24.3286 9.72219 23.7246L13.7629 19.9315C14.3442 19.3856 15.3129 19.3856 15.8942 19.9315C16.483 20.4842 16.4831 21.3835 15.8945 21.9364C15.8944 21.9364 15.8943 21.9365 15.8942 21.9366L15.2052 22.5833C14.5619 23.1873 15.5592 24.1199 16.2029 23.5156L16.8919 22.869C17.4904 22.3084 18.4593 22.2032 19.0959 22.8008C19.6848 23.3536 19.6848 24.253 19.0959 24.8059L18.3343 25.5208C17.6909 26.1248 18.6886 27.0575 19.3321 26.4531L20.0931 25.7386C20.6613 25.2065 21.6568 25.2048 22.225 25.7382C22.8139 26.291 22.8139 27.1904 22.225 27.7433C22.2248 27.7435 22.2247 27.7436 22.2245 27.7438L21.4634 28.4583C20.82 29.0622 21.8176 29.9949 22.4611 29.3905L23.2226 28.6756C23.804 28.1298 24.7724 28.1297 25.3539 28.6756C25.9428 29.2284 25.9428 30.1278 25.3539 30.6807L24.1297 31.83C24.1297 31.83 24.1297 31.83 24.1296 31.8301L20.6642 35.0833C20.0208 35.6873 21.0183 36.6198 21.6619 36.0156L24.6285 33.2307C25.1935 33.8481 25.1571 34.6103 24.6396 35.2276L20.0463 39.5395C18.5277 40.9651 16.1917 41.3662 14.2339 40.5377C13.9665 40.4246 13.6522 40.4784 13.4449 40.673L9.89479 44.0057C9.25138 44.6097 10.2489 45.5423 10.8925 44.9381L14.1124 41.9153C16.5006 42.7275 19.2308 42.1741 21.0441 40.4718L25.6958 36.105C26.9378 34.94 26.415 33.3712 25.6714 32.2517L26.3516 31.6128Z" fill="#FFC13E"/>
<path d="M9.43479 9.45243C10.0748 10.0619 11.0776 9.13423 10.4393 8.52661L5.97231 4.27477C5.33332 3.66636 4.32873 4.59226 4.96782 5.20058L9.43479 9.45243Z" fill="#FFC13E"/>
<path d="M13.5404 13.2971C14.1707 13.9203 15.1876 13.0064 14.5635 12.3893L13.2531 11.0938C12.6265 10.4742 11.6034 11.3821 12.23 12.0016L13.5404 13.2971Z" fill="#FFC13E"/>
<path d="M7.41385 16.8118L2.36557 15.5039C1.48736 15.2764 1.11163 16.5485 1.98974 16.7761L7.03802 18.084C7.88513 18.3032 8.28295 17.037 7.41385 16.8118Z" fill="#FFC13E"/>
<path d="M18.588 6.96836C18.8128 7.77994 20.1818 7.46606 19.9523 6.63705L18.6375 1.88854C18.4088 1.06253 17.0446 1.39383 17.2733 2.21985L18.588 6.96836Z" fill="#FFC13E"/>
<path d="M38.3649 34.7301C37.726 34.1216 36.7213 35.0477 37.3604 35.656L41.8275 39.9082C42.4675 40.5177 43.4703 39.59 42.8319 38.9823L38.3649 34.7301Z" fill="#FFC13E"/>
<path d="M34.2589 30.8853C33.6323 30.2657 32.6093 31.1736 33.2358 31.7931L34.5462 33.0886C35.1766 33.7118 36.1935 32.7979 35.5693 32.1808L34.2589 30.8853Z" fill="#FFC13E"/>
<path d="M45.8099 27.4067L40.7616 26.0989C39.8834 25.8714 39.5076 27.1434 40.3857 27.3709L45.434 28.6787C46.2812 28.8978 46.6791 27.6318 45.8099 27.4067Z" fill="#FFC13E"/>
<path d="M29.2113 37.2147C28.9825 36.3887 27.6183 36.72 27.847 37.546L29.1618 42.2945C29.3865 43.1061 30.7555 42.7922 30.526 41.9632L29.2113 37.2147Z" fill="#FFC13E"/>
</svg>
