<svg width="106" height="106" viewBox="0 0 106 106" fill="none" xmlns="http://www.w3.org/2000/svg">
<g filter="url(#filter0_d_762_496)">
<rect x="17" y="17.104" width="72" height="72" rx="36" stroke="#FFC13E" stroke-width="3"/>
<path d="M52.9995 57.304C47.3995 57.304 46.283 55.9362 46.073 55.5169C46.0246 55.4197 45.9994 55.3126 45.9995 55.204V53.104C46.001 51.8049 46.5177 50.5594 47.4363 49.6408C48.3549 48.7222 49.6004 48.2055 50.8995 48.204H55.0995C56.3986 48.2055 57.6441 48.7222 58.5627 49.6408C59.4813 50.5594 59.998 51.8049 59.9995 53.104V55.204C60.0007 55.3123 59.9767 55.4194 59.9295 55.5169C59.7195 55.9362 58.5995 57.304 52.9995 57.304ZM47.3995 54.9471C47.6949 55.1627 48.971 55.904 52.9995 55.904C56.9475 55.904 58.2495 55.1921 58.5995 54.9282V53.104C58.5984 52.1761 58.2293 51.2865 57.5731 50.6303C56.917 49.9742 56.0274 49.6051 55.0995 49.604H50.8995C49.9716 49.6051 49.082 49.9742 48.4259 50.6303C47.7697 51.2865 47.4006 52.1761 47.3995 53.104V54.9471Z" fill="black"/>
<path d="M52.9996 49.604C52.1689 49.604 51.3568 49.3577 50.6662 48.8962C49.9755 48.4347 49.4372 47.7787 49.1193 47.0113C48.8014 46.2438 48.7182 45.3993 48.8803 44.5846C49.0423 43.7699 49.4423 43.0215 50.0297 42.4342C50.6171 41.8468 51.3655 41.4468 52.1802 41.2847C52.9949 41.1227 53.8394 41.2058 54.6068 41.5237C55.3743 41.8416 56.0302 42.3799 56.4917 43.0706C56.9532 43.7613 57.1995 44.5733 57.1995 45.404C57.1984 46.5176 56.7556 47.5852 55.9682 48.3726C55.1808 49.16 54.1131 49.6029 52.9996 49.604ZM52.9996 42.604C52.4458 42.604 51.9044 42.7682 51.444 43.0759C50.9835 43.3836 50.6246 43.8209 50.4127 44.3325C50.2008 44.8441 50.1453 45.4071 50.2534 45.9503C50.3614 46.4934 50.6281 46.9923 51.0197 47.3839C51.4112 47.7755 51.9102 48.0422 52.4533 48.1502C52.9964 48.2582 53.5594 48.2028 54.0711 47.9909C54.5827 47.7789 55.02 47.4201 55.3277 46.9596C55.6353 46.4991 55.7995 45.9578 55.7995 45.404C55.7995 44.6614 55.5045 43.9492 54.9794 43.4241C54.4543 42.899 53.7422 42.604 52.9996 42.604Z" fill="black"/>
<path d="M68.3997 57.304C67.4373 57.3094 66.4753 57.2594 65.5186 57.1542L65.681 55.764C66.5838 55.8627 67.4915 55.9095 68.3997 55.904C72.3477 55.904 73.6497 55.1921 73.9997 54.9282V53.104C73.9986 52.1761 73.6295 51.2865 72.9734 50.6303C72.3172 49.9742 71.4277 49.6051 70.4997 49.604H68.3997V48.204H70.4997C71.7988 48.2055 73.0443 48.7222 73.9629 49.6408C74.8815 50.5594 75.3983 51.8049 75.3997 53.104V55.204C75.4009 55.3123 75.377 55.4194 75.3297 55.5169C75.1197 55.9362 73.9997 57.304 68.3997 57.304Z" fill="black"/>
<path d="M68.3996 49.604V48.204C69.1422 48.204 69.8544 47.909 70.3795 47.3839C70.9046 46.8588 71.1996 46.1466 71.1996 45.404C71.1996 44.6614 70.9046 43.9492 70.3795 43.4241C69.8544 42.899 69.1422 42.604 68.3996 42.604C67.7935 42.6019 67.2033 42.7987 66.7196 43.164L65.8796 42.044C66.6052 41.496 67.4904 41.201 68.3996 41.204C69.5135 41.204 70.5818 41.6465 71.3695 42.4342C72.1571 43.2218 72.5996 44.2901 72.5996 45.404C72.5996 46.5179 72.1571 47.5862 71.3695 48.3739C70.5818 49.1615 69.5135 49.604 68.3996 49.604Z" fill="black"/>
<path d="M37.5998 57.304C31.9999 57.304 30.8799 55.9362 30.6734 55.5169C30.6249 55.4197 30.5998 55.3126 30.5999 55.204V53.104C30.6013 51.8049 31.1181 50.5594 32.0367 49.6408C32.9553 48.7222 34.2007 48.2055 35.4998 48.204H37.5998V49.604H35.4998C34.5719 49.6051 33.6823 49.9742 33.0262 50.6303C32.3701 51.2865 32.001 52.1761 31.9999 53.104V54.9471C32.2953 55.1627 33.5713 55.904 37.5998 55.904C38.508 55.9095 39.4158 55.8627 40.3186 55.764L40.481 57.1542C39.5243 57.2594 38.5623 57.3094 37.5998 57.304Z" fill="black"/>
<path d="M37.5999 49.604C36.486 49.604 35.4177 49.1615 34.6301 48.3739C33.8424 47.5862 33.3999 46.5179 33.3999 45.404C33.3999 44.2901 33.8424 43.2218 34.6301 42.4342C35.4177 41.6465 36.486 41.204 37.5999 41.204C38.5091 41.201 39.3943 41.496 40.1199 42.044L39.2799 43.164C38.7962 42.7987 38.2061 42.6019 37.5999 42.604C36.8573 42.604 36.1451 42.899 35.62 43.4241C35.0949 43.9492 34.7999 44.6614 34.7999 45.404C34.7999 46.1466 35.0949 46.8588 35.62 47.3839C36.1451 47.909 36.8573 48.204 37.5999 48.204V49.604Z" fill="black"/>
<path d="M52.9999 62.204C50.3694 62.204 47.798 61.424 45.6109 59.9625C43.4237 58.5011 41.719 56.4239 40.7124 53.9937C39.7057 51.5634 39.4423 48.8893 39.9555 46.3093C40.4687 43.7294 41.7354 41.3595 43.5954 39.4995C45.4555 37.6395 47.8253 36.3728 50.4052 35.8596C52.9852 35.3464 55.6594 35.6098 58.0896 36.6164C60.5199 37.6231 62.597 39.3278 64.0585 41.5149C65.5199 43.7021 66.2999 46.2735 66.2999 48.904C66.296 52.4302 64.8935 55.8108 62.4001 58.3042C59.9067 60.7976 56.5261 62.2001 52.9999 62.204ZM52.9999 37.004C50.6463 37.004 48.3456 37.702 46.3887 39.0095C44.4317 40.3171 42.9065 42.1757 42.0058 44.3501C41.1051 46.5245 40.8694 48.9172 41.3286 51.2256C41.7878 53.534 42.9211 55.6543 44.5854 57.3186C46.2496 58.9828 48.37 60.1162 50.6784 60.5753C52.9867 61.0345 55.3794 60.7988 57.5539 59.8982C59.7283 58.9975 61.5868 57.4722 62.8944 55.5153C64.202 53.5583 64.8999 51.2576 64.8999 48.904C64.8964 45.749 63.6415 42.7243 61.4106 40.4933C59.1797 38.2624 56.1549 37.0076 52.9999 37.004Z" fill="black"/>
<path d="M62.5949 57.5095L61.605 58.4994L64.405 61.2995L65.395 60.3095L62.5949 57.5095Z" fill="black"/>
<path d="M71.1996 70.604C71.014 70.6039 70.836 70.5302 70.7047 70.3989L63.0048 62.6989C62.8735 62.5676 62.7998 62.3896 62.7998 62.204C62.7998 62.0184 62.8735 61.8404 63.0048 61.7091L65.8047 58.9091C65.936 58.7779 66.114 58.7042 66.2996 58.7042C66.4853 58.7042 66.6633 58.7779 66.7945 58.9091L74.4945 66.6091C74.6258 66.7404 74.6995 66.9184 74.6995 67.104C74.6995 67.2896 74.6258 67.4676 74.4945 67.5989L71.6945 70.3989C71.5633 70.5302 71.3853 70.6039 71.1996 70.604ZM64.4895 62.204L71.1996 68.9142L73.0098 67.104L66.2996 60.3938L64.4895 62.204Z" fill="black"/>
</g>
<defs>
<filter id="filter0_d_762_496" x="0.5" y="0.604004" width="105" height="105" filterUnits="userSpaceOnUse" color-interpolation-filters="sRGB">
<feFlood flood-opacity="0" result="BackgroundImageFix"/>
<feColorMatrix in="SourceAlpha" type="matrix" values="0 0 0 0 0 0 0 0 0 0 0 0 0 0 0 0 0 0 127 0" result="hardAlpha"/>
<feOffset/>
<feGaussianBlur stdDeviation="7.5"/>
<feColorMatrix type="matrix" values="0 0 0 0 1 0 0 0 0 0.756863 0 0 0 0 0.243137 0 0 0 1 0"/>
<feBlend mode="normal" in2="BackgroundImageFix" result="effect1_dropShadow_762_496"/>
<feBlend mode="normal" in="SourceGraphic" in2="effect1_dropShadow_762_496" result="shape"/>
</filter>
</defs>
</svg>
