<svg width="210" height="210" viewBox="0 0 210 210" fill="none" xmlns="http://www.w3.org/2000/svg">
<path d="M183.46 126.546L177.95 126.664L175.153 126.71C174.216 126.731 173.275 126.71 172.339 126.735H172.154V126.546L172.133 121.846V121.636H172.343L177.904 121.661C179.756 121.661 181.612 121.712 183.464 121.733H183.582V121.846C183.582 122.644 183.548 123.438 183.527 124.219L183.46 126.546ZM183.46 126.546L183.401 124.173C183.38 123.388 183.355 122.615 183.347 121.846L183.46 121.96C181.608 121.981 179.752 122.027 177.899 122.031L172.339 122.056L172.549 121.846L172.528 126.546L172.339 126.357C173.254 126.357 174.17 126.357 175.09 126.382L177.853 126.428L183.46 126.546Z" fill="#EBEBEB"/>
<path d="M177.24 132.472L171.725 132.59L168.928 132.636C167.996 132.657 167.055 132.636 166.118 132.657H165.934V132.468L165.913 127.768V127.558H166.123L171.683 127.583C173.536 127.583 175.392 127.634 177.244 127.655H177.358V127.768C177.358 128.566 177.324 129.36 177.303 130.141L177.24 132.472ZM177.24 132.472L177.181 130.099C177.181 129.314 177.135 128.541 177.127 127.772L177.24 127.886C175.388 127.907 173.531 127.953 171.679 127.957L166.118 127.982L166.328 127.772L166.32 132.472L166.135 132.283C167.051 132.283 167.966 132.283 168.882 132.308L171.646 132.355L177.24 132.472Z" fill="#EBEBEB"/>
<path d="M189.664 132.472L184.153 132.59L181.356 132.636C180.419 132.657 179.479 132.636 178.542 132.657H178.357V132.468L178.332 127.768V127.558H178.542L184.103 127.583C185.959 127.583 187.811 127.634 189.664 127.655H189.781V127.768C189.781 128.566 189.743 129.36 189.722 130.141L189.664 132.472ZM189.664 132.472L189.605 130.099C189.605 129.314 189.559 128.541 189.55 127.772L189.664 127.886C187.811 127.907 185.959 127.953 184.103 127.957L178.542 127.982L178.752 127.772L178.731 132.472L178.542 132.283C179.458 132.283 180.373 132.283 181.293 132.308L184.057 132.355L189.664 132.472Z" fill="#EBEBEB"/>
<path d="M31.5001 126.546L25.9855 126.664L23.1883 126.71C22.2559 126.731 21.3151 126.71 20.3785 126.735H20.1895V126.546V121.846V121.636H20.4037L25.9645 121.661C27.8167 121.661 29.6689 121.712 31.5253 121.733H31.6387V121.846C31.6387 122.644 31.6009 123.438 31.5841 124.219L31.5001 126.546ZM31.5001 126.546L31.4413 124.173C31.4413 123.388 31.3909 122.615 31.3825 121.846L31.5001 121.96C29.6437 121.981 27.7915 122.027 25.9393 122.031L20.3785 122.056L20.5885 121.846L20.5633 126.546L20.3785 126.357C21.2941 126.357 22.2055 126.357 23.1253 126.382L25.8889 126.428L31.5001 126.546Z" fill="#EBEBEB"/>
<path d="M37.6952 132.472L32.1806 132.59L29.4002 132.636C28.4678 132.657 27.527 132.636 26.5904 132.657H26.4014V132.468V127.768V127.558H26.6114L32.1722 127.583C34.0244 127.583 35.8808 127.634 37.733 127.655H37.8002V127.768C37.8002 128.566 37.7666 129.36 37.7456 130.141L37.6952 132.472ZM37.6952 132.472L37.6364 130.099C37.6364 129.314 37.586 128.541 37.5818 127.772L37.6952 127.886C35.843 127.907 33.9866 127.953 32.1344 127.957L26.5736 127.982L26.7836 127.772L26.7584 132.472L26.5736 132.283C27.4892 132.283 28.4048 132.283 29.3204 132.308L32.084 132.355L37.6952 132.472Z" fill="#EBEBEB"/>
<path d="M67.4983 85.9782L61.9879 86.0958L59.1907 86.142C58.2541 86.163 57.3133 86.142 56.3767 86.163H56.1919V85.974L56.1709 81.2742V81.06H56.3809L61.9417 81.0852C63.7939 81.0852 65.6503 81.1314 67.5025 81.1566H67.6201V81.27C67.6201 82.068 67.5865 82.8618 67.5655 83.643L67.4983 85.9782ZM67.4983 85.9782L67.4395 83.601C67.4395 82.8198 67.3933 82.047 67.3849 81.2784L67.4983 81.3918C65.6461 81.4128 63.7897 81.459 61.9375 81.4632L56.3767 81.4884L56.5867 81.2784V85.9782L56.3977 85.7892C57.3133 85.7892 58.2289 85.7892 59.1487 85.8144L61.9123 85.8606L67.4983 85.9782Z" fill="#EBEBEB"/>
<path d="M61.2948 91.9044L55.7802 92.022L52.983 92.0682C52.0506 92.0682 51.1098 92.0682 50.1732 92.0682H49.98V91.8792V87.2046V86.9946H50.19L55.7508 87.0198C57.603 87.0198 59.4594 87.066 61.3116 87.0912H61.4292V87.2046C61.4292 88.0026 61.3956 88.7964 61.3746 89.5776L61.2948 91.9044ZM61.2948 91.9044L61.236 89.5272C61.215 88.746 61.1898 87.9732 61.1814 87.2046L61.2948 87.318C59.4426 87.318 57.5862 87.3852 55.734 87.3894L50.1732 87.4146L50.3832 87.2046L50.358 91.9044L50.1732 91.7154C51.0888 91.7154 52.0044 91.7154 52.92 91.7406L55.6836 91.7868L61.2948 91.9044Z" fill="#EBEBEB"/>
<path d="M73.7017 91.9044L68.1913 92.022L65.3941 92.0682C64.4575 92.0682 63.5167 92.0682 62.5801 92.0682H62.3953V91.8792L62.3701 87.1794V86.9694H62.5801L68.1409 86.9946C69.9973 86.9946 71.8495 87.0408 73.7017 87.066H73.8193V87.1794C73.8193 87.9774 73.7815 88.7712 73.7605 89.5524L73.7017 91.9044ZM73.7017 91.9044L73.6429 89.5272C73.6429 88.746 73.5967 87.9732 73.5883 87.2046L73.7017 87.318C71.8495 87.318 69.9973 87.3852 68.1409 87.3894L62.5801 87.4146L62.7901 87.2046L62.7691 91.9044L62.5801 91.7154C63.4957 91.7154 64.4113 91.7154 65.3311 91.7406L68.0947 91.7868L73.7017 91.9044Z" fill="#EBEBEB"/>
<path d="M182.818 24.969L177.303 25.0866L174.506 25.137C173.573 25.137 172.633 25.137 171.696 25.137H171.511V24.948L171.49 20.2482V20.0382H171.7L177.261 20.0634C179.113 20.0634 180.97 20.1096 182.822 20.1306H182.939V20.244C182.939 21.0378 182.906 21.8316 182.885 22.617L182.818 24.969ZM182.818 24.969L182.759 22.596C182.738 21.8148 182.713 21.042 182.704 20.2692L182.818 20.3868C180.965 20.4078 179.109 20.454 177.257 20.454L171.696 20.4792L171.906 20.2692L171.881 24.969L171.696 24.78C172.612 24.78 173.527 24.78 174.443 24.801L177.206 24.8514L182.818 24.969Z" fill="#EBEBEB"/>
<path d="M189.021 30.8952L183.511 31.0128L180.714 31.0632C179.777 31.0632 178.836 31.0632 177.9 31.0842H177.715V30.8952L177.694 26.1954V25.9854H177.904L183.465 26.0106C185.317 26.0106 187.173 26.0568 189.025 26.0778H189.143V26.1912C189.143 26.9892 189.109 27.783 189.088 28.5684L189.021 30.8952ZM189.021 30.8952L188.962 28.5222C188.941 27.741 188.916 26.9682 188.908 26.1954L189.021 26.313C187.169 26.334 185.313 26.3802 183.46 26.3802L177.9 26.4054L178.11 26.1954L178.08 30.8952L177.891 30.7104C178.807 30.7104 179.722 30.7104 180.642 30.7104L183.406 30.7608L189.021 30.8952Z" fill="#EBEBEB"/>
<path d="M31.4582 24.9774L25.9436 25.095L23.1464 25.1412C22.214 25.1412 21.2732 25.1412 20.3366 25.1412H20.1602V24.9522V20.2524V20.0424H20.3702L25.931 20.0676C27.7832 20.0676 29.6354 20.1138 31.4918 20.1348H31.6052V20.2482C31.6052 21.0462 31.5674 21.8358 31.5506 22.6212L31.4582 24.9774ZM31.4582 24.9774L31.3994 22.6002C31.3784 21.819 31.349 21.0462 31.3406 20.2776L31.4582 20.391C29.6018 20.412 27.7496 20.4582 25.8974 20.4582L20.3366 20.4876L20.5466 20.2776L20.5214 24.9774L20.3366 24.78C21.2522 24.78 22.1678 24.78 23.0834 24.8052L25.847 24.8514L31.4582 24.9774Z" fill="#EBEBEB"/>
<path d="M72.6182 31.5966H49.6064V59.5098H72.6182V31.5966Z" fill="#EBEBEB"/>
<path d="M69.9888 34.1418H52.2354V56.9604H69.9888V34.1418Z" fill="white"/>
<path d="M52.9283 34.1418H52.2354V56.9604H52.9283V34.1418Z" fill="#DBDBDB"/>
<path d="M73.3068 31.5966H72.6138V59.5098H73.3068V31.5966Z" fill="#DBDBDB"/>
<path d="M62.37 37.2876H58.1826V49.7574H62.37V37.2876Z" fill="#DBDBDB"/>
<path d="M67.7291 52.101H56.1455V45.57H67.7291V52.101ZM56.5655 51.681H67.3091V45.99H56.5655V51.681Z" fill="#EBEBEB"/>
<path d="M45.255 61.0848H22.2432V88.998H45.255V61.0848Z" fill="#EBEBEB"/>
<path d="M42.626 63.6342H24.8726V86.4528H42.626V63.6342Z" fill="white"/>
<path d="M25.5656 63.6342H24.8726V86.4528H25.5656V63.6342Z" fill="#DBDBDB"/>
<path d="M45.9484 61.0848H45.2554V88.998H45.9484V61.0848Z" fill="#DBDBDB"/>
<path d="M35.6161 69.531H32.0293V78.5988H35.6161V69.531Z" fill="#EBEBEB"/>
<path d="M39.6019 81.5052H29.5513V74.8314H39.6019V81.5052ZM29.9713 81.0852H39.1819V75.2514H29.9713V81.0852Z" fill="#DBDBDB"/>
<path d="M180.798 119.364H147.861V164.947H180.798V119.364Z" fill="#EBEBEB"/>
<path d="M182.394 117.676H146.265V119.368H182.394V117.676Z" fill="#DBDBDB"/>
<path d="M193.755 117.676H182.394V119.368H193.755V117.676Z" fill="#EBEBEB"/>
<path d="M191.957 119.364H180.797V164.947H191.957V119.364Z" fill="#DBDBDB"/>
<path d="M177.261 140.473H151.394V125.845H177.261V140.473ZM151.499 140.368H177.156V125.95H151.499V140.368Z" fill="#C7C7C7"/>
<path d="M165.753 130.124H160.722V133.018H165.753V130.124Z" fill="#C7C7C7"/>
<path d="M167.29 132.85H162.154V130.288H167.29V132.85ZM162.25 132.745H167.177V130.393H162.259L162.25 132.745Z" fill="#C7C7C7"/>
<path d="M177.261 158.823H151.394V144.194H177.261V158.823ZM151.499 158.718H177.156V144.299H151.499V158.718Z" fill="#C7C7C7"/>
<path d="M165.753 148.474H160.722V151.368H165.753V148.474Z" fill="#C7C7C7"/>
<path d="M167.29 151.2H162.154V148.642H167.29V151.2ZM162.25 151.095H167.177V148.747H162.259L162.25 151.095Z" fill="#C7C7C7"/>
<path d="M182.079 0H181.659V39.69H182.079V0Z" fill="#C7C7C7"/>
<path d="M169.987 51.1434L170.94 53.2476H192.801L193.755 51.1434L184.447 44.7048H179.294L169.987 51.1434Z" fill="#EBEBEB"/>
<path d="M178.647 38.4972L179.294 44.7048H184.447L185.094 38.4972H178.647Z" fill="#DBDBDB"/>
<path d="M169.987 51.1476L170.944 53.2476H192.801L193.755 51.1476H169.987Z" fill="#DBDBDB"/>
<path d="M158.122 0H157.702V27.4428H158.122V0Z" fill="#C7C7C7"/>
<path d="M146.026 38.9004L146.983 41.0004H168.84L169.794 38.9004L160.491 32.4576H155.333L146.026 38.9004Z" fill="#EBEBEB"/>
<path d="M154.686 26.2542L155.333 32.4576H160.49L161.133 26.2542H154.686Z" fill="#DBDBDB"/>
<path d="M146.03 38.9004L146.983 41.0046H168.844L169.793 38.9004H146.03Z" fill="#DBDBDB"/>
<path d="M105 191.407C151 191.407 188.29 186.916 188.29 181.377C188.29 175.838 151 171.347 105 171.347C59.0003 171.347 21.71 175.838 21.71 181.377C21.71 186.916 59.0003 191.407 105 191.407Z" fill="#EBEBEB"/>
<path d="M16.2456 164.947L38.4342 164.846L60.6228 164.808L105 164.737L149.377 164.808L171.566 164.846L193.754 164.947L171.566 165.052L149.377 165.085L105 165.157L60.6228 165.085L38.4342 165.047L16.2456 164.947Z" fill="#263238"/>
<path d="M133.938 20.2692H65.9734C65.0619 20.2774 64.1609 20.4652 63.3219 20.8218C62.483 21.1784 61.7226 21.6968 61.0841 22.3474C60.4456 22.9979 59.9415 23.768 59.6007 24.6135C59.26 25.4589 59.0891 26.3633 59.098 27.2748V171.205C59.0823 173.045 59.7975 174.816 61.0865 176.13C62.3756 177.443 64.1331 178.191 65.9734 178.21H133.938C135.779 178.192 137.538 177.445 138.829 176.131C140.119 174.818 140.836 173.046 140.822 171.205V27.2748C140.837 25.4331 140.121 23.6605 138.83 22.3468C137.539 21.0331 135.779 20.2858 133.938 20.2692ZM136.521 166.879C136.521 170.562 133.761 173.54 130.359 173.54H69.5602C66.1498 173.54 63.3904 170.562 63.3904 166.879V32.5794C63.3904 25.074 66.1498 24.7086 69.5602 24.7086H81.7402C82.4458 24.7086 83.0254 25.515 83.0254 26.5104V26.9304C83.0254 29.2656 84.2854 29.274 85.873 29.274H114.038C115.622 29.274 116.894 29.274 116.894 26.9304V26.5104C116.894 25.515 117.465 24.7086 118.184 24.7086H130.364C133.766 24.7086 136.525 25.7082 136.525 32.5794L136.521 166.879Z" fill="#263238"/>
<path d="M136.521 32.5794V166.879C136.521 170.562 133.761 173.54 130.359 173.54H69.5599C66.1495 173.54 63.3901 170.562 63.3901 166.879V32.5794C63.3901 25.074 66.1495 24.7086 69.5599 24.7086H81.7399C82.4455 24.7086 83.0251 25.515 83.0251 26.5104V26.9304C83.0251 29.2656 84.2851 29.274 85.8727 29.274H114.038C115.621 29.274 116.894 29.274 116.894 26.9304V26.5104C116.894 25.515 117.465 24.7086 118.183 24.7086H130.363C133.761 24.7086 136.521 25.7082 136.521 32.5794Z" fill="white"/>
<path d="M136.521 32.5752V166.879C136.521 170.562 133.761 173.54 130.359 173.54H69.5599C66.1495 173.54 63.3901 170.562 63.3901 166.879V32.5752C63.3901 25.074 66.1495 24.7086 69.5599 24.7086H81.7399C82.4455 24.7086 83.0251 25.515 83.0251 26.5104V26.9304C83.0251 29.2698 84.2851 29.2782 85.8727 29.2782H114.038C115.621 29.2782 116.894 29.2782 116.894 26.9304V26.5104C116.894 25.515 117.465 24.7086 118.183 24.7086H130.363C133.761 24.7086 136.521 25.7082 136.521 32.5752Z" fill="white"/>
<path d="M136.521 32.5794V44.1756H63.3901V32.5794C63.3901 25.074 66.1495 24.7086 69.5599 24.7086H81.7399C82.4455 24.7086 83.0251 25.515 83.0251 26.5104V26.9304C83.0251 29.2656 84.2851 29.274 85.8727 29.274H114.038C115.621 29.274 116.894 29.274 116.894 26.9304V26.5104C116.894 25.515 117.465 24.7086 118.183 24.7086H130.363C133.761 24.7086 136.521 25.7082 136.521 32.5794Z" fill="#FFC13E"/>
<path d="M79.6358 27.636C79.598 27.6738 79.556 27.7116 79.5182 27.7536L79.451 27.8208C79.3024 27.6715 79.1256 27.553 78.931 27.4721C78.7364 27.3912 78.5278 27.3496 78.317 27.3496C78.1063 27.3496 77.8976 27.3912 77.703 27.4721C77.5084 27.553 77.3317 27.6715 77.183 27.8208L77.12 27.7536C77.0822 27.7158 77.0402 27.678 77.0024 27.636L77.1536 27.5016C77.2589 27.4148 77.3746 27.3414 77.498 27.2832C77.6414 27.2109 77.7941 27.1586 77.9516 27.1278L78.1826 27.0984H78.38H78.5354C78.679 27.115 78.82 27.1489 78.9554 27.1992C79.0531 27.2354 79.1473 27.2804 79.2368 27.3336C79.3336 27.3878 79.425 27.4511 79.5098 27.5226L79.6316 27.6318L79.6358 27.636Z" fill="white"/>
<path d="M77.5569 28.1904L77.3721 28.0056C77.5748 27.798 77.8407 27.6636 78.1281 27.6234C78.3341 27.593 78.5445 27.6113 78.7421 27.677C78.9398 27.7426 79.1193 27.8537 79.2663 28.0014L79.0773 28.1862C78.8751 27.9856 78.6019 27.8731 78.3171 27.8731C78.0323 27.8731 77.759 27.9856 77.5569 28.1862V28.1904Z" fill="white"/>
<path d="M78.8925 28.3752L78.7077 28.56C78.6573 28.5076 78.5966 28.4663 78.5293 28.4388C78.462 28.4114 78.3897 28.3983 78.3171 28.4004C78.2447 28.3997 78.1728 28.4135 78.1058 28.4409C78.0387 28.4683 77.9778 28.5088 77.9265 28.56L77.7417 28.3752C77.8171 28.2992 77.9067 28.239 78.0054 28.1978C78.1042 28.1567 78.2101 28.1355 78.3171 28.1355C78.4241 28.1355 78.53 28.1567 78.6288 28.1978C78.7275 28.239 78.8171 28.2992 78.8925 28.3752Z" fill="white"/>
<path d="M78.4849 28.728C78.4849 28.7612 78.4751 28.7937 78.4566 28.8213C78.4382 28.849 78.4119 28.8705 78.3812 28.8832C78.3505 28.8959 78.3167 28.8993 78.2842 28.8928C78.2516 28.8863 78.2216 28.8703 78.1981 28.8468C78.1746 28.8233 78.1586 28.7934 78.1522 28.7608C78.1457 28.7282 78.149 28.6944 78.1617 28.6637C78.1744 28.633 78.196 28.6068 78.2236 28.5883C78.2512 28.5699 78.2837 28.56 78.3169 28.56C78.3615 28.56 78.4042 28.5777 78.4357 28.6092C78.4672 28.6407 78.4849 28.6834 78.4849 28.728Z" fill="white"/>
<path d="M68.1616 27.993C68.1608 27.8963 68.1888 27.8015 68.242 27.7208C68.2952 27.64 68.3713 27.5769 68.4605 27.5395C68.5496 27.5021 68.6479 27.4921 68.7428 27.5108C68.8377 27.5294 68.9249 27.5759 68.9933 27.6443C69.0617 27.7127 69.1082 27.7999 69.1269 27.8948C69.1455 27.9897 69.1355 28.088 69.0981 28.1772C69.0607 28.2664 68.9976 28.3424 68.9169 28.3956C68.8361 28.4489 68.7414 28.4768 68.6446 28.476C68.5169 28.4749 68.3947 28.4237 68.3043 28.3333C68.214 28.243 68.1627 28.1208 68.1616 27.993Z" fill="white"/>
<path d="M69.6861 27.993C69.6852 27.8965 69.7131 27.8018 69.7661 27.7212C69.8191 27.6405 69.8949 27.5774 69.9839 27.5399C70.0728 27.5024 70.1709 27.4921 70.2657 27.5104C70.3605 27.5288 70.4477 27.5748 70.5162 27.6428C70.5848 27.7108 70.6316 27.7976 70.6508 27.8922C70.6699 27.9868 70.6605 28.085 70.6238 28.1742C70.587 28.2635 70.5246 28.3399 70.4444 28.3936C70.3642 28.4473 70.2698 28.476 70.1733 28.476C70.0448 28.476 69.9215 28.4252 69.8302 28.3348C69.739 28.2443 69.6872 28.1215 69.6861 27.993Z" fill="white"/>
<path d="M71.2149 27.993C71.214 27.8963 71.242 27.8015 71.2952 27.7208C71.3484 27.64 71.4245 27.5769 71.5137 27.5395C71.6029 27.5021 71.7012 27.4921 71.7961 27.5108C71.891 27.5294 71.9782 27.5759 72.0465 27.6443C72.1149 27.7127 72.1614 27.7999 72.1801 27.8948C72.1988 27.9897 72.1888 28.088 72.1514 28.1772C72.114 28.2664 72.0509 28.3424 71.9701 28.3956C71.8893 28.4489 71.7946 28.4768 71.6979 28.476C71.6344 28.476 71.5716 28.4635 71.513 28.4392C71.4544 28.415 71.4012 28.3794 71.3563 28.3345C71.3115 28.2897 71.2759 28.2364 71.2516 28.1778C71.2274 28.1192 71.2149 28.0564 71.2149 27.993Z" fill="white"/>
<path d="M72.7398 27.993C72.7389 27.8965 72.7668 27.8018 72.8198 27.7212C72.8728 27.6405 72.9486 27.5774 73.0376 27.5399C73.1265 27.5024 73.2246 27.4921 73.3194 27.5104C73.4142 27.5288 73.5014 27.5748 73.57 27.6428C73.6385 27.7108 73.6853 27.7976 73.7045 27.8922C73.7236 27.9868 73.7142 28.085 73.6775 28.1742C73.6407 28.2635 73.5783 28.3399 73.4981 28.3936C73.4179 28.4473 73.3235 28.476 73.227 28.476C73.0985 28.476 72.9752 28.4252 72.8839 28.3348C72.7927 28.2443 72.7409 28.1215 72.7398 27.993Z" fill="white"/>
<path d="M74.2686 27.993C74.2677 27.8966 74.2955 27.8022 74.3483 27.7216C74.4012 27.6411 74.4767 27.578 74.5654 27.5403C74.6542 27.5027 74.752 27.4922 74.8467 27.5102C74.9413 27.5282 75.0286 27.5738 75.0973 27.6414C75.166 27.7089 75.2131 27.7953 75.2328 27.8896C75.2524 27.984 75.2436 28.082 75.2075 28.1714C75.1714 28.2607 75.1096 28.3373 75.0299 28.3916C74.9503 28.4458 74.8563 28.4752 74.76 28.476C74.6958 28.4771 74.6321 28.4654 74.5726 28.4417C74.513 28.4179 74.4587 28.3825 74.413 28.3375C74.3673 28.2926 74.3309 28.239 74.3061 28.1798C74.2813 28.1206 74.2686 28.0571 74.2686 27.993Z" fill="white"/>
<path d="M131.04 29.0472H127.092V27.2202H131.04V29.0472ZM127.298 28.8498H130.838V27.4218H127.298V28.8498Z" fill="white"/>
<path d="M129.965 27.531H127.419V28.7364H129.965V27.531Z" fill="white"/>
<path d="M131.392 27.6486H131.04V28.6272H131.392V27.6486Z" fill="white"/>
<path d="M70.06 39.8832L67.897 37.8588L70.06 35.8344L70.3918 36.1914L68.6152 37.8588L70.3918 39.5262L70.06 39.8832Z" fill="white"/>
<path d="M129.86 35.8344L132.023 37.8588L129.86 39.8832L129.528 39.5262L131.304 37.8588L129.528 36.1914L129.86 35.8344Z" fill="white"/>
<path d="M103.798 26.3676H96.1167C95.9912 26.3665 95.8711 26.3161 95.7823 26.2274C95.6935 26.1386 95.6432 26.0185 95.6421 25.893C95.6432 25.7675 95.6935 25.6474 95.7823 25.5586C95.8711 25.4698 95.9912 25.4195 96.1167 25.4184H103.798C103.924 25.4184 104.045 25.4684 104.134 25.5574C104.223 25.6464 104.273 25.7671 104.273 25.893C104.273 26.0189 104.223 26.1396 104.134 26.2286C104.045 26.3176 103.924 26.3676 103.798 26.3676Z" fill="white"/>
<path d="M131.565 49.959H68.355V65.8476H131.565V49.959Z" fill="#EBEBEB"/>
<path d="M77.5862 63.4578C76.4879 63.4545 75.4153 63.1258 74.5037 62.5132C73.5921 61.9006 72.8825 61.0316 72.4646 60.016C72.0466 59.0004 71.9389 57.8837 72.1552 56.8069C72.3715 55.7301 72.902 54.7416 73.6798 53.9662C74.4576 53.1908 75.4477 52.6632 76.5251 52.4502C77.6025 52.2371 78.7189 52.3481 79.7333 52.7692C80.7476 53.1902 81.6145 53.9025 82.2243 54.8159C82.8341 55.7293 83.1596 56.8029 83.1596 57.9012C83.159 58.6322 83.0144 59.3558 82.7339 60.0308C82.4534 60.7058 82.0426 61.3189 81.5249 61.835C81.0073 62.3511 80.393 62.7601 79.7171 63.0385C79.0413 63.317 78.3171 63.4595 77.5862 63.4578ZM77.5862 53.1216C76.6397 53.1208 75.7142 53.4007 74.9269 53.9261C74.1395 54.4514 73.5257 55.1985 73.1631 56.0728C72.8005 56.9471 72.7055 57.9093 72.8899 58.8376C73.0744 59.766 73.5301 60.6188 74.1993 61.288C74.8686 61.9573 75.7214 62.413 76.6498 62.5975C77.5781 62.7819 78.5403 62.6868 79.4146 62.3242C80.2889 61.9616 81.036 61.3478 81.5613 60.5605C82.0867 59.7732 82.3666 58.8477 82.3658 57.9012C82.3636 56.6342 81.8593 55.4198 80.9634 54.524C80.0676 53.6281 78.8531 53.1238 77.5862 53.1216Z" fill="#DBDBDB"/>
<path d="M75.4999 55.2054L74.894 55.8113L79.6725 60.5898L80.2784 59.9839L75.4999 55.2054Z" fill="#DBDBDB"/>
<path d="M74.8946 59.9879L75.5005 60.5937L80.279 55.8152L79.6731 55.2094L74.8946 59.9879Z" fill="#DBDBDB"/>
<path d="M127.886 53.6676H87.2256V54.4362H127.886V53.6676Z" fill="#DBDBDB"/>
<path d="M127.886 56.7378H87.2256V57.5064H127.886V56.7378Z" fill="#DBDBDB"/>
<path d="M120.418 58.2792H87.2256V59.0478H120.418V58.2792Z" fill="#DBDBDB"/>
<path d="M109.255 59.8248H87.2256V60.5934H109.255V59.8248Z" fill="#DBDBDB"/>
<path d="M120.418 61.3704H87.2256V62.139H120.418V61.3704Z" fill="#DBDBDB"/>
<path d="M131.565 90.7116H68.355V106.6H131.565V90.7116Z" fill="#EBEBEB"/>
<path d="M77.5866 104.206C76.4893 104.202 75.4179 103.873 74.5076 103.26C73.5973 102.648 72.8889 101.779 72.4718 100.764C72.0548 99.7492 71.9478 98.6334 72.1644 97.5578C72.381 96.4821 72.9115 95.4947 73.6889 94.7203C74.4662 93.9459 75.4556 93.4191 76.5321 93.2066C77.6085 92.9941 78.7239 93.1052 79.7372 93.5261C80.7506 93.9469 81.6165 94.6586 82.2257 95.5712C82.8349 96.4839 83.16 97.5565 83.16 98.6538C83.1594 99.3846 83.0147 100.108 82.7342 100.783C82.4537 101.458 82.0428 102.07 81.5251 102.586C81.0074 103.102 80.393 103.51 79.7172 103.788C79.0414 104.066 78.3173 104.208 77.5866 104.206ZM77.5866 93.87C76.6403 93.8692 75.7149 94.149 74.9277 94.6742C74.1405 95.1993 73.5267 95.9462 73.1639 96.8202C72.8012 97.6943 72.7059 98.6563 72.89 99.5845C73.0741 100.513 73.5294 101.366 74.1982 102.035C74.8671 102.704 75.7195 103.16 76.6476 103.345C77.5756 103.53 78.5377 103.436 79.4121 103.074C80.2865 102.712 81.0338 102.099 81.5597 101.312C82.0855 100.525 82.3662 99.6001 82.3662 98.6538C82.3651 97.3861 81.8613 96.1706 80.9653 95.2739C80.0693 94.3771 78.8543 93.8722 77.5866 93.87Z" fill="#DBDBDB"/>
<path d="M75.4999 95.9583L74.894 96.5641L79.6725 101.343L80.2784 100.737L75.4999 95.9583Z" fill="#DBDBDB"/>
<path d="M74.8951 100.74L75.501 101.346L80.2795 96.5676L79.6736 95.9618L74.8951 100.74Z" fill="#DBDBDB"/>
<path d="M127.886 94.416H87.2256V95.1846H127.886V94.416Z" fill="#DBDBDB"/>
<path d="M127.886 97.4862H87.2256V98.2548H127.886V97.4862Z" fill="#DBDBDB"/>
<path d="M120.418 99.0318H87.2256V99.8004H120.418V99.0318Z" fill="#DBDBDB"/>
<path d="M109.255 100.577H87.2256V101.346H109.255V100.577Z" fill="#DBDBDB"/>
<path d="M120.418 102.123H87.2256V102.892H120.418V102.123Z" fill="#DBDBDB"/>
<path d="M131.565 111.35H68.355V127.239H131.565V111.35Z" fill="#EBEBEB"/>
<path d="M77.5866 124.849C76.49 124.845 75.4193 124.516 74.5093 123.904C73.5993 123.293 72.8909 122.425 72.4734 121.411C72.0559 120.397 71.948 119.282 72.1632 118.207C72.3785 117.132 72.9073 116.144 73.6829 115.369C74.4586 114.594 75.4464 114.066 76.5218 113.852C77.5972 113.637 78.7119 113.746 79.7256 114.164C80.7392 114.583 81.6063 115.292 82.2175 116.202C82.8287 117.112 83.1566 118.183 83.16 119.28C83.1616 120.012 83.0186 120.737 82.739 121.414C82.4595 122.091 82.0489 122.706 81.531 123.223C81.0131 123.741 80.398 124.151 79.721 124.43C79.0441 124.709 78.3187 124.851 77.5866 124.849ZM77.5866 114.513C76.6395 114.512 75.7135 114.792 74.9259 115.318C74.1383 115.844 73.5245 116.592 73.1623 117.467C72.8001 118.342 72.7057 119.305 72.8912 120.234C73.0767 121.162 73.5337 122.015 74.2042 122.684C74.8747 123.353 75.7287 123.807 76.6579 123.99C77.5871 124.173 78.5497 124.077 79.4237 123.712C80.2978 123.347 81.044 122.732 81.5678 121.943C82.0916 121.154 82.3695 120.227 82.3662 119.28C82.3606 118.015 81.8549 116.804 80.9594 115.911C80.0638 115.018 78.8513 114.515 77.5866 114.513Z" fill="#DBDBDB"/>
<path d="M75.4989 116.6L74.8931 117.206L79.6716 121.984L80.2774 121.379L75.4989 116.6Z" fill="#DBDBDB"/>
<path d="M74.8898 121.38L75.4956 121.986L80.2741 117.208L79.6682 116.602L74.8898 121.38Z" fill="#DBDBDB"/>
<path d="M127.886 115.059H87.2256V115.828H127.886V115.059Z" fill="#DBDBDB"/>
<path d="M127.886 118.129H87.2256V118.898H127.886V118.129Z" fill="#DBDBDB"/>
<path d="M120.418 119.675H87.2256V120.443H120.418V119.675Z" fill="#DBDBDB"/>
<path d="M109.255 121.216H87.2256V121.985H109.255V121.216Z" fill="#DBDBDB"/>
<path d="M120.418 122.762H87.2256V123.53H120.418V122.762Z" fill="#DBDBDB"/>
<path d="M131.565 131.989H68.355V147.878H131.565V131.989Z" fill="#EBEBEB"/>
<path d="M77.5866 145.488C76.4893 145.484 75.4179 145.155 74.5076 144.542C73.5973 143.929 72.8889 143.061 72.4718 142.046C72.0548 141.031 71.9478 139.915 72.1644 138.84C72.381 137.764 72.9115 136.777 73.6889 136.002C74.4662 135.228 75.4556 134.701 76.5321 134.488C77.6085 134.276 78.7239 134.387 79.7372 134.808C80.7506 135.229 81.6165 135.94 82.2257 136.853C82.8349 137.766 83.16 138.838 83.16 139.936C83.1594 140.666 83.0147 141.39 82.7342 142.065C82.4537 142.739 82.0428 143.352 81.5251 143.868C81.0074 144.384 80.393 144.792 79.7172 145.07C79.0414 145.348 78.3173 145.49 77.5866 145.488ZM77.5866 135.152C76.6403 135.151 75.7149 135.431 74.9277 135.956C74.1405 136.481 73.5267 137.228 73.1639 138.102C72.8012 138.976 72.7059 139.938 72.89 140.866C73.0741 141.795 73.5294 142.647 74.1982 143.317C74.8671 143.986 75.7195 144.442 76.6476 144.627C77.5756 144.812 78.5377 144.718 79.4121 144.356C80.2865 143.994 81.0338 143.381 81.5597 142.594C82.0855 141.807 82.3662 140.882 82.3662 139.936C82.3651 138.668 81.8613 137.452 80.9653 136.556C80.0693 135.659 78.8543 135.154 77.5866 135.152Z" fill="#DBDBDB"/>
<path d="M75.5018 137.234L74.896 137.839L79.6745 142.618L80.2803 142.012L75.5018 137.234Z" fill="#DBDBDB"/>
<path d="M74.8971 142.024L75.5029 142.63L80.2814 137.852L79.6756 137.246L74.8971 142.024Z" fill="#DBDBDB"/>
<path d="M127.886 135.698H87.2256V136.466H127.886V135.698Z" fill="#DBDBDB"/>
<path d="M127.886 138.768H87.2256V139.537H127.886V138.768Z" fill="#DBDBDB"/>
<path d="M120.418 140.314H87.2256V141.082H120.418V140.314Z" fill="#DBDBDB"/>
<path d="M109.255 141.859H87.2256V142.628H109.255V141.859Z" fill="#DBDBDB"/>
<path d="M120.418 143.401H87.2256V144.169H120.418V143.401Z" fill="#DBDBDB"/>
<path d="M133.635 69.762H66.2798V86.6922H133.635V69.762Z" fill="#FFC13E"/>
<path d="M135.11 88.2378H64.8101V68.2164H135.11V88.2378ZM65.2301 87.8178H134.69V68.6364H65.2301V87.8178Z" fill="#FFC13E"/>
<path d="M75.2975 81.2868L72.9917 78.9558L73.7687 78.1872L75.1127 79.5522L77.9099 75.1674L78.8255 75.7554L75.2975 81.2868Z" fill="white"/>
<path d="M76.1165 84.1428C74.9461 84.1428 73.802 83.7957 72.8288 83.1455C71.8556 82.4952 71.0971 81.571 70.6492 80.4896C70.2013 79.4083 70.0841 78.2184 70.3124 77.0705C70.5408 75.9225 71.1044 74.8681 71.932 74.0405C72.7596 73.2129 73.8141 72.6492 74.962 72.4209C76.11 72.1926 77.2998 72.3098 78.3812 72.7577C79.4625 73.2056 80.3867 73.9641 81.037 74.9372C81.6873 75.9104 82.0343 77.0546 82.0343 78.225C82.0332 79.7941 81.4094 81.2987 80.2998 82.4083C79.1903 83.5178 77.6857 84.1417 76.1165 84.1428ZM76.1165 73.1304C75.1079 73.1304 74.1219 73.4295 73.2834 73.99C72.4448 74.5504 71.7912 75.347 71.4055 76.2789C71.0197 77.2109 70.9189 78.2363 71.116 79.2255C71.3131 80.2146 71.7991 81.1232 72.5126 81.8361C73.2261 82.549 74.135 83.0343 75.1244 83.2305C76.1137 83.4268 77.1391 83.3252 78.0707 82.9387C79.0023 82.5521 79.7983 81.8979 80.3581 81.0589C80.9178 80.2198 81.2162 79.2336 81.2153 78.225C81.2142 76.8734 80.6765 75.5776 79.7204 74.6223C78.7644 73.667 77.4681 73.1304 76.1165 73.1304Z" fill="white"/>
<path d="M129.721 73.71H86.3896V74.529H129.721V73.71Z" fill="white"/>
<path d="M129.721 76.9818H86.3896V77.8008H129.721V76.9818Z" fill="white"/>
<path d="M121.762 78.6282H86.3896V79.4472H121.762V78.6282Z" fill="white"/>
<path d="M109.863 80.2746H86.3896V81.0936H109.863V80.2746Z" fill="white"/>
<path d="M121.762 81.921H86.3896V82.74H121.762V81.921Z" fill="white"/>
<path d="M95.1633 164.094C95.1641 164.3 95.1036 164.502 94.9895 164.674C94.8753 164.846 94.7127 164.98 94.5222 165.06C94.3317 165.139 94.1219 165.16 93.9195 165.12C93.7171 165.08 93.5311 164.981 93.3852 164.835C93.2392 164.689 93.1399 164.503 93.0999 164.3C93.0598 164.098 93.0808 163.888 93.1602 163.698C93.2395 163.507 93.3737 163.345 93.5456 163.23C93.7175 163.116 93.9195 163.056 94.1259 163.057C94.4007 163.058 94.6639 163.167 94.8582 163.362C95.0525 163.556 95.1622 163.819 95.1633 164.094Z" fill="#DBDBDB"/>
<path d="M99.9596 165.799C100.901 165.799 101.665 165.036 101.665 164.094C101.665 163.152 100.901 162.389 99.9596 162.389C99.0178 162.389 98.2544 163.152 98.2544 164.094C98.2544 165.036 99.0178 165.799 99.9596 165.799Z" fill="#DBDBDB"/>
<path d="M106.835 164.094C106.836 164.3 106.776 164.502 106.662 164.674C106.548 164.846 106.385 164.98 106.195 165.059C106.005 165.139 105.795 165.16 105.593 165.12C105.391 165.081 105.205 164.982 105.059 164.836C104.912 164.691 104.813 164.505 104.772 164.303C104.732 164.101 104.752 163.891 104.831 163.701C104.91 163.51 105.043 163.347 105.214 163.232C105.386 163.118 105.587 163.057 105.794 163.057C106.069 163.057 106.333 163.166 106.529 163.36C106.724 163.555 106.834 163.818 106.835 164.094Z" fill="#DBDBDB"/>
<path d="M142.93 54.3606L142.762 54.4026C142.767 54.3833 142.777 54.3657 142.792 54.3522L142.93 54.3606Z" fill="#263238"/>
<path d="M147.764 175.699H147.688V175.644L147.764 175.699Z" fill="#F7A9A0"/>
<path d="M154.694 69.1782C156.882 80.0268 164.06 97.4778 164.774 99.9474C165.375 102.047 178 98.1162 177.131 96.8982C176.018 95.34 164.888 75.7428 159.541 68.6784C155.123 62.8488 153.665 64.0794 154.694 69.1782Z" fill="#F7A9A0"/>
<path d="M176.551 96.0036C177.865 97.734 179.911 102.673 180.394 104.324C180.877 105.974 181.876 110.817 180.65 111.308C179.424 111.8 179.016 110.401 179.016 110.401C179.016 110.401 179.117 112.501 177.84 112.892C176.563 113.282 175.992 111.082 175.992 111.082C175.992 111.082 175.942 113.261 174.64 113.547C173.338 113.833 173.136 111.539 173.136 111.539C173.136 111.539 173.182 113.53 172.006 113.316C170.595 113.06 170.927 109.372 170.272 107.591C170.121 107.171 166.664 99.6114 166.664 99.6114L176.551 96.0036Z" fill="#F7A9A0"/>
<path d="M173.367 111.602C173.607 108.893 173.241 107.667 172.015 105.302C171.99 105.256 172.053 105.21 172.082 105.256C173.498 107.478 174.182 108.952 173.498 111.64C173.46 111.754 173.355 111.72 173.367 111.602Z" fill="#263238"/>
<path d="M176.181 111.166C176.181 108.331 175.799 106.995 174.699 104.408C174.699 104.37 174.745 104.341 174.762 104.378C176.055 106.827 176.698 108.31 176.324 111.145C176.307 111.275 176.181 111.3 176.181 111.166Z" fill="#263238"/>
<path d="M179.168 110.141C178.97 107.394 178.613 105.911 177.219 103.538C177.211 103.527 177.208 103.513 177.21 103.5C177.213 103.487 177.22 103.475 177.231 103.467C177.242 103.459 177.256 103.456 177.27 103.458C177.283 103.461 177.295 103.468 177.303 103.48C178.958 105.764 179.403 107.608 179.247 110.124C179.239 110.296 179.18 110.313 179.168 110.141Z" fill="#263238"/>
<path d="M164.686 98.658C164.686 98.658 164.841 102.064 165.24 103.543C165.639 105.021 169.151 109.998 170.28 109.301C171.725 108.398 170.28 105.13 169.335 103.618C169.335 103.618 172.695 101.518 172.133 98.9646C171.57 96.411 164.686 98.658 164.686 98.658Z" fill="#F7A9A0"/>
<path d="M170.583 108.923C171.305 107.15 169.961 105.252 169.176 103.719C169.163 103.697 169.156 103.673 169.155 103.648C169.154 103.623 169.159 103.598 169.17 103.575C169.18 103.552 169.197 103.532 169.217 103.517C169.237 103.502 169.26 103.492 169.285 103.488C170.625 102.522 172.225 100.766 172.225 99.0234C172.228 99.015 172.233 99.0077 172.24 99.0025C172.247 98.9973 172.256 98.9945 172.265 98.9945C172.274 98.9945 172.282 98.9973 172.289 99.0025C172.296 99.0077 172.302 99.015 172.305 99.0234C172.59 100.888 171.145 102.74 169.608 103.706C170.448 105.26 171.708 107.23 170.616 108.94L170.583 108.923Z" fill="#263238"/>
<path d="M175.879 92.82C175.879 92.82 163.052 98.5614 162.754 98.8218C162.754 98.8218 154.488 72.7818 153.808 68.376C153.127 63.9702 154.728 62.7732 157.558 65.856C162.212 70.9044 175.879 92.82 175.879 92.82Z" fill="#DBDBDB"/>
<path d="M155.446 71.0052C155.446 71.0932 155.42 71.1793 155.371 71.2525C155.322 71.3257 155.253 71.3828 155.171 71.4165C155.09 71.4502 155 71.459 154.914 71.4418C154.828 71.4247 154.748 71.3823 154.686 71.32C154.624 71.2577 154.581 71.1784 154.564 71.092C154.547 71.0057 154.556 70.9162 154.59 70.8348C154.623 70.7535 154.68 70.6839 154.754 70.635C154.827 70.5861 154.913 70.56 155.001 70.56C155.119 70.56 155.232 70.6069 155.316 70.6904C155.399 70.7739 155.446 70.8871 155.446 71.0052ZM160.44 70.56C160.352 70.56 160.266 70.5861 160.193 70.635C160.119 70.6839 160.062 70.7535 160.029 70.8348C159.995 70.9162 159.986 71.0057 160.003 71.092C160.02 71.1784 160.063 71.2577 160.125 71.32C160.187 71.3823 160.267 71.4247 160.353 71.4418C160.439 71.459 160.529 71.4502 160.61 71.4165C160.692 71.3828 160.761 71.3257 160.81 71.2525C160.859 71.1793 160.885 71.0932 160.885 71.0052C160.885 70.8871 160.838 70.7739 160.755 70.6904C160.671 70.6069 160.558 70.56 160.44 70.56ZM157.727 66.6834C157.639 66.6834 157.553 66.7095 157.479 66.7584C157.406 66.8073 157.349 66.8769 157.315 66.9582C157.282 67.0396 157.273 67.1291 157.29 67.2154C157.307 67.3018 157.35 67.3811 157.412 67.4434C157.474 67.5057 157.553 67.5481 157.64 67.5652C157.726 67.5824 157.816 67.5736 157.897 67.5399C157.978 67.5062 158.048 67.4491 158.097 67.3759C158.146 67.3027 158.172 67.2166 158.172 67.1286C158.172 67.069 158.16 67.0101 158.137 66.9553C158.114 66.9004 158.08 66.8508 158.037 66.8092C157.994 66.7677 157.944 66.7352 157.888 66.7136C157.833 66.692 157.774 66.6817 157.714 66.6834H157.727ZM160.44 78.3468C160.351 78.3417 160.262 78.3635 160.186 78.4093C160.11 78.455 160.049 78.5227 160.011 78.6034C159.973 78.6842 159.961 78.7744 159.975 78.8624C159.989 78.9503 160.03 79.032 160.091 79.0968C160.152 79.1616 160.231 79.2066 160.318 79.2259C160.405 79.2452 160.496 79.238 160.579 79.2052C160.662 79.1723 160.733 79.1154 160.783 79.0417C160.833 78.9681 160.86 78.8811 160.86 78.792C160.86 78.6782 160.817 78.5686 160.738 78.4858C160.66 78.403 160.554 78.3532 160.44 78.3468ZM165.866 78.3468C165.779 78.3484 165.693 78.376 165.621 78.4259C165.549 78.4758 165.493 78.5459 165.461 78.6274C165.429 78.7088 165.421 78.7981 165.439 78.8839C165.457 78.9697 165.5 79.0482 165.563 79.1096C165.625 79.1711 165.705 79.2126 165.791 79.2291C165.877 79.2457 165.966 79.2364 166.047 79.2024C166.128 79.1685 166.197 79.1115 166.245 79.0384C166.294 78.9654 166.32 78.8797 166.32 78.792C166.32 78.7317 166.308 78.6721 166.284 78.6166C166.26 78.5612 166.226 78.5111 166.182 78.4695C166.139 78.4279 166.087 78.3955 166.03 78.3745C165.974 78.3534 165.914 78.3439 165.854 78.3468H165.866ZM157.727 74.4702C157.639 74.4702 157.553 74.4963 157.479 74.5452C157.406 74.5941 157.349 74.6637 157.315 74.745C157.282 74.8264 157.273 74.9159 157.29 75.0022C157.307 75.0886 157.35 75.1679 157.412 75.2302C157.474 75.2925 157.553 75.3349 157.64 75.352C157.726 75.3692 157.816 75.3604 157.897 75.3267C157.978 75.293 158.048 75.2359 158.097 75.1627C158.146 75.0895 158.172 75.0034 158.172 74.9154C158.172 74.8558 158.16 74.7969 158.137 74.7421C158.114 74.6872 158.08 74.6376 158.037 74.596C157.994 74.5545 157.944 74.522 157.888 74.5004C157.833 74.4788 157.774 74.4685 157.714 74.4702H157.727ZM163.153 74.4702C163.065 74.4702 162.979 74.4963 162.906 74.5452C162.833 74.5941 162.775 74.6637 162.742 74.745C162.708 74.8264 162.699 74.9159 162.716 75.0022C162.734 75.0886 162.776 75.1679 162.838 75.2302C162.901 75.2925 162.98 75.3349 163.066 75.352C163.153 75.3692 163.242 75.3604 163.323 75.3267C163.405 75.293 163.474 75.2359 163.523 75.1627C163.572 75.0895 163.598 75.0034 163.598 74.9154C163.598 74.8558 163.586 74.7969 163.563 74.7421C163.54 74.6872 163.506 74.6376 163.463 74.596C163.421 74.5545 163.37 74.522 163.315 74.5004C163.259 74.4788 163.2 74.4685 163.14 74.4702H163.153ZM160.44 86.1336C160.352 86.1336 160.266 86.1597 160.193 86.2086C160.119 86.2575 160.062 86.3271 160.029 86.4084C159.995 86.4898 159.986 86.5793 160.003 86.6656C160.02 86.752 160.063 86.8313 160.125 86.8936C160.187 86.9559 160.267 86.9983 160.353 87.0154C160.439 87.0326 160.529 87.0238 160.61 86.9901C160.692 86.9564 160.761 86.8993 160.81 86.8261C160.859 86.7529 160.885 86.6668 160.885 86.5788C160.885 86.4607 160.838 86.3475 160.755 86.264C160.671 86.1805 160.558 86.1336 160.44 86.1336ZM165.866 86.1336C165.778 86.1336 165.692 86.1597 165.619 86.2086C165.546 86.2575 165.489 86.3271 165.455 86.4084C165.421 86.4898 165.412 86.5793 165.43 86.6656C165.447 86.752 165.489 86.8313 165.551 86.8936C165.614 86.9559 165.693 86.9983 165.779 87.0154C165.866 87.0326 165.955 87.0238 166.037 86.9901C166.118 86.9564 166.188 86.8993 166.236 86.8261C166.285 86.7529 166.311 86.6668 166.311 86.5788C166.311 86.5192 166.3 86.4603 166.276 86.4055C166.253 86.3506 166.219 86.301 166.177 86.2594C166.134 86.2179 166.083 86.1854 166.028 86.1638C165.972 86.1422 165.913 86.1319 165.854 86.1336H165.866ZM171.293 86.1336C171.205 86.1336 171.119 86.1597 171.045 86.2086C170.972 86.2575 170.915 86.3271 170.881 86.4084C170.848 86.4898 170.839 86.5793 170.856 86.6656C170.873 86.752 170.916 86.8313 170.978 86.8936C171.04 86.9559 171.119 86.9983 171.206 87.0154C171.292 87.0326 171.382 87.0238 171.463 86.9901C171.544 86.9564 171.614 86.8993 171.663 86.8261C171.712 86.7529 171.738 86.6668 171.738 86.5788C171.738 86.5192 171.726 86.4603 171.703 86.4055C171.68 86.3506 171.646 86.301 171.603 86.2594C171.56 86.2179 171.51 86.1854 171.454 86.1638C171.399 86.1422 171.34 86.1319 171.28 86.1336H171.293ZM157.727 82.257H157.643C157.727 82.5384 157.811 82.824 157.899 83.097C157.985 83.0526 158.055 82.9811 158.097 82.8934C158.139 82.8058 158.151 82.7069 158.131 82.6117C158.112 82.5165 158.062 82.4303 157.989 82.3663C157.916 82.3022 157.824 82.2638 157.727 82.257ZM163.153 82.257C163.065 82.257 162.979 82.2831 162.906 82.332C162.833 82.3809 162.775 82.4505 162.742 82.5318C162.708 82.6132 162.699 82.7027 162.716 82.789C162.734 82.8754 162.776 82.9547 162.838 83.017C162.901 83.0793 162.98 83.1217 163.066 83.1388C163.153 83.156 163.242 83.1472 163.323 83.1135C163.405 83.0798 163.474 83.0227 163.523 82.9495C163.572 82.8763 163.598 82.7902 163.598 82.7022C163.598 82.6427 163.586 82.5837 163.563 82.5289C163.54 82.474 163.506 82.4244 163.463 82.3828C163.421 82.3413 163.37 82.3088 163.315 82.2872C163.259 82.2656 163.2 82.2553 163.14 82.257H163.153ZM168.579 82.257C168.491 82.257 168.405 82.2831 168.332 82.332C168.259 82.3809 168.202 82.4505 168.168 82.5318C168.134 82.6132 168.126 82.7027 168.143 82.789C168.16 82.8754 168.202 82.9547 168.265 83.017C168.327 83.0793 168.406 83.1217 168.493 83.1388C168.579 83.156 168.668 83.1472 168.75 83.1135C168.831 83.0798 168.901 83.0227 168.95 82.9495C168.999 82.8763 169.025 82.7902 169.025 82.7022C169.025 82.6427 169.013 82.5837 168.99 82.5289C168.966 82.474 168.933 82.4244 168.89 82.3828C168.847 82.3413 168.797 82.3088 168.741 82.2872C168.686 82.2656 168.626 82.2553 168.567 82.257H168.579ZM165.866 93.9204C165.748 93.9204 165.635 93.9673 165.551 94.0508C165.468 94.1343 165.421 94.2475 165.421 94.3656C165.421 94.4837 165.468 94.5969 165.551 94.6804C165.635 94.7639 165.748 94.8108 165.866 94.8108C165.984 94.8108 166.098 94.7639 166.181 94.6804C166.265 94.5969 166.311 94.4837 166.311 94.3656C166.311 94.2475 166.265 94.1343 166.181 94.0508C166.098 93.9673 165.984 93.9204 165.866 93.9204ZM171.293 93.9204C171.175 93.9204 171.061 93.9673 170.978 94.0508C170.894 94.1343 170.847 94.2475 170.847 94.3656C170.847 94.4837 170.894 94.5969 170.978 94.6804C171.061 94.7639 171.175 94.8108 171.293 94.8108C171.411 94.8108 171.524 94.7639 171.607 94.6804C171.691 94.5969 171.738 94.4837 171.738 94.3656C171.738 94.2475 171.691 94.1343 171.607 94.0508C171.524 93.9673 171.411 93.9204 171.293 93.9204ZM163.153 90.0438C163.035 90.0438 162.922 90.0907 162.838 90.1742C162.755 90.2577 162.708 90.3709 162.708 90.489C162.708 90.6071 162.755 90.7203 162.838 90.8038C162.922 90.8873 163.035 90.9342 163.153 90.9342C163.271 90.9342 163.384 90.8873 163.468 90.8038C163.551 90.7203 163.598 90.6071 163.598 90.489C163.598 90.3709 163.551 90.2577 163.468 90.1742C163.384 90.0907 163.271 90.0438 163.153 90.0438ZM168.579 90.0438C168.461 90.0438 168.348 90.0907 168.265 90.1742C168.181 90.2577 168.134 90.3709 168.134 90.489C168.134 90.6071 168.181 90.7203 168.265 90.8038C168.348 90.8873 168.461 90.9342 168.579 90.9342C168.698 90.9342 168.811 90.8873 168.894 90.8038C168.978 90.7203 169.025 90.6071 169.025 90.489C169.025 90.3709 168.978 90.2577 168.894 90.1742C168.811 90.0907 168.698 90.0438 168.579 90.0438ZM174.006 90.0438C173.918 90.0446 173.832 90.0714 173.76 90.1209C173.687 90.1703 173.631 90.2401 173.598 90.3215C173.565 90.4029 173.556 90.4923 173.574 90.5784C173.592 90.6645 173.634 90.7434 173.697 90.8053C173.759 90.8671 173.838 90.9091 173.925 90.9259C174.011 90.9428 174.1 90.9337 174.181 90.8999C174.262 90.8661 174.332 90.809 174.381 90.7359C174.429 90.6628 174.455 90.5769 174.455 90.489C174.455 90.4293 174.442 90.3702 174.419 90.3154C174.395 90.2605 174.361 90.2109 174.318 90.1694C174.275 90.128 174.224 90.0955 174.168 90.0739C174.112 90.0524 174.053 90.0421 173.993 90.0438H174.006ZM163.153 97.8306C163.035 97.8317 162.923 97.8789 162.839 97.9622C162.756 98.0455 162.709 98.1581 162.708 98.2758C162.704 98.3695 162.732 98.4618 162.787 98.5379C162.841 98.614 162.92 98.6696 163.01 98.6958L163.573 98.4228C163.59 98.3757 163.599 98.3259 163.598 98.2758C163.598 98.2163 163.586 98.1573 163.563 98.1025C163.54 98.0476 163.506 97.998 163.463 97.9564C163.421 97.9149 163.37 97.8824 163.315 97.8608C163.259 97.8392 163.2 97.8289 163.14 97.8306H163.153Z" fill="white"/>
<path d="M153.804 68.3844C154.484 72.7986 162.754 98.8302 162.754 98.8302C162.977 98.637 169.525 95.6676 173.531 93.8784L156.169 64.6128C154.228 63.3108 153.245 64.7598 153.804 68.3844Z" fill="#C7C7C7"/>
<path d="M172.796 90.3C172.83 90.3 172.859 90.3336 172.83 90.3504C171.15 91.308 163.418 94.7856 162.355 95.1216C162.322 95.1216 162.301 95.0796 162.33 95.067C165.9 93.2736 169.445 91.56 172.796 90.3Z" fill="#263238"/>
<path d="M153.774 63.861C153.774 64.281 152.3 67.3344 150.414 67.6032C149.797 67.6914 149.154 64.3398 149.154 64.3398L149.054 64.1004L147.617 60.7824L151.191 57.3972L151.712 56.9394C151.712 56.9394 152.048 57.8718 152.451 59.0394C152.451 59.094 152.489 59.1444 152.506 59.2032L152.577 59.3922L152.758 59.9214C152.804 60.0558 152.85 60.1902 152.892 60.3414C152.934 60.4926 152.981 60.6228 153.027 60.7614C153.347 61.7762 153.597 62.8118 153.774 63.861Z" fill="#F7A9A0"/>
<path d="M152.46 59.0394C152.295 60.0791 151.905 61.0704 151.319 61.9444C150.732 62.8184 149.962 63.5541 149.062 64.1004L147.625 60.7824L151.2 57.3972L151.72 56.9394C151.72 56.9394 152.04 57.8718 152.46 59.0394Z" fill="#263238"/>
<path d="M141.796 56.1708C142.04 62.5128 145.849 63.147 147.231 63.0294C148.47 62.9202 152.691 62.6556 153.111 56.3094C153.531 49.9632 150.498 48.0858 147.651 48.048C144.803 48.0102 141.54 49.8288 141.796 56.1708Z" fill="#F7A9A0"/>
<path d="M142.056 54.789C142.199 54.7518 142.339 54.7055 142.476 54.6504C142.63 54.6252 142.771 54.5481 142.875 54.432C142.902 54.3898 142.913 54.3399 142.908 54.2904C142.902 54.2409 142.881 54.1947 142.846 54.159C142.767 54.0975 142.673 54.0584 142.574 54.0459C142.475 54.0333 142.375 54.0477 142.283 54.0876C142.086 54.1398 141.914 54.2623 141.8 54.432C141.778 54.4723 141.768 54.518 141.77 54.5638C141.773 54.6097 141.789 54.6539 141.816 54.6912C141.842 54.7285 141.879 54.7575 141.922 54.7748C141.964 54.7921 142.011 54.797 142.056 54.789Z" fill="#263238"/>
<path d="M146.16 54.5706C146.009 54.5706 145.87 54.5412 145.74 54.5244C145.59 54.5274 145.442 54.4818 145.32 54.3942C145.285 54.3585 145.263 54.3123 145.258 54.2628C145.253 54.2133 145.264 54.1634 145.291 54.1212C145.355 54.045 145.438 53.9874 145.532 53.9541C145.625 53.9209 145.726 53.9133 145.824 53.9322C146.029 53.9414 146.223 54.0251 146.37 54.1674C146.405 54.2035 146.428 54.2497 146.435 54.2996C146.442 54.3494 146.434 54.4002 146.411 54.4449C146.387 54.4895 146.351 54.5257 146.306 54.5483C146.261 54.5709 146.21 54.5787 146.16 54.5706Z" fill="#263238"/>
<path d="M145.391 56.2212C145.391 56.2212 145.429 56.2212 145.429 56.259C145.454 56.679 145.551 57.1788 145.954 57.288V57.3132C145.471 57.288 145.345 56.6328 145.391 56.2212Z" fill="#263238"/>
<path d="M145.74 55.7382C146.429 55.629 146.601 56.9982 145.962 57.1158C145.324 57.2334 145.164 55.8348 145.74 55.7382Z" fill="#263238"/>
<path d="M146.021 55.7802C146.152 55.8432 146.286 55.965 146.441 55.9608C146.597 55.9566 146.723 55.797 146.815 55.6458C146.815 55.6458 146.815 55.6458 146.84 55.6458C146.878 55.9104 146.811 56.1918 146.53 56.2674C146.248 56.343 146.059 56.1246 145.963 55.8684C145.933 55.8306 145.967 55.755 146.021 55.7802Z" fill="#263238"/>
<path d="M143.06 56.28C143.06 56.28 143.027 56.3052 143.031 56.322C143.102 56.742 143.111 57.246 142.741 57.4392C142.741 57.4392 142.741 57.4686 142.741 57.4644C143.22 57.3258 143.195 56.6622 143.06 56.28Z" fill="#263238"/>
<path d="M142.619 55.86C141.922 55.902 142.052 57.288 142.695 57.2544C143.338 57.2208 143.22 55.86 142.619 55.86Z" fill="#263238"/>
<path d="M142.338 55.9902C142.233 56.0742 142.136 56.2212 142.006 56.2422C141.876 56.2632 141.729 56.1246 141.62 55.9902H141.599C141.599 56.2548 141.729 56.5236 141.989 56.553C142.25 56.5824 142.376 56.3346 142.409 56.0616C142.422 56.028 142.38 55.9566 142.338 55.9902Z" fill="#263238"/>
<path d="M145.811 59.5308C145.727 59.6484 145.647 59.8038 145.496 59.8416C145.338 59.8654 145.176 59.8554 145.021 59.8122C145.021 59.8122 144.996 59.8122 145.021 59.8374C145.096 59.9116 145.189 59.9638 145.292 59.9883C145.394 60.0127 145.501 60.0085 145.601 59.976C145.682 59.9401 145.752 59.8812 145.8 59.8066C145.849 59.7321 145.874 59.645 145.874 59.556C145.857 59.5182 145.824 59.514 145.811 59.5308Z" fill="#263238"/>
<path d="M143.841 58.1826C143.825 58.5002 143.825 58.8184 143.841 59.136C143.841 59.1612 143.917 59.1696 144.022 59.1612C144.287 59.179 144.551 59.1238 144.787 59.0016C145.022 58.8794 145.22 58.6949 145.358 58.4682C145.36 58.4616 145.36 58.4546 145.357 58.4481C145.355 58.4416 145.351 58.4359 145.346 58.4318C145.34 58.4276 145.334 58.4253 145.327 58.4251C145.32 58.4248 145.313 58.4267 145.307 58.4304C144.954 58.736 144.513 58.9201 144.047 58.9554C144.018 58.8756 144.114 57.8424 144.047 57.8424C143.816 57.891 143.592 57.9686 143.379 58.0734C143.379 56.7168 143.585 55.3728 143.56 54.0204C143.557 54.012 143.552 54.0047 143.545 53.9995C143.538 53.9943 143.529 53.9915 143.52 53.9915C143.511 53.9915 143.503 53.9943 143.496 53.9995C143.488 54.0047 143.483 54.012 143.48 54.0204C143.22 55.4584 143.105 56.9189 143.136 58.38C143.132 58.5438 143.728 58.2456 143.841 58.1826Z" fill="#263238"/>
<path d="M144.06 58.926C144.245 59.1691 144.489 59.3601 144.77 59.4804C144.924 59.5408 145.093 59.5511 145.253 59.5098C145.601 59.4174 145.614 59.0898 145.547 58.821C145.512 58.6754 145.459 58.5345 145.391 58.401C145.016 58.7146 144.549 58.8987 144.06 58.926Z" fill="#263238"/>
<path d="M144.749 59.4804C144.902 59.5408 145.071 59.5511 145.232 59.5098C145.58 59.4174 145.593 59.0898 145.526 58.821C145.342 58.8306 145.166 58.9003 145.026 59.0194C144.885 59.1386 144.788 59.3005 144.749 59.4804Z" fill="#FF9BBC"/>
<path d="M187.975 165.245C188.449 166.173 188.911 167.093 189.352 167.987C189.632 168.547 189.897 169.089 190.146 169.613C191.793 172.998 192.956 175.64 192.767 175.972C192.179 176.996 169.096 189.281 168.147 189.445C167.197 189.609 166.677 186.904 167.193 185.716C167.508 184.989 170.133 181.516 172.12 178.886C173.409 177.206 174.442 175.879 174.442 175.879L172.935 173.204L166.042 161.024L181.507 152.846C181.507 152.846 184.909 159.18 187.975 165.245Z" fill="#F7A9A0"/>
<path d="M168.147 189.445C169.096 189.286 192.183 176.992 192.767 175.967C192.96 175.64 191.793 172.998 190.146 169.609C190.033 169.369 189.911 169.126 189.789 168.878C186.824 170.663 176.639 179.327 171.662 181.058C169.881 181.679 171.54 179.638 171.54 179.638C169.642 182.129 167.479 185.044 167.193 185.699C166.677 186.9 167.198 189.601 168.147 189.445Z" fill="#263238"/>
<path d="M169.621 172.368C169.436 172.276 158.609 149.121 155.883 140.503C152.342 129.305 148.134 107.911 147.176 103.627C145.206 98.6926 143.868 93.5289 143.195 88.2588H163.922C163.922 88.2588 169.357 98.658 166.555 106.004C166.32 106.68 170.709 129.78 172.712 133.98C174.447 137.617 187.123 162.884 187.463 163.061L169.621 172.368Z" fill="#37474F"/>
<path d="M184.208 159.701C182.145 160.541 174.174 164.573 172.187 165.581L170.562 166.421C170.005 166.68 169.469 166.98 168.957 167.32C168.928 167.341 168.957 167.391 168.991 167.383C169.497 167.226 169.989 167.031 170.465 166.799C170.978 166.576 171.486 166.345 171.99 166.11C173.006 165.648 183.174 160.436 184.233 159.751C184.236 159.746 184.237 159.741 184.237 159.735C184.238 159.73 184.236 159.724 184.234 159.719C184.231 159.714 184.228 159.71 184.223 159.707C184.218 159.703 184.213 159.701 184.208 159.701Z" fill="#263238"/>
<path d="M171.032 165.215C169.285 161.293 160.919 140.855 159.449 136.349C157.979 131.842 156.765 127.331 155.61 122.774C154.434 118.154 153.329 113.492 152.2 108.847C151.057 104.135 149.936 99.4056 149.083 94.6344C148.974 94.0296 148.869 93.4248 148.764 92.82C148.764 92.778 148.684 92.7864 148.693 92.82C149.373 97.6374 150.305 102.417 151.368 107.163C152.431 111.909 153.577 116.558 154.749 121.237C155.891 125.824 157.105 130.393 158.529 134.904C159.953 139.415 170.36 164.724 170.974 165.245C171.007 165.283 171.053 165.257 171.032 165.215Z" fill="#263238"/>
<path d="M143.19 88.2588C143.866 93.5302 145.206 98.6951 147.176 103.631C147.899 106.869 150.486 119.897 153.233 130.901L163.917 88.2546C163.917 88.2546 143.19 88.2462 143.19 88.2588Z" fill="#263238"/>
<path d="M152.46 177.185C152.46 178.231 152.422 179.26 152.397 180.256C152.397 180.877 152.359 181.482 152.338 182.066C152.212 185.825 152.006 188.706 151.683 188.912C150.688 189.542 124.534 189.617 123.619 189.332C122.703 189.046 123.509 186.392 124.522 185.585C125.135 185.094 129.074 183.233 132.082 181.852C134.005 180.97 135.538 180.277 135.538 180.277L135.454 177.206L135.24 163.212H152.515C152.515 163.212 152.582 170.407 152.46 177.185Z" fill="#F7A9A0"/>
<path d="M155.547 106.802C155.547 106.802 153.775 123.602 152.947 132.077C152.737 134.177 152.594 135.778 152.527 136.462C152.527 136.731 152.494 141.124 152.485 146.87C152.485 151.91 153.745 175.237 153.745 175.237H134.14C134.14 175.237 134.98 138.961 135.274 134.866C135.311 134.392 135.341 133.9 135.374 133.4C136.147 121.808 136.571 104.933 142.258 88.2588H163.951C163.951 88.2588 164.485 97.9188 160.028 105C160.02 105 156.841 106.075 155.547 106.802Z" fill="#37474F"/>
<path d="M152.284 170.999C150.058 170.86 141.133 170.999 138.902 171.028L137.075 171.07C136.46 171.059 135.845 171.094 135.236 171.175C135.198 171.175 135.202 171.242 135.236 171.247C135.758 171.327 136.286 171.368 136.815 171.368C137.375 171.391 137.935 171.408 138.495 171.419C139.608 171.444 151.032 171.213 152.284 171.062C152.326 171.053 152.326 170.999 152.284 170.999Z" fill="#263238"/>
<path d="M144.942 90.6234C143.477 95.5297 142.277 100.511 141.346 105.546C140.422 110.548 139.7 115.588 139.15 120.645C138.591 125.773 138.205 130.918 137.944 136.067C137.684 141.217 137.571 146.349 137.562 151.494C137.554 156.639 137.491 169.365 137.529 170.008C137.529 170.05 137.596 170.05 137.596 170.008C137.625 164.892 137.986 158.613 137.995 153.497C138.003 148.382 138.1 143.207 138.31 138.067C138.52 132.926 138.847 127.861 139.347 122.779C139.847 117.697 140.523 112.543 141.409 107.47C142.296 102.396 143.337 97.461 144.551 92.5176C144.706 91.8918 144.866 91.2576 145.03 90.6444C145.03 90.6337 145.027 90.6232 145.02 90.6146C145.014 90.6061 145.005 90.6001 144.994 90.5976C144.984 90.5951 144.973 90.5963 144.963 90.6011C144.954 90.6058 144.946 90.6136 144.942 90.6234Z" fill="#263238"/>
<path d="M162.367 104.038C161.794 104.575 161.083 104.945 160.314 105.105C159.499 105.315 158.663 105.441 157.84 105.596C156.012 105.978 154.157 106.218 152.292 106.315C151.232 106.379 150.169 106.296 149.133 106.067C149.127 106.069 149.121 106.073 149.117 106.079C149.113 106.085 149.111 106.091 149.111 106.098C149.111 106.105 149.113 106.112 149.117 106.117C149.121 106.123 149.127 106.127 149.133 106.13C150.042 106.418 150.978 106.611 151.926 106.705C152.887 106.777 153.852 106.751 154.807 106.625C155.778 106.508 156.744 106.319 157.701 106.117C158.567 105.949 159.421 105.727 160.259 105.454C161.093 105.205 161.842 104.73 162.422 104.08C162.435 104.051 162.393 104.009 162.367 104.038Z" fill="#263238"/>
<path d="M123.623 189.319C124.542 189.617 150.687 189.542 151.687 188.899C152.01 188.698 152.216 185.816 152.342 182.057C152.342 181.52 152.38 180.97 152.393 180.403C149.175 180.789 135.332 183.817 129.402 183.817C127.961 183.817 130.242 182.834 129.969 182.809C127.487 183.977 125.004 185.182 124.509 185.564C123.513 186.383 122.711 189 123.623 189.319Z" fill="#263238"/>
<path d="M142.443 82.2066L140.645 91.8666C140.645 91.8666 161.977 92.1648 166.987 91.812C166.987 91.812 161.75 71.4084 156.361 65.5578C153.669 62.6178 150.481 62.8488 148.486 64.8942C147.978 65.415 141.888 73.458 141.25 76.5324C140.7 79.2246 142.443 82.2066 142.443 82.2066Z" fill="#DBDBDB"/>
<path d="M144.593 71.0052C144.592 71.1229 144.545 71.2355 144.462 71.3188C144.378 71.402 144.266 71.4493 144.148 71.4504C144.043 71.4512 143.941 71.4122 143.862 71.3412C144.018 71.0934 144.177 70.8498 144.337 70.602C144.414 70.6379 144.478 70.6949 144.524 70.7663C144.569 70.8377 144.593 70.9206 144.593 71.0052ZM149.574 70.56C149.486 70.56 149.4 70.5861 149.327 70.635C149.254 70.6839 149.197 70.7535 149.163 70.8348C149.129 70.9162 149.121 71.0057 149.138 71.0921C149.155 71.1784 149.197 71.2577 149.26 71.32C149.322 71.3823 149.401 71.4247 149.488 71.4418C149.574 71.459 149.663 71.4502 149.745 71.4165C149.826 71.3828 149.896 71.3258 149.945 71.2525C149.994 71.1793 150.02 71.0932 150.02 71.0052C150.02 70.9466 150.009 70.8884 149.987 70.8342C149.965 70.7799 149.932 70.7306 149.89 70.6891C149.849 70.6477 149.8 70.6149 149.745 70.5927C149.691 70.5706 149.633 70.5594 149.574 70.56ZM155.001 70.56C154.913 70.56 154.827 70.5861 154.754 70.635C154.68 70.6839 154.623 70.7535 154.59 70.8348C154.556 70.9162 154.547 71.0057 154.564 71.0921C154.581 71.1784 154.624 71.2577 154.686 71.32C154.748 71.3823 154.828 71.4247 154.914 71.4418C155 71.459 155.09 71.4502 155.171 71.4165C155.253 71.3828 155.322 71.3258 155.371 71.2525C155.42 71.1793 155.446 71.0932 155.446 71.0052C155.446 70.8871 155.399 70.7739 155.316 70.6904C155.232 70.6069 155.119 70.56 155.001 70.56ZM147.05 66.7254L146.534 67.431C146.578 67.479 146.633 67.5165 146.694 67.5409C146.755 67.5653 146.82 67.576 146.886 67.5721C146.951 67.5683 147.015 67.55 147.073 67.5186C147.13 67.4873 147.18 67.4436 147.219 67.3907C147.257 67.3378 147.284 67.277 147.297 67.2126C147.309 67.1483 147.307 67.0819 147.291 67.0184C147.275 66.9548 147.245 66.8956 147.203 66.845C147.162 66.7943 147.109 66.7535 147.05 66.7254ZM152.288 66.6834C152.2 66.6834 152.114 66.7095 152.04 66.7584C151.967 66.8073 151.91 66.8769 151.876 66.9582C151.843 67.0396 151.834 67.1291 151.851 67.2154C151.868 67.3018 151.911 67.3811 151.973 67.4434C152.035 67.5057 152.114 67.5481 152.201 67.5652C152.287 67.5824 152.377 67.5736 152.458 67.5399C152.539 67.5062 152.609 67.4491 152.658 67.3759C152.707 67.3027 152.733 67.2167 152.733 67.1286C152.733 67.07 152.722 67.0118 152.7 66.9576C152.678 66.9033 152.645 66.854 152.604 66.8125C152.562 66.7711 152.513 66.7383 152.459 66.7161C152.404 66.694 152.346 66.6828 152.288 66.6834ZM157.391 66.8262C157.351 66.8659 157.32 66.9132 157.299 66.9651C157.278 67.017 157.268 67.0726 157.269 67.1286C157.27 67.2463 157.317 67.3589 157.4 67.4422C157.484 67.5254 157.596 67.5727 157.714 67.5738C157.769 67.5745 157.823 67.5645 157.874 67.5444C157.714 67.2966 157.55 67.053 157.391 66.8262ZM144.148 78.3468C144.03 78.3468 143.917 78.3937 143.833 78.4772C143.75 78.5607 143.703 78.6739 143.703 78.792C143.703 78.9101 143.75 79.0233 143.833 79.1068C143.917 79.1903 144.03 79.2372 144.148 79.2372C144.266 79.2372 144.379 79.1903 144.463 79.1068C144.546 79.0233 144.593 78.9101 144.593 78.792C144.593 78.6739 144.546 78.5607 144.463 78.4772C144.379 78.3937 144.266 78.3468 144.148 78.3468ZM149.574 78.3468C149.486 78.3468 149.4 78.3729 149.327 78.4218C149.254 78.4707 149.197 78.5403 149.163 78.6216C149.129 78.703 149.121 78.7925 149.138 78.8789C149.155 78.9652 149.197 79.0445 149.26 79.1068C149.322 79.1691 149.401 79.2115 149.488 79.2286C149.574 79.2458 149.663 79.237 149.745 79.2033C149.826 79.1696 149.896 79.1126 149.945 79.0393C149.994 78.9661 150.02 78.8801 150.02 78.792C150.02 78.7334 150.009 78.6752 149.987 78.621C149.965 78.5667 149.932 78.5174 149.89 78.4759C149.849 78.4345 149.8 78.4017 149.745 78.3795C149.691 78.3574 149.633 78.3462 149.574 78.3468ZM155.001 78.3468C154.913 78.3468 154.827 78.3729 154.754 78.4218C154.68 78.4707 154.623 78.5403 154.59 78.6216C154.556 78.703 154.547 78.7925 154.564 78.8789C154.581 78.9652 154.624 79.0445 154.686 79.1068C154.748 79.1691 154.828 79.2115 154.914 79.2286C155 79.2458 155.09 79.237 155.171 79.2033C155.253 79.1696 155.322 79.1126 155.371 79.0393C155.42 78.9661 155.446 78.8801 155.446 78.792C155.446 78.6739 155.399 78.5607 155.316 78.4772C155.232 78.3937 155.119 78.3468 155.001 78.3468ZM160.427 78.3468C160.339 78.3443 160.251 78.3683 160.177 78.4156C160.102 78.463 160.043 78.5316 160.007 78.6127C159.971 78.6938 159.961 78.7837 159.977 78.8709C159.992 78.958 160.034 79.0385 160.095 79.1021C160.157 79.1656 160.236 79.2093 160.323 79.2275C160.41 79.2457 160.5 79.2377 160.582 79.2044C160.664 79.1711 160.734 79.1141 160.784 79.0406C160.833 78.9671 160.86 78.8806 160.86 78.792C160.86 78.6782 160.817 78.5686 160.738 78.4858C160.66 78.403 160.553 78.3532 160.44 78.3468H160.427ZM141.872 74.8272C141.796 74.9868 141.725 75.1464 141.662 75.2976C141.728 75.2577 141.782 75.2016 141.82 75.1348C141.859 75.0679 141.879 74.9924 141.88 74.9154C141.88 74.8858 141.877 74.8563 141.872 74.8272ZM146.861 74.4702C146.743 74.4702 146.63 74.5171 146.546 74.6006C146.463 74.6841 146.416 74.7973 146.416 74.9154C146.416 75.0335 146.463 75.1467 146.546 75.2302C146.63 75.3137 146.743 75.3606 146.861 75.3606C146.979 75.3606 147.093 75.3137 147.176 75.2302C147.26 75.1467 147.306 75.0335 147.306 74.9154C147.306 74.7973 147.26 74.6841 147.176 74.6006C147.093 74.5171 146.979 74.4702 146.861 74.4702ZM152.288 74.4702C152.2 74.4702 152.114 74.4963 152.04 74.5452C151.967 74.5941 151.91 74.6637 151.876 74.745C151.843 74.8264 151.834 74.9159 151.851 75.0023C151.868 75.0886 151.911 75.1679 151.973 75.2302C152.035 75.2925 152.114 75.3349 152.201 75.352C152.287 75.3692 152.377 75.3604 152.458 75.3267C152.539 75.293 152.609 75.236 152.658 75.1627C152.707 75.0895 152.733 75.0034 152.733 74.9154C152.733 74.8568 152.722 74.7986 152.7 74.7444C152.678 74.6901 152.645 74.6408 152.604 74.5993C152.562 74.5579 152.513 74.5251 152.459 74.5029C152.404 74.4808 152.346 74.4696 152.288 74.4702ZM157.714 74.4702C157.626 74.4702 157.54 74.4963 157.467 74.5452C157.393 74.5941 157.336 74.6637 157.303 74.745C157.269 74.8264 157.26 74.9159 157.277 75.0023C157.295 75.0886 157.337 75.1679 157.399 75.2302C157.462 75.2925 157.541 75.3349 157.627 75.352C157.714 75.3692 157.803 75.3604 157.884 75.3267C157.966 75.293 158.035 75.236 158.084 75.1627C158.133 75.0895 158.159 75.0034 158.159 74.9154C158.159 74.8569 158.148 74.799 158.125 74.745C158.103 74.691 158.07 74.6419 158.029 74.6006C157.988 74.5593 157.938 74.5265 157.884 74.5041C157.83 74.4817 157.773 74.4702 157.714 74.4702ZM144.148 86.1336C144.06 86.1336 143.974 86.1597 143.901 86.2086C143.827 86.2575 143.77 86.3271 143.737 86.4084C143.703 86.4898 143.694 86.5793 143.711 86.6657C143.729 86.752 143.771 86.8313 143.833 86.8936C143.896 86.9559 143.975 86.9983 144.061 87.0154C144.148 87.0326 144.237 87.0238 144.318 86.9901C144.4 86.9564 144.469 86.8993 144.518 86.8261C144.567 86.7529 144.593 86.6669 144.593 86.5788C144.594 86.5202 144.583 86.462 144.561 86.4078C144.538 86.3535 144.506 86.3042 144.464 86.2627C144.423 86.2213 144.373 86.1885 144.319 86.1663C144.265 86.1442 144.207 86.133 144.148 86.1336ZM149.574 86.1336C149.486 86.1336 149.4 86.1597 149.327 86.2086C149.254 86.2575 149.197 86.3271 149.163 86.4084C149.129 86.4898 149.121 86.5793 149.138 86.6657C149.155 86.752 149.197 86.8313 149.26 86.8936C149.322 86.9559 149.401 86.9983 149.488 87.0154C149.574 87.0326 149.663 87.0238 149.745 86.9901C149.826 86.9564 149.896 86.8993 149.945 86.8261C149.994 86.7529 150.02 86.6669 150.02 86.5788C150.02 86.5202 150.009 86.462 149.987 86.4078C149.965 86.3535 149.932 86.3042 149.89 86.2627C149.849 86.2213 149.8 86.1885 149.745 86.1663C149.691 86.1442 149.633 86.133 149.574 86.1336ZM155.001 86.1336C154.913 86.1336 154.827 86.1597 154.754 86.2086C154.68 86.2575 154.623 86.3271 154.59 86.4084C154.556 86.4898 154.547 86.5793 154.564 86.6657C154.581 86.752 154.624 86.8313 154.686 86.8936C154.748 86.9559 154.828 86.9983 154.914 87.0154C155 87.0326 155.09 87.0238 155.171 86.9901C155.253 86.9564 155.322 86.8993 155.371 86.8261C155.42 86.7529 155.446 86.6669 155.446 86.5788C155.446 86.5203 155.435 86.4624 155.412 86.4084C155.39 86.3544 155.357 86.3053 155.316 86.264C155.274 86.2227 155.225 86.1899 155.171 86.1675C155.117 86.1451 155.059 86.1336 155.001 86.1336ZM160.427 86.1336C160.339 86.1336 160.253 86.1597 160.18 86.2086C160.107 86.2575 160.05 86.3271 160.016 86.4084C159.982 86.4898 159.973 86.5793 159.991 86.6657C160.008 86.752 160.05 86.8313 160.112 86.8936C160.175 86.9559 160.254 86.9983 160.34 87.0154C160.427 87.0326 160.516 87.0238 160.598 86.9901C160.679 86.9564 160.748 86.8993 160.797 86.8261C160.846 86.7529 160.872 86.6669 160.872 86.5788C160.872 86.4629 160.827 86.3515 160.747 86.2684C160.666 86.1852 160.556 86.1369 160.44 86.1336H160.427ZM165.467 86.3772C165.434 86.4391 165.416 86.5084 165.417 86.5788C165.415 86.6569 165.434 86.7341 165.474 86.8016C165.513 86.8691 165.57 86.9243 165.639 86.961L165.467 86.3772ZM146.87 82.257C146.782 82.257 146.696 82.2831 146.622 82.332C146.549 82.3809 146.492 82.4505 146.458 82.5318C146.425 82.6132 146.416 82.7027 146.433 82.7891C146.45 82.8754 146.493 82.9547 146.555 83.017C146.617 83.0793 146.696 83.1217 146.783 83.1388C146.869 83.156 146.959 83.1472 147.04 83.1135C147.121 83.0798 147.191 83.0228 147.24 82.9495C147.289 82.8763 147.315 82.7903 147.315 82.7022C147.315 82.6429 147.304 82.584 147.281 82.5292C147.259 82.4743 147.225 82.4247 147.183 82.3831C147.14 82.3415 147.09 82.3089 147.035 82.2873C146.98 82.2656 146.921 82.2553 146.861 82.257H146.87ZM152.296 82.257C152.208 82.257 152.122 82.2831 152.049 82.332C151.975 82.3809 151.918 82.4505 151.885 82.5318C151.851 82.6132 151.842 82.7027 151.859 82.7891C151.877 82.8754 151.919 82.9547 151.981 83.017C152.044 83.0793 152.123 83.1217 152.209 83.1388C152.296 83.156 152.385 83.1472 152.466 83.1135C152.548 83.0798 152.617 83.0228 152.666 82.9495C152.715 82.8763 152.741 82.7903 152.741 82.7022C152.742 82.6429 152.73 82.584 152.708 82.5292C152.685 82.4743 152.652 82.4247 152.609 82.3831C152.567 82.3415 152.517 82.3089 152.461 82.2873C152.406 82.2656 152.347 82.2553 152.288 82.257H152.296ZM157.722 82.257C157.634 82.257 157.548 82.2831 157.475 82.332C157.402 82.3809 157.345 82.4505 157.311 82.5318C157.277 82.6132 157.269 82.7027 157.286 82.7891C157.303 82.8754 157.345 82.9547 157.408 83.017C157.47 83.0793 157.549 83.1217 157.636 83.1388C157.722 83.156 157.811 83.1472 157.893 83.1135C157.974 83.0798 158.044 83.0228 158.093 82.9495C158.142 82.8763 158.168 82.7903 158.168 82.7022C158.168 82.643 158.156 82.5844 158.133 82.5299C158.11 82.4753 158.077 82.4258 158.034 82.3844C157.992 82.3429 157.942 82.3103 157.887 82.2884C157.832 82.2666 157.773 82.2559 157.714 82.257H157.722ZM163.149 82.257C163.061 82.257 162.975 82.2831 162.902 82.332C162.828 82.3809 162.771 82.4505 162.738 82.5318C162.704 82.6132 162.695 82.7027 162.712 82.7891C162.729 82.8754 162.772 82.9547 162.834 83.017C162.896 83.0793 162.976 83.1217 163.062 83.1388C163.148 83.156 163.238 83.1472 163.319 83.1135C163.401 83.0798 163.47 83.0228 163.519 82.9495C163.568 82.8763 163.594 82.7903 163.594 82.7022C163.594 82.643 163.582 82.5844 163.559 82.5299C163.536 82.4753 163.503 82.4258 163.461 82.3844C163.418 82.3429 163.368 82.3103 163.313 82.2884C163.258 82.2666 163.2 82.2559 163.14 82.257H163.149ZM141.443 90.0438C141.355 90.0438 141.269 90.0699 141.196 90.1188C141.123 90.1678 141.066 90.2373 141.032 90.3186C140.998 90.4 140.989 90.4895 141.007 90.5759C141.024 90.6622 141.066 90.7415 141.128 90.8038C141.191 90.8661 141.27 90.9085 141.356 90.9256C141.443 90.9428 141.532 90.934 141.614 90.9003C141.695 90.8666 141.764 90.8096 141.813 90.7363C141.862 90.6631 141.888 90.5771 141.888 90.489C141.888 90.4298 141.877 90.3712 141.854 90.3167C141.831 90.2621 141.797 90.2126 141.755 90.1712C141.713 90.1297 141.663 90.0971 141.608 90.0752C141.553 90.0534 141.494 90.0427 141.435 90.0438H141.443ZM146.87 90.0438C146.782 90.0438 146.696 90.0699 146.622 90.1188C146.549 90.1678 146.492 90.2373 146.458 90.3186C146.425 90.4 146.416 90.4895 146.433 90.5759C146.45 90.6622 146.493 90.7415 146.555 90.8038C146.617 90.8661 146.696 90.9085 146.783 90.9256C146.869 90.9428 146.959 90.934 147.04 90.9003C147.121 90.8666 147.191 90.8096 147.24 90.7363C147.289 90.6631 147.315 90.5771 147.315 90.489C147.315 90.4298 147.303 90.3712 147.28 90.3167C147.257 90.2621 147.224 90.2126 147.181 90.1712C147.139 90.1297 147.089 90.0971 147.034 90.0752C146.979 90.0534 146.92 90.0427 146.861 90.0438H146.87ZM152.296 90.0438C152.208 90.0438 152.122 90.0699 152.049 90.1188C151.975 90.1678 151.918 90.2373 151.885 90.3186C151.851 90.4 151.842 90.4895 151.859 90.5759C151.877 90.6622 151.919 90.7415 151.981 90.8038C152.044 90.8661 152.123 90.9085 152.209 90.9256C152.296 90.9428 152.385 90.934 152.466 90.9003C152.548 90.8666 152.617 90.8096 152.666 90.7363C152.715 90.6631 152.741 90.5771 152.741 90.489C152.741 90.4298 152.729 90.3712 152.707 90.3167C152.684 90.2621 152.65 90.2126 152.608 90.1712C152.566 90.1297 152.516 90.0971 152.461 90.0752C152.406 90.0534 152.347 90.0427 152.288 90.0438H152.296ZM157.722 90.0438C157.604 90.0438 157.491 90.0907 157.408 90.1742C157.324 90.2577 157.277 90.3709 157.277 90.489C157.277 90.6071 157.324 90.7203 157.408 90.8038C157.491 90.8873 157.604 90.9342 157.722 90.9342C157.841 90.9342 157.954 90.8873 158.037 90.8038C158.121 90.7203 158.168 90.6071 158.168 90.489C158.168 90.3709 158.121 90.2577 158.037 90.1742C157.954 90.0907 157.841 90.0438 157.722 90.0438ZM163.149 90.0438C163.031 90.0438 162.918 90.0907 162.834 90.1742C162.751 90.2577 162.704 90.3709 162.704 90.489C162.704 90.6071 162.751 90.7203 162.834 90.8038C162.918 90.8873 163.031 90.9342 163.149 90.9342C163.267 90.9342 163.38 90.8873 163.464 90.8038C163.547 90.7203 163.594 90.6071 163.594 90.489C163.594 90.3709 163.547 90.2577 163.464 90.1742C163.38 90.0907 163.267 90.0438 163.149 90.0438Z" fill="white"/>
<path d="M160.326 72.0342C160.839 73.1598 161.326 74.2896 161.801 75.432C161.725 75.0876 161.641 74.7432 161.544 74.4072C161.544 74.3568 161.607 74.34 161.624 74.4072C161.809 74.9078 161.938 75.4276 162.006 75.957C163.519 79.6572 164.811 83.4438 165.875 87.297C166.076 88.0236 166.295 88.7544 166.446 89.4894C166.597 90.2244 166.866 91.014 166.95 91.791C166.95 91.7999 166.946 91.8084 166.94 91.8147C166.934 91.821 166.925 91.8246 166.916 91.8246C166.907 91.8246 166.899 91.821 166.892 91.8147C166.886 91.8084 166.883 91.7999 166.883 91.791C166.635 91.1484 166.463 90.4596 166.278 89.796C166.093 89.1324 165.904 88.536 165.711 87.8808C165.32 86.5788 164.93 85.2768 164.522 83.979C163.716 81.4128 162.842 78.8802 161.922 76.3476C161.406 74.8986 160.835 73.4706 160.276 72.0384C160.263 72.0258 160.314 72.0048 160.326 72.0342Z" fill="#263238"/>
<path d="M150.469 68.6112C149.159 71.5134 142.254 83.1852 138.495 84.4452C132.615 86.4234 125.387 85.1634 121.577 84.8148C119.452 84.6174 121.552 71.8326 123.824 72.5886C126.936 73.6218 134.505 74.6004 135.626 74.5668C136.748 74.5332 142.17 69.048 146.324 65.8014C150.175 62.7942 152.636 63.8064 150.469 68.6112Z" fill="#F7A9A0"/>
<path d="M105 71.7192C104.844 73.5798 111.35 73.8402 111.35 73.8402C110.813 74.1137 110.39 74.5671 110.153 75.1212C109.779 76.1166 111.178 77.1372 111.178 77.1372C110.682 77.5391 110.318 78.0804 110.132 78.6912C109.872 79.6824 111.136 80.9088 111.136 80.9088C110.884 81.5305 110.863 82.2218 111.077 82.8576C111.716 84.5376 114.404 85.0584 116.117 85.407C117.831 85.7556 122.883 85.3356 124.143 85.0794L126.512 73.5924C123.557 72.0185 120.37 70.9241 117.071 70.35C115.361 70.0686 105.197 69.615 105 71.7192Z" fill="#F7A9A0"/>
<path d="M111.481 73.6806C113.354 73.353 115.227 73.5966 117.104 73.7352C117.11 73.7333 117.115 73.7327 117.12 73.7334C117.126 73.734 117.131 73.736 117.135 73.7391C117.14 73.7422 117.143 73.7463 117.146 73.7511C117.148 73.7559 117.15 73.7613 117.15 73.7667C117.15 73.7721 117.148 73.7774 117.146 73.7823C117.143 73.7871 117.14 73.7912 117.135 73.7943C117.131 73.7974 117.126 73.7993 117.12 73.8C117.115 73.8007 117.11 73.8001 117.104 73.7982C115.235 73.6428 113.362 73.857 111.489 73.7688C111.434 73.7688 111.43 73.689 111.481 73.6806Z" fill="#263238"/>
<path d="M111.262 77.0028C111.696 76.9678 112.132 76.9918 112.56 77.0742C113.013 77.1288 113.471 77.1918 113.925 77.2632C114.832 77.4102 115.739 77.5698 116.638 77.763C116.68 77.763 116.676 77.8344 116.638 77.826C115.731 77.6874 114.823 77.5572 113.912 77.4564C113.454 77.406 113.001 77.3556 112.543 77.3136C112.109 77.2986 111.678 77.2367 111.258 77.1288C111.245 77.1236 111.234 77.1146 111.227 77.1031C111.219 77.0916 111.215 77.0781 111.216 77.0643C111.216 77.0506 111.221 77.0373 111.229 77.0263C111.237 77.0153 111.249 77.0071 111.262 77.0028Z" fill="#263238"/>
<path d="M111.19 80.9172C111.583 80.8899 111.977 80.9326 112.354 81.0432L113.614 81.2574C114.454 81.396 115.269 81.5304 116.1 81.6396C116.138 81.6396 116.134 81.711 116.1 81.7068C115.26 81.5976 114.42 81.5052 113.58 81.3918L112.32 81.2154C111.936 81.1972 111.559 81.1089 111.207 80.955L111.19 80.9172Z" fill="#263238"/>
<path d="M126.815 72.933L125.794 86.9106C125.794 86.9106 137.68 86.1042 139.562 84.7434C141.804 83.1222 149.44 72.492 151.217 68.1996C152.993 63.9072 150.624 62.4624 146.912 65.2596C143.199 68.0568 136.596 73.563 136.08 73.8234C135.563 74.0838 126.815 72.933 126.815 72.933Z" fill="#DBDBDB"/>
<path d="M144.593 71.0052C144.593 71.1233 144.546 71.2365 144.463 71.32C144.379 71.4035 144.266 71.4504 144.148 71.4504C144.03 71.4504 143.917 71.4035 143.833 71.32C143.75 71.2365 143.703 71.1233 143.703 71.0052C143.703 70.8871 143.75 70.7739 143.833 70.6904C143.917 70.6069 144.03 70.56 144.148 70.56C144.266 70.56 144.379 70.6069 144.463 70.6904C144.546 70.7739 144.593 70.8871 144.593 71.0052ZM149.574 70.56C149.462 70.5615 149.355 70.6054 149.273 70.6829C149.192 70.7604 149.143 70.8657 149.136 70.9778C149.129 71.0898 149.165 71.2004 149.236 71.2872C149.307 71.3741 149.409 71.4309 149.52 71.4462L149.94 70.7364C149.899 70.6785 149.844 70.632 149.78 70.6011C149.716 70.5703 149.645 70.5561 149.574 70.56ZM146.861 66.6834C146.743 66.6834 146.63 66.7303 146.546 66.8138C146.463 66.8973 146.416 67.0105 146.416 67.1286C146.416 67.2467 146.463 67.3599 146.546 67.4434C146.63 67.5269 146.743 67.5738 146.861 67.5738C146.979 67.5738 147.093 67.5269 147.176 67.4434C147.26 67.3599 147.306 67.2467 147.306 67.1286C147.306 67.0105 147.26 66.8973 147.176 66.8138C147.093 66.7303 146.979 66.6834 146.861 66.6834ZM127.869 78.3468C127.781 78.3468 127.695 78.3729 127.621 78.4218C127.548 78.4707 127.491 78.5403 127.458 78.6216C127.424 78.703 127.415 78.7925 127.432 78.8788C127.449 78.9652 127.492 79.0445 127.554 79.1068C127.616 79.1691 127.696 79.2115 127.782 79.2286C127.868 79.2458 127.958 79.237 128.039 79.2033C128.121 79.1696 128.19 79.1125 128.239 79.0393C128.288 78.9661 128.314 78.88 128.314 78.792C128.314 78.7335 128.303 78.6756 128.28 78.6216C128.258 78.5676 128.225 78.5185 128.184 78.4772C128.142 78.4358 128.093 78.4031 128.039 78.3807C127.985 78.3583 127.927 78.3468 127.869 78.3468ZM133.295 78.3468C133.177 78.3468 133.064 78.3937 132.98 78.4772C132.897 78.5607 132.85 78.6739 132.85 78.792C132.85 78.9101 132.897 79.0233 132.98 79.1068C133.064 79.1903 133.177 79.2372 133.295 79.2372C133.413 79.2372 133.527 79.1903 133.61 79.1068C133.694 79.0233 133.74 78.9101 133.74 78.792C133.74 78.6739 133.694 78.5607 133.61 78.4772C133.527 78.3937 133.413 78.3468 133.295 78.3468ZM138.722 78.3468C138.604 78.3468 138.49 78.3937 138.407 78.4772C138.323 78.5607 138.276 78.6739 138.276 78.792C138.276 78.9101 138.323 79.0233 138.407 79.1068C138.49 79.1903 138.604 79.2372 138.722 79.2372C138.84 79.2372 138.953 79.1903 139.036 79.1068C139.12 79.0233 139.167 78.9101 139.167 78.792C139.167 78.6739 139.12 78.5607 139.036 78.4772C138.953 78.3937 138.84 78.3468 138.722 78.3468ZM144.148 78.3468C144.03 78.3468 143.917 78.3937 143.833 78.4772C143.75 78.5607 143.703 78.6739 143.703 78.792C143.703 78.9101 143.75 79.0233 143.833 79.1068C143.917 79.1903 144.03 79.2372 144.148 79.2372C144.266 79.2372 144.379 79.1903 144.463 79.1068C144.546 79.0233 144.593 78.9101 144.593 78.792C144.593 78.6739 144.546 78.5607 144.463 78.4772C144.379 78.3937 144.266 78.3468 144.148 78.3468ZM130.582 74.4702C130.464 74.4702 130.351 74.5171 130.267 74.6006C130.184 74.6841 130.137 74.7973 130.137 74.9154C130.137 75.0335 130.184 75.1467 130.267 75.2302C130.351 75.3137 130.464 75.3606 130.582 75.3606C130.7 75.3606 130.813 75.3137 130.897 75.2302C130.98 75.1467 131.027 75.0335 131.027 74.9154C131.027 74.7973 130.98 74.6841 130.897 74.6006C130.813 74.5171 130.7 74.4702 130.582 74.4702ZM136.008 74.4702C135.89 74.4702 135.777 74.5171 135.694 74.6006C135.61 74.6841 135.563 74.7973 135.563 74.9154C135.563 75.0335 135.61 75.1467 135.694 75.2302C135.777 75.3137 135.89 75.3606 136.008 75.3606C136.127 75.3606 136.24 75.3137 136.323 75.2302C136.407 75.1467 136.454 75.0335 136.454 74.9154C136.454 74.7973 136.407 74.6841 136.323 74.6006C136.24 74.5171 136.127 74.4702 136.008 74.4702ZM141.435 74.4702C141.317 74.4702 141.204 74.5171 141.12 74.6006C141.037 74.6841 140.99 74.7973 140.99 74.9154C140.99 75.0335 141.037 75.1467 141.12 75.2302C141.204 75.3137 141.317 75.3606 141.435 75.3606C141.553 75.3606 141.666 75.3137 141.75 75.2302C141.833 75.1467 141.88 75.0335 141.88 74.9154C141.88 74.7973 141.833 74.6841 141.75 74.6006C141.666 74.5171 141.553 74.4702 141.435 74.4702ZM146.861 74.4702C146.743 74.4702 146.63 74.5171 146.546 74.6006C146.463 74.6841 146.416 74.7973 146.416 74.9154C146.416 75.0335 146.463 75.1467 146.546 75.2302C146.63 75.3137 146.743 75.3606 146.861 75.3606C146.979 75.3606 147.093 75.3137 147.176 75.2302C147.26 75.1467 147.306 75.0335 147.306 74.9154C147.306 74.7973 147.26 74.6841 147.176 74.6006C147.093 74.5171 146.979 74.4702 146.861 74.4702ZM127.869 86.1336C127.81 86.133 127.752 86.1441 127.697 86.1663C127.643 86.1884 127.593 86.2211 127.551 86.2625C127.51 86.3039 127.476 86.3532 127.454 86.4074C127.431 86.4617 127.419 86.52 127.419 86.5788C127.419 86.6492 127.436 86.7185 127.47 86.7804L128.31 86.7132C128.323 86.6696 128.33 86.6244 128.331 86.5788C128.331 86.5189 128.319 86.4596 128.295 86.4045C128.272 86.3493 128.238 86.2995 128.195 86.2579C128.151 86.2163 128.1 86.1839 128.044 86.1625C127.988 86.1412 127.929 86.1313 127.869 86.1336ZM133.295 86.1336C133.21 86.1326 133.127 86.1575 133.056 86.205L133.434 86.1588C133.39 86.1416 133.343 86.133 133.295 86.1336ZM130.582 82.257C130.494 82.257 130.408 82.2831 130.335 82.332C130.261 82.3809 130.204 82.4505 130.171 82.5318C130.137 82.6132 130.128 82.7027 130.145 82.789C130.163 82.8754 130.205 82.9547 130.267 83.017C130.329 83.0793 130.409 83.1217 130.495 83.1388C130.582 83.156 130.671 83.1472 130.752 83.1135C130.834 83.0798 130.903 83.0227 130.952 82.9495C131.001 82.8763 131.027 82.7902 131.027 82.7022C131.028 82.6436 131.017 82.5854 130.994 82.5312C130.972 82.4769 130.94 82.4276 130.898 82.3861C130.857 82.3447 130.807 82.3119 130.753 82.2897C130.699 82.2676 130.641 82.2564 130.582 82.257ZM136.008 82.257C135.92 82.257 135.834 82.2831 135.761 82.332C135.688 82.3809 135.631 82.4505 135.597 82.5318C135.563 82.6132 135.555 82.7027 135.572 82.789C135.589 82.8754 135.631 82.9547 135.694 83.017C135.756 83.0793 135.835 83.1217 135.922 83.1388C136.008 83.156 136.097 83.1472 136.179 83.1135C136.26 83.0798 136.33 83.0227 136.379 82.9495C136.428 82.8763 136.454 82.7902 136.454 82.7022C136.454 82.6436 136.443 82.5854 136.421 82.5312C136.399 82.4769 136.366 82.4276 136.324 82.3861C136.283 82.3447 136.234 82.3119 136.179 82.2897C136.125 82.2676 136.067 82.2564 136.008 82.257ZM141.435 82.257C141.334 82.2551 141.236 82.2871 141.156 82.3479C141.077 82.4088 141.02 82.4948 140.995 82.5921C140.97 82.6894 140.979 82.7922 141.02 82.8839C141.061 82.9755 141.132 83.0506 141.221 83.097C141.401 82.8912 141.59 82.677 141.788 82.4376C141.748 82.3808 141.695 82.3346 141.634 82.3031C141.572 82.2716 141.504 82.2557 141.435 82.257Z" fill="white"/>
<path d="M142.258 81.858C142.384 81.6732 147.298 74.9574 148.462 73.0674C148.831 72.4542 149.218 71.8074 149.591 71.2362C149.617 71.2026 149.675 71.2362 149.654 71.2782C149.482 71.6562 149.339 71.9796 149.155 72.3114C149.062 72.471 148.974 72.6306 148.882 72.786C149.092 72.5676 149.302 72.366 149.537 72.1602C149.541 72.1552 149.548 72.1521 149.554 72.1517C149.561 72.1514 149.567 72.1536 149.573 72.1581C149.578 72.1625 149.581 72.1688 149.581 72.1755C149.581 72.1822 149.579 72.1888 149.575 72.1938C149.373 72.4416 149.176 72.6894 148.953 72.9204C148.852 73.0268 148.747 73.1276 148.638 73.2228L148.613 73.2732C146.747 76.3072 144.64 79.1864 142.313 81.8832C142.279 81.9252 142.233 81.9 142.258 81.858Z" fill="#263238"/>
<path d="M129.692 74.298C129.692 74.2602 129.751 74.2602 129.751 74.298C129.801 76.23 129.221 84.6888 129.016 85.785C129.016 85.8186 128.953 85.8144 128.953 85.785C129.066 81.7992 129.247 77.8638 129.692 74.298Z" fill="#263238"/>
<path d="M145.357 47.3256C144.937 47.565 141.997 47.8338 141.502 50.2068C141.124 52.0086 142.317 52.9788 144.001 53.1174C145.861 53.2686 147.903 52.0842 147.903 52.0842C148.323 53.9196 148.831 56.2842 149.524 56.5488C150.087 56.7714 150.742 55.9734 150.742 55.9734C151.435 57.4056 151.67 60.6438 151.502 61.341C151.111 62.9832 149.822 65.3982 151.947 67.1412C152.413 67.5234 154.219 68.1534 155.983 67.2756C157.747 66.3978 157.844 64.9194 158.478 64.3146C159.112 63.7098 161.208 63.4746 161.7 62.2146C162.191 60.9546 161.834 59.6106 162.04 58.9932C162.246 58.3758 163.086 58.1238 163.144 56.8596C163.203 55.5954 161.931 55.314 161.422 54.4404C161.065 53.8314 161.422 53.0082 160.608 52.1808C159.507 51.0426 157.962 51.996 156.769 50.8536C155.836 49.959 153.304 46.4436 149.982 46.0614C148.336 45.8835 146.684 46.3352 145.357 47.3256Z" fill="#263238"/>
<path d="M152.985 47.334C153.783 47.967 154.54 48.6517 155.249 49.3836C155.622 49.7238 155.979 50.0808 156.378 50.3874C156.566 50.5418 156.772 50.673 156.992 50.778C157.04 50.806 157.092 50.8258 157.147 50.8368C157.202 50.8526 157.258 50.8611 157.315 50.862C157.441 50.862 157.571 50.862 157.701 50.862C158.241 50.8411 158.78 50.8496 159.318 50.8872C159.87 50.9106 160.398 51.1142 160.822 51.4668C161.021 51.6531 161.166 51.8896 161.242 52.1514C161.305 52.4155 161.317 52.6893 161.276 52.9578C161.164 53.4666 161.173 53.9943 161.301 54.4992C161.106 54.0118 161.039 53.4825 161.108 52.962C161.132 52.7147 161.107 52.4651 161.036 52.227C160.95 52.0059 160.805 51.8127 160.616 51.6684C160.215 51.3773 159.738 51.2107 159.243 51.1896C158.73 51.1476 158.197 51.1896 157.655 51.1896C157.521 51.1896 157.382 51.1896 157.235 51.1896C157.089 51.1797 156.946 51.1397 156.815 51.072C156.575 50.9528 156.35 50.8032 156.147 50.6268C155.752 50.2991 155.379 49.9456 155.03 49.5684L154.005 48.4428C153.689 48.0518 153.348 47.6814 152.985 47.334Z" fill="#263238"/>
<path d="M162.359 58.4808C162.312 58.8348 162.336 59.1948 162.43 59.5392C162.489 59.8962 162.552 60.2532 162.594 60.6144C162.645 60.9817 162.657 61.3535 162.628 61.7232C162.607 62.1092 162.491 62.4841 162.292 62.8152C161.799 63.4033 161.101 63.7817 160.339 63.8736C159.978 63.945 159.621 63.9954 159.276 64.0752C158.921 64.1245 158.584 64.26 158.293 64.47C158.554 64.2082 158.878 64.0186 159.234 63.9198C159.583 63.8106 159.936 63.7308 160.28 63.6342C160.952 63.4452 161.649 63.1806 162.023 62.6388C162.196 62.3502 162.3 62.0252 162.325 61.6896C162.361 61.3394 162.37 60.9869 162.351 60.6354C162.351 60.2784 162.304 59.9214 162.275 59.5602C162.275 59.3796 162.275 59.199 162.275 59.0142C162.254 58.8321 162.283 58.6477 162.359 58.4808Z" fill="#263238"/>
<path d="M148.293 51.5928C147.946 51.9416 147.555 52.2437 147.13 52.4916C146.714 52.7405 146.268 52.9339 145.803 53.067C145.571 53.135 145.335 53.1883 145.097 53.2266L144.736 53.277L144.37 53.298C144.126 53.3106 143.88 53.3106 143.635 53.298C143.392 53.298 143.144 53.256 142.892 53.2476C143.131 53.3232 143.375 53.3904 143.619 53.445C143.868 53.4934 144.121 53.5229 144.375 53.5332C144.885 53.557 145.396 53.496 145.887 53.3526C146.379 53.2093 146.843 52.9835 147.26 52.6848C147.674 52.3936 148.025 52.0223 148.293 51.5928Z" fill="#263238"/>
<path d="M148.087 51.24C147.859 52.203 147.815 53.2006 147.957 54.18C148.023 54.6777 148.177 55.1598 148.411 55.6038C148.522 55.8302 148.677 56.0316 148.869 56.1955C149.06 56.3595 149.283 56.4826 149.524 56.5572C149.113 56.3152 148.795 55.9426 148.621 55.4988C148.44 55.0617 148.317 54.6028 148.255 54.1338C148.131 53.1743 148.075 52.2073 148.087 51.24Z" fill="#263238"/>
<path d="M150.179 56.5152C150.179 56.5152 151.317 54.3858 152.279 54.7638C153.241 55.1418 152.544 58.1238 151.544 58.6404C151.419 58.7147 151.281 58.7629 151.137 58.782C150.993 58.8011 150.846 58.7907 150.706 58.7514C150.566 58.7121 150.436 58.6448 150.323 58.5535C150.21 58.4622 150.117 58.3489 150.049 58.2204L150.179 56.5152Z" fill="#F7A9A0"/>
<path d="M152.04 55.6122C152.04 55.6122 152.065 55.6332 152.04 55.6416C151.338 56.028 151.036 56.7546 150.851 57.4938C150.886 57.4183 150.935 57.3508 150.998 57.2957C151.06 57.2406 151.133 57.1991 151.212 57.1738C151.291 57.1485 151.374 57.14 151.457 57.1488C151.539 57.1576 151.619 57.1836 151.691 57.225C151.712 57.225 151.691 57.2712 151.691 57.267C151.557 57.2424 151.418 57.2599 151.294 57.317C151.17 57.3742 151.067 57.4682 150.998 57.5862C150.886 57.7849 150.794 57.9946 150.725 58.212C150.7 58.2792 150.574 58.2582 150.591 58.1826V58.1616C150.49 57.2292 151.057 55.8306 152.04 55.6122Z" fill="#263238"/>
<path d="M108.599 91.2954L110.242 95.2644L108.599 95.9448L106.949 91.9464L104.231 94.0548V82.866L112.064 90.7788L108.599 91.2954Z" fill="#263238"/>
<path d="M105 79.9176C104.854 79.3484 104.783 78.7623 104.79 78.1746C104.78 77.5895 104.851 77.0058 105 76.44C105.15 77.0099 105.221 77.5979 105.21 78.1872C105.216 78.7707 105.145 79.3524 105 79.9176Z" fill="#263238"/>
<path d="M101.997 81.1608C101.49 80.8639 101.025 80.4994 100.615 80.0772C100.192 79.669 99.8273 79.2039 99.5317 78.6954C100.538 79.3095 101.383 80.1547 101.997 81.1608Z" fill="#263238"/>
<path d="M100.75 84.1638C99.6045 84.4438 98.4088 84.4438 97.2637 84.1638C98.4088 83.8838 99.6045 83.8838 100.75 84.1638Z" fill="#263238"/>
<path d="M101.997 87.171C101.383 88.1771 100.538 89.0223 99.5317 89.6364C99.8273 89.1279 100.192 88.6628 100.615 88.2546C101.025 87.8324 101.49 87.4679 101.997 87.171Z" fill="#263238"/>
<path d="M109.25 84.1638C110.396 83.8838 111.591 83.8838 112.736 84.1638C111.591 84.4438 110.396 84.4438 109.25 84.1638Z" fill="#263238"/>
<path d="M108.003 81.1608C108.301 80.6531 108.667 80.1882 109.091 79.779C109.499 79.3559 109.964 78.9912 110.473 78.6954C109.858 79.7029 109.011 80.5484 108.003 81.1608Z" fill="#263238"/>
<path d="M38.7783 148.756C41.4453 143.275 46.1115 140.461 51.3783 142.015C56.6451 143.569 57.4557 150.902 53.5287 152.754C49.6017 154.606 45.6747 149.201 43.6041 148.088C41.5335 146.975 38.7783 148.756 38.7783 148.756Z" fill="#FFC13E"/>
<path d="M36.1996 163.346C36.1996 162.687 36.2374 162.023 36.2584 161.364C36.3088 160.045 36.3508 158.726 36.4012 157.408C36.4894 154.993 36.7498 152.624 37.7494 150.402C38.6374 148.382 40.1201 146.681 41.9998 145.526C42.694 145.104 43.443 144.781 44.2258 144.564C44.9355 143.849 45.8369 143.354 46.8214 143.14C48.0385 142.893 49.2895 142.862 50.5174 143.048C50.5636 143.048 50.5636 143.123 50.5174 143.115C49.346 142.965 48.1565 143.051 47.0188 143.367C46.5315 143.502 46.0588 143.685 45.6076 143.913C45.3235 144.066 45.0512 144.24 44.7928 144.434C45.8535 144.213 46.9493 144.223 48.0058 144.463C48.3878 144.555 48.7614 144.679 49.123 144.833C49.4091 144.766 49.7033 144.741 49.9966 144.757C50.3807 144.768 50.7624 144.822 51.1348 144.917C51.8957 145.131 52.6235 145.449 53.2978 145.862C53.3031 145.868 53.3065 145.875 53.3075 145.883C53.3085 145.89 53.3071 145.898 53.3034 145.905C53.2997 145.912 53.2939 145.918 53.2869 145.921C53.2799 145.925 53.2719 145.926 53.2642 145.925C52.6048 145.562 51.8979 145.294 51.1642 145.127C50.8075 145.046 50.4453 144.993 50.0806 144.967C49.8791 144.957 49.6772 144.957 49.4758 144.967C50.9737 145.661 52.1785 146.861 52.8778 148.357C52.8778 148.399 52.8316 148.432 52.8148 148.39C52.3999 147.523 51.7947 146.76 51.0443 146.158C50.2938 145.557 49.4175 145.133 48.4804 144.917C48.367 144.887 48.2452 144.871 48.1276 144.85C48.1573 145.025 48.177 145.201 48.1864 145.379C48.22 145.648 48.2662 145.912 48.3208 146.177C48.4272 146.72 48.5675 147.256 48.7408 147.781C48.9169 148.313 49.1288 148.832 49.375 149.335C49.6122 149.868 49.9111 150.371 50.2654 150.835C50.2681 150.838 50.2702 150.842 50.2713 150.847C50.2725 150.851 50.2728 150.856 50.2722 150.86C50.2717 150.865 50.2702 150.869 50.2679 150.873C50.2657 150.877 50.2627 150.88 50.2591 150.883C50.2555 150.886 50.2514 150.888 50.247 150.889C50.2427 150.89 50.2381 150.89 50.2336 150.89C50.2291 150.889 50.2248 150.888 50.2209 150.885C50.217 150.883 50.2135 150.88 50.2108 150.877C49.8958 150.381 49.5262 149.927 49.2364 149.411C48.9604 148.92 48.7218 148.409 48.5224 147.882C48.3237 147.348 48.1678 146.799 48.0562 146.24C47.9974 145.942 47.9512 145.648 47.9176 145.345C47.8812 145.167 47.8699 144.985 47.884 144.803C47.2653 144.709 46.6369 144.696 46.015 144.766C46.2502 146.072 46.5022 147.437 47.233 148.571C47.2582 148.609 47.1952 148.642 47.1742 148.604C46.8307 148.002 46.5276 147.378 46.267 146.735C46.0276 146.11 45.8763 145.454 45.8176 144.787C44.7325 144.933 43.685 145.283 42.7306 145.82C40.9345 146.866 39.5002 148.435 38.6188 150.318C37.6928 152.346 37.1747 154.537 37.0942 156.765C36.922 159.566 36.8842 162.385 36.6028 165.165C36.6028 165.35 36.2962 165.409 36.2626 165.203C36.1818 164.587 36.1607 163.966 36.1996 163.346Z" fill="#263238"/>
<path d="M42.3614 145.085C42.5369 144.872 42.7404 144.684 42.9662 144.526C43.1846 144.346 43.4114 144.169 43.6424 144.01C44.1056 143.694 44.618 143.457 45.1586 143.308C45.2006 143.308 45.2216 143.367 45.1586 143.375C44.6146 143.514 44.1054 143.764 43.6634 144.11C43.4408 144.274 43.2434 144.451 43.0166 144.631C42.8365 144.825 42.6366 145 42.4202 145.152C42.3824 145.173 42.332 145.127 42.3614 145.085Z" fill="#263238"/>
<path d="M50.8704 147.071C51.3071 147.582 51.7111 148.119 52.08 148.68C52.4444 149.247 52.7485 149.851 52.9872 150.482C52.9872 150.482 52.9872 150.511 52.9578 150.482C52.3473 149.288 51.6259 148.155 50.8032 147.097C50.7948 147.084 50.8452 147.038 50.8704 147.071Z" fill="#263238"/>
<path d="M45.1331 146.53C45.191 146.872 45.2926 147.205 45.4355 147.521C45.5826 147.826 45.7525 148.119 45.9437 148.399C45.9437 148.42 45.9437 148.436 45.9143 148.424C45.4566 147.894 45.1646 147.241 45.0743 146.546C45.0617 146.504 45.1289 146.483 45.1331 146.53Z" fill="#263238"/>
<path d="M36.5694 148.89C36.5694 148.89 32.7894 144.144 25.5065 145.828C18.5807 147.424 15.3804 160.129 22.3818 161.645C29.3832 163.162 28.1399 151.414 30.6977 149.419C32.5709 147.953 35.28 148.26 36.5694 148.89Z" fill="#FFC13E"/>
<path d="M19.8785 152.762C20.3524 152.349 20.8533 151.967 21.3779 151.62C21.8733 151.284 22.4115 151.016 22.9781 150.822C23.2656 150.387 23.5872 149.976 23.9399 149.591C24.5778 148.9 25.317 148.309 26.1323 147.84C26.0609 147.84 25.9895 147.84 25.9139 147.84C25.5278 147.819 25.1408 147.819 24.7547 147.84C23.9783 147.89 23.2172 148.079 22.5077 148.399C22.4657 148.399 22.4363 148.352 22.4783 148.336C23.1987 148.024 23.9527 147.798 24.7253 147.659C25.1008 147.591 25.4819 147.559 25.8635 147.563C26.0669 147.564 26.2702 147.575 26.4725 147.596H26.5901C27.2592 147.262 27.9636 147.002 28.6901 146.824L28.4885 146.769C28.132 146.691 27.7717 146.633 27.4091 146.593C26.684 146.511 25.9515 146.523 25.2293 146.626C25.1831 146.626 25.1705 146.563 25.2293 146.559C25.9592 146.469 26.6953 146.439 27.4301 146.471C28.0483 146.487 28.6632 146.566 29.2655 146.706C29.7037 146.624 30.1472 146.573 30.5927 146.555C33.1127 146.446 35.9057 147.395 37.4681 149.495C39.0305 151.595 39.3413 154.375 39.6185 156.895C40.0435 160.408 40.1377 163.953 39.8999 167.483C39.8999 167.693 39.5891 167.656 39.5849 167.458C39.4883 164.464 39.3833 161.465 39.0977 158.483C38.9633 157.101 38.8163 155.711 38.5853 154.342C38.4207 153.163 38.0825 152.015 37.5815 150.935C37.0417 149.83 36.1868 148.909 35.1245 148.289C34.0562 147.678 32.8655 147.313 31.6385 147.218C30.5397 147.126 29.4333 147.23 28.3709 147.525C28.4024 147.738 28.4024 147.955 28.3709 148.168C28.3494 148.439 28.2958 148.707 28.2113 148.966C28.1309 149.21 28.0282 149.446 27.9047 149.671C27.7703 149.923 27.6023 150.146 27.4511 150.385C27.4259 150.423 27.3671 150.385 27.3923 150.347C27.6925 149.919 27.8868 149.425 27.9593 148.907C28.0054 148.663 28.0349 148.416 28.0475 148.168C28.0475 147.979 28.0475 147.79 28.0475 147.601C26.8921 147.957 25.8138 148.527 24.8681 149.281C24.6875 149.423 24.5195 149.575 24.3515 149.73C24.5915 149.952 24.7993 150.206 24.9689 150.486C25.2183 150.852 25.4361 151.238 25.6199 151.641C25.9565 152.447 26.1839 153.295 26.2961 154.161C26.2961 154.203 26.2331 154.216 26.2289 154.161C26.0891 153.318 25.805 152.505 25.3889 151.759C25.1979 151.389 24.9818 151.032 24.7421 150.692C24.6203 150.515 24.4943 150.343 24.3599 150.175C24.2885 150.083 24.2129 149.99 24.1415 149.894C23.285 150.733 22.5852 151.719 22.0751 152.804C22.4154 153.168 22.6987 153.582 22.9151 154.031C23.1756 154.5 23.403 154.987 23.5955 155.488C23.95 156.46 24.2418 157.453 24.4691 158.462C24.4691 158.504 24.4061 158.516 24.3977 158.462C24.1778 157.442 23.8307 156.455 23.3645 155.522C23.1461 155.064 22.9193 154.615 22.6757 154.169C22.4233 153.763 22.1947 153.342 21.9911 152.909C21.5033 153.967 21.2184 155.107 21.1511 156.269C21.1485 156.277 21.1437 156.283 21.1373 156.288C21.1309 156.292 21.1232 156.295 21.1154 156.295C21.1075 156.295 21.0999 156.292 21.0935 156.288C21.0871 156.283 21.0822 156.277 21.0797 156.269C21.2141 154.439 21.7751 152.666 22.7177 151.091C22.2725 151.28 21.8231 151.46 21.3947 151.691C20.8479 151.984 20.3387 152.342 19.8785 152.758C19.8869 152.846 19.8449 152.792 19.8785 152.762Z" fill="#263238"/>
<path d="M20.6052 151.246C20.8924 150.971 21.2177 150.739 21.5712 150.557C21.9316 150.394 22.3054 150.262 22.6884 150.163C22.7304 150.163 22.743 150.221 22.6884 150.23C22.3121 150.331 21.9507 150.48 21.6132 150.675C21.2675 150.852 20.9361 151.056 20.622 151.284C20.618 151.283 20.6143 151.282 20.6111 151.279C20.6079 151.276 20.6054 151.273 20.6037 151.269C20.6021 151.266 20.6014 151.262 20.6016 151.258C20.6019 151.254 20.6031 151.25 20.6052 151.246Z" fill="#263238"/>
<path d="M32.9828 142.552C32.9828 142.552 32.2856 134.026 25.9478 131.263C20.6516 128.94 17.6402 134.904 21.3656 138.545C24.3938 141.49 29.2448 140.158 32.9828 142.552Z" fill="#FFC13E"/>
<path d="M22.5371 132.913C23.5014 133.304 24.4424 133.75 25.3553 134.249C26.1133 134.689 26.844 135.174 27.5435 135.702C27.4385 135.488 27.3461 135.261 27.2411 135.051C27.0773 134.719 26.8967 134.4 26.7035 134.085C26.3141 133.434 25.8442 132.834 25.3049 132.3C25.2755 132.271 25.3049 132.22 25.3553 132.254C25.8909 132.783 26.3825 133.354 26.8253 133.963C27.045 134.273 27.2469 134.596 27.4301 134.929C27.6159 135.235 27.7573 135.566 27.8501 135.912L27.9215 135.962C29.0289 136.844 30.0436 137.836 30.9497 138.923C30.9497 138.839 30.9119 138.755 30.8909 138.68C30.7733 138.26 30.6431 137.84 30.5087 137.42C30.2355 136.545 29.8501 135.709 29.3621 134.933C29.3369 134.896 29.3999 134.862 29.4209 134.9C29.9203 135.675 30.3638 136.485 30.7481 137.323C30.9172 137.733 31.0575 138.154 31.1681 138.583C31.2574 138.858 31.3262 139.138 31.3739 139.423C31.6469 139.772 31.9199 140.129 32.1761 140.49C34.8977 144.367 36.2627 149.05 36.5903 153.737C36.6854 155.135 36.7092 156.537 36.6617 157.937C36.652 159.345 36.527 160.749 36.2879 162.137C36.2879 162.225 36.1325 162.2 36.1367 162.112C36.1703 160.881 36.2963 159.655 36.3215 158.42C36.3467 157.185 36.3005 155.95 36.1997 154.72C36.0096 152.285 35.5604 149.877 34.8599 147.538C34.1203 145.112 33.0293 142.809 31.6217 140.7C31.3529 140.645 31.0883 140.574 30.8279 140.507C30.5675 140.44 30.1937 140.343 29.8787 140.255C29.2693 140.098 28.677 139.882 28.1105 139.608C28.1027 139.603 28.0972 139.595 28.0952 139.586C28.0932 139.577 28.0949 139.568 28.1 139.56C28.105 139.552 28.1129 139.546 28.1219 139.544C28.131 139.542 28.1405 139.544 28.1483 139.549C28.7063 139.853 29.3109 140.061 29.9375 140.167C30.4373 140.267 30.9497 140.33 31.4495 140.444C30.9875 139.776 30.5003 139.125 29.9753 138.508C28.7661 138.616 27.5473 138.525 26.3675 138.239C25.741 138.087 25.1251 137.895 24.5237 137.663C23.8853 137.42 23.2637 137.105 22.6589 136.844C22.6127 136.823 22.6589 136.752 22.6883 136.781C23.8231 137.399 25.0616 137.803 26.3423 137.974C27.473 138.155 28.6159 138.251 29.7611 138.26C29.3117 137.743 28.8497 137.239 28.3499 136.765C26.6699 135.181 24.7085 133.724 22.5161 132.964C22.4741 132.968 22.4951 132.896 22.5371 132.913Z" fill="#263238"/>
<path d="M27.6946 132.938C27.9797 133.299 28.2393 133.68 28.4716 134.077C28.7099 134.494 28.8975 134.938 29.0302 135.4H29.005C28.795 134.98 28.6144 134.56 28.4002 134.14C28.1908 133.73 27.9373 133.344 27.6442 132.989C27.6148 132.955 27.6652 132.905 27.6946 132.938Z" fill="#263238"/>
<path d="M37.9091 141.019C37.9469 141.385 38.8667 137.924 44.2091 134.849C49.0769 132.056 54.8855 124.79 50.1143 120.204C46.2797 116.5 36.1199 124.572 37.9091 141.019Z" fill="#FFC13E"/>
<path d="M34.2174 160.86C34.2914 157.255 34.5718 153.656 35.0574 150.083C35.4794 146.794 36.238 143.557 37.3212 140.423C37.7412 139.297 38.1612 138.188 38.6694 137.096C38.6433 136.677 38.6504 136.255 38.6904 135.836C38.7198 135.29 38.766 134.744 38.8164 134.198C38.8668 133.652 38.9214 133.111 38.9886 132.569C39.0558 132.027 39.1692 131.485 39.1902 130.943C39.1902 130.934 39.1938 130.926 39.2001 130.92C39.2064 130.913 39.2149 130.91 39.2238 130.91C39.2327 130.91 39.2413 130.913 39.2476 130.92C39.2539 130.926 39.2574 130.934 39.2574 130.943C39.1468 131.53 39.0808 132.124 39.06 132.72C39.0222 133.245 38.9928 133.77 38.976 134.295C38.9592 134.82 38.976 135.353 38.976 135.878C38.976 136.067 38.976 136.273 38.976 136.475C39.4842 135.408 40.0218 134.375 40.6056 133.342C40.2444 131.12 40.7148 128.797 41.1684 126.622C41.1684 126.58 41.244 126.601 41.2356 126.643C41.0133 127.777 40.8952 128.93 40.8828 130.087C40.8828 130.998 40.9038 131.914 40.908 132.825C41.0382 132.607 41.1642 132.405 41.2986 132.17C41.9916 131.036 42.735 129.923 43.5246 128.843C43.4595 128.316 43.4765 127.782 43.575 127.26C43.6639 126.675 43.793 126.097 43.9614 125.53C44.1336 124.963 44.331 124.404 44.5578 123.85C44.7846 123.295 45.0996 122.753 45.3222 122.17C45.3222 122.123 45.4104 122.17 45.3852 122.199C45.1 122.733 44.8746 123.296 44.7132 123.879C44.5414 124.431 44.4012 124.991 44.2932 125.559C44.1798 126.122 44.0874 126.689 44.0076 127.26C43.953 127.638 43.9194 128.029 43.8564 128.407C45.0025 126.866 46.2558 125.407 47.607 124.043C47.6406 124.009 47.6868 124.043 47.6574 124.093C45.6101 126.387 43.7821 128.867 42.1974 131.502L42.0252 131.8C42.3192 131.615 42.6552 131.468 42.9366 131.317C43.4532 131.027 43.974 130.742 44.499 130.456C45.024 130.171 45.5112 129.906 46.0152 129.616C46.2756 129.469 46.5318 129.318 46.7964 129.196C47.1137 129.057 47.4174 128.888 47.7036 128.692C47.7456 128.663 47.7876 128.726 47.7456 128.751C47.229 129.032 46.7754 129.452 46.2756 129.772C45.7758 130.091 45.2676 130.402 44.7468 130.691C43.7934 131.221 42.7602 131.603 41.8068 132.153C41.1558 133.291 40.5468 134.459 40.005 135.652C40.572 135.286 41.1558 134.938 41.7438 134.61C42.126 134.396 42.504 134.19 42.8904 133.984C43.2731 133.808 43.6351 133.589 43.9698 133.333C43.9769 133.33 43.9848 133.329 43.9925 133.33C44.0002 133.331 44.0073 133.335 44.0128 133.341C44.0184 133.346 44.022 133.353 44.0234 133.361C44.0247 133.369 44.0236 133.377 44.0202 133.384C43.4069 133.942 42.7286 134.424 42 134.82C41.3112 135.219 40.6182 135.61 39.9 135.958C39.3288 137.218 38.808 138.478 38.3502 139.797C36.078 146.16 35.2506 152.951 34.86 159.684C34.7424 161.692 34.6836 163.699 34.6584 165.711C34.6332 167.723 34.7382 169.722 34.734 171.73C34.734 171.788 34.6374 171.801 34.629 171.73C34.3854 169.949 34.3434 168.139 34.2678 166.345C34.1922 164.552 34.1796 162.7 34.2174 160.86Z" fill="#263238"/>
<path d="M43.9569 131.96C44.9359 131.528 45.8869 131.036 46.8045 130.486C47.7367 129.963 48.6397 129.389 49.5093 128.768C49.5093 128.768 49.5387 128.768 49.5093 128.793C48.6876 129.459 47.8203 130.067 46.9137 130.612C45.9635 131.14 44.9816 131.61 43.9737 132.019C43.9485 132.04 43.9149 131.977 43.9569 131.96Z" fill="#263238"/>
<path d="M42.4197 124.74C42.4995 124.429 42.5961 124.123 42.7011 123.816C42.6977 123.811 42.6959 123.805 42.6959 123.799C42.6959 123.793 42.6977 123.787 42.7011 123.782C42.7683 123.61 42.8397 123.438 42.9111 123.266L42.9364 123.203L42.9741 123.106C42.9489 123.106 42.9406 123.228 42.9196 123.287C42.9137 123.32 42.9038 123.353 42.8902 123.383C42.5378 124.575 42.2725 125.791 42.0964 127.021C42.0982 127.026 42.0989 127.031 42.0982 127.037C42.0975 127.042 42.0955 127.047 42.0924 127.051C42.0893 127.056 42.0852 127.06 42.0804 127.062C42.0756 127.065 42.0703 127.066 42.0648 127.066C42.0594 127.066 42.0541 127.065 42.0493 127.062C42.0445 127.06 42.0404 127.056 42.0373 127.051C42.0342 127.047 42.0322 127.042 42.0315 127.037C42.0308 127.031 42.0315 127.026 42.0333 127.021C42.0906 126.25 42.2199 125.486 42.4197 124.74Z" fill="#263238"/>
<path d="M28.5557 162.17L28.9379 166.702L30.1097 180.529H42.6509L43.8185 166.702L44.2007 162.17H28.5557Z" fill="#455A64"/>
<path d="M28.5557 162.17L28.9379 166.702H43.8185L44.2007 162.17H28.5557Z" fill="#263238"/>
<path d="M27.3293 164.699H45.4355V160.352H27.3293V164.699Z" fill="#455A64"/>
<circle cx="105" cy="195" r="15" fill="#FFC13E"/>
<path d="M102.335 198.138C104.089 198.142 105.136 196.757 105.136 194.371C105.136 191.999 104.082 190.628 102.335 190.628C100.587 190.628 99.5362 191.995 99.5327 194.371C99.5327 196.754 100.58 198.138 102.335 198.138ZM102.335 197.027C101.429 197.027 100.861 196.118 100.864 194.371C100.868 192.638 101.433 191.725 102.335 191.725C103.24 191.725 103.805 192.638 103.808 194.371C103.808 196.118 103.244 197.027 102.335 197.027ZM109.274 190.727H108.021L106.213 191.888V193.096L107.914 192.009H107.957V198H109.274V190.727Z" fill="#14212A"/>
</svg>
