<svg width="106" height="106" viewBox="0 0 106 106" fill="none" xmlns="http://www.w3.org/2000/svg">
<g filter="url(#filter0_d_803_33)">
<rect x="17" y="16.604" width="72" height="72" rx="36" stroke="#FFC13E" stroke-width="3"/>
<path d="M53 76.6132C53.0727 76.6132 53.1455 76.6132 53.2182 76.5404C65.0727 72.5404 73 61.4859 73 48.9768V36.2495C73 35.8132 72.7091 35.5222 72.2727 35.5222C60.8545 35.5222 53.9455 29.0495 53.4364 28.7586C53.1455 28.5404 52.8545 28.5404 52.5636 28.7586C52.0545 29.0495 45.0727 35.5222 33.7273 35.5222C33.2909 35.5222 33 35.8132 33 36.2495V48.9768C33 61.4859 40.9273 72.5404 52.7818 76.6132H53ZM34.4545 48.9768V36.9768C45.6545 36.6859 52.6364 30.4313 53 30.2132C53.4364 30.4313 60.2727 36.6859 71.5455 36.9768V48.9768C71.5455 60.7586 64.1273 71.2313 53 75.1586C41.8727 71.2313 34.4545 60.7586 34.4545 48.9768Z" fill="#263238"/>
<path d="M53.2915 72.6857C63.0369 68.8312 69.3642 59.5221 69.3642 48.9766V39.7403C69.3642 39.3766 69.0733 39.0857 68.7097 39.013C63.1824 38.4312 57.8733 36.4675 53.3642 33.2675C53.146 33.1221 52.7824 33.1221 52.5642 33.2675C48.0551 36.3948 42.746 38.3584 37.2188 39.013C36.8551 39.0857 36.5642 39.3766 36.5642 39.7403V48.9766C36.5642 59.5221 42.8915 68.8312 52.7097 72.6857C52.7824 72.6857 52.8551 72.7584 53.0006 72.7584C53.146 72.7584 53.146 72.7584 53.2915 72.6857ZM38.0915 48.9766V40.3221C43.4006 39.6675 48.5642 37.7039 53.0006 34.7221C57.4369 37.7039 62.6006 39.6675 67.9097 40.3221V48.9039C67.9097 58.7948 62.0915 67.5221 53.0006 71.2312C43.9097 67.5221 38.0915 58.7948 38.0915 48.9766Z" fill="#263238"/>
<path d="M61.6545 46.9407C61.3636 46.6498 60.9273 46.6498 60.6364 46.9407L49.8727 57.6316L45.5818 53.3407C45.2909 53.0498 44.8545 53.0498 44.5636 53.3407C44.2727 53.6316 44.2727 54.068 44.5636 54.3589L49.3636 59.1589C49.5091 59.3044 49.6546 59.3771 49.8727 59.3771C50.0909 59.3771 50.2364 59.3044 50.3818 59.1589L61.6545 47.8862C61.9455 47.668 61.9455 47.2316 61.6545 46.9407Z" fill="#263238"/>
</g>
<defs>
<filter id="filter0_d_803_33" x="0.5" y="0.104004" width="105" height="105" filterUnits="userSpaceOnUse" color-interpolation-filters="sRGB">
<feFlood flood-opacity="0" result="BackgroundImageFix"/>
<feColorMatrix in="SourceAlpha" type="matrix" values="0 0 0 0 0 0 0 0 0 0 0 0 0 0 0 0 0 0 127 0" result="hardAlpha"/>
<feOffset/>
<feGaussianBlur stdDeviation="7.5"/>
<feColorMatrix type="matrix" values="0 0 0 0 1 0 0 0 0 0.756863 0 0 0 0 0.243137 0 0 0 1 0"/>
<feBlend mode="normal" in2="BackgroundImageFix" result="effect1_dropShadow_803_33"/>
<feBlend mode="normal" in="SourceGraphic" in2="effect1_dropShadow_803_33" result="shape"/>
</filter>
</defs>
</svg>
