<svg width="106" height="106" viewBox="0 0 106 106" fill="none" xmlns="http://www.w3.org/2000/svg">
<g filter="url(#filter0_d_766_18)">
<rect x="17" y="16.604" width="72" height="72" rx="36" stroke="#FFC13E" stroke-width="3"/>
<path d="M52.9262 36.8862C53.3841 36.8862 53.7552 36.515 53.7552 36.0571V32.3595C53.7552 31.9017 53.3841 31.5305 52.9262 31.5305C52.4683 31.5305 52.0972 31.9017 52.0972 32.3595V36.0571C52.0973 36.515 52.4684 36.8862 52.9262 36.8862Z" fill="black"/>
<path d="M73.1911 60.0115L71.7265 58.5511C71.2056 58.0307 70.5112 57.7441 69.7713 57.7441C69.2982 57.7441 68.8441 57.8618 68.4416 58.0823L65.6818 55.3258L65.8162 55.1915C66.9359 54.0697 66.9354 52.2468 65.8162 51.1287C65.4162 50.728 64.9171 50.4608 64.373 50.3483C64.4479 50.0898 64.4874 49.8189 64.4874 49.5418C64.4874 48.7717 64.1882 48.0496 63.6467 47.5103C63.2467 47.1096 62.7476 46.8424 62.2036 46.7299C62.2785 46.4714 62.3179 46.2006 62.3179 45.9234C62.3179 45.1532 62.0188 44.4312 61.4764 43.8911C61.0668 43.482 60.5632 43.223 60.0345 43.1128C60.3174 42.1375 60.0757 41.0403 59.3085 40.2718C58.6698 39.6359 57.8033 39.3626 56.9681 39.4512L51.4993 38.416C50.6653 38.2578 49.6237 38.1532 48.9662 38.7528C48.9247 38.7907 48.8824 38.8343 48.8407 38.8827C47.8213 38.5112 46.6323 38.7324 45.8159 39.5479C45.2744 40.0888 44.976 40.8106 44.976 41.5802C44.976 41.8575 45.0153 42.1282 45.0901 42.3869C44.5467 42.4993 44.0482 42.7661 43.6496 43.1655C43.1069 43.706 42.8077 44.4269 42.8071 45.1957C42.8069 45.4736 42.8463 45.7452 42.9215 46.0045C42.3778 46.1167 41.8791 46.383 41.4792 46.7825C40.9365 47.3245 40.6377 48.0467 40.6377 48.816C40.6377 49.4052 40.8136 49.9665 41.1396 50.4407C40.728 50.5802 40.351 50.8124 40.0353 51.1278C38.9149 52.2468 38.9145 54.0698 40.036 55.1933L40.17 55.3266L37.4098 58.0818C36.384 57.5988 35.1202 57.7797 34.2737 58.6251L32.8083 60.0865C32.287 60.607 32.0001 61.3015 32 62.0418C32 62.7821 32.287 63.4767 32.8083 63.9973L34.6372 65.824C34.9611 66.1476 35.486 66.1472 35.8095 65.8233C36.1331 65.4994 36.1328 64.9745 35.8089 64.6509L33.98 62.8243C33.7724 62.6169 33.6581 62.339 33.6581 62.0419C33.6581 61.7448 33.7724 61.4669 33.9795 61.2601L35.445 59.7987C35.8112 59.4329 36.3716 59.3784 36.7972 59.6329C36.8272 59.6779 36.8618 59.7207 36.9015 59.7605C36.9725 59.8317 37.0536 59.8863 37.1397 59.9262L45.5439 68.318C45.5838 68.405 45.6386 68.4869 45.7102 68.5585C45.7798 68.6282 45.8592 68.6822 45.9435 68.7218C46.1213 68.9228 46.2195 69.1795 46.2195 69.4532C46.2195 69.7504 46.1051 70.0282 45.8975 70.2356L44.4335 71.6979C44.0009 72.1286 43.2972 72.1285 42.866 71.6992L41.0371 69.8702C40.7133 69.5464 40.1885 69.5464 39.8647 69.8702C39.541 70.1939 39.541 70.7188 39.8647 71.0426L41.6949 72.8729C42.2336 73.4094 42.941 73.6775 43.6488 73.6775C44.3568 73.6775 45.065 73.409 45.6044 72.872L47.0693 71.4088C47.5906 70.8881 47.8776 70.1937 47.8776 69.4532C47.8776 68.9248 47.7307 68.4202 47.4575 67.9851L50.5638 64.8825C50.5671 64.8791 50.5704 64.8758 50.5738 64.8724C50.9295 64.5047 51.92 64.5735 52.878 64.64C53.5586 64.6873 54.3174 64.7399 55.0588 64.6545L58.4605 68.0522C58.2401 68.454 58.1225 68.9076 58.1225 69.3799C58.1225 70.1195 58.4095 70.8136 58.9308 71.3342L60.3958 72.7974C60.9167 73.3178 61.6111 73.6044 62.351 73.6044C63.0907 73.6044 63.7851 73.3179 64.3061 72.7974L73.1917 63.9227C73.7129 63.4021 73.9999 62.7076 73.9999 61.9673C73.9999 61.227 73.7128 60.5325 73.1911 60.0115ZM51.1906 40.0451L54.7869 40.7258L52.6343 42.8775C52.3013 42.7175 51.845 42.419 51.3443 41.9401C50.659 41.2845 50.1688 40.5276 50.1242 40.0555C50.1241 40.0552 50.1241 40.055 50.1241 40.0547C50.1241 40.0546 50.124 40.0546 50.124 40.0545C50.1208 40.0206 50.12 39.9935 50.1204 39.9728C50.2288 39.9465 50.5167 39.9172 51.1906 40.0451ZM46.9876 40.721C47.4076 40.3014 48.06 40.253 48.5346 40.5744C48.8035 41.702 49.7654 42.724 50.1982 43.138C50.5189 43.4449 51.548 44.365 52.5866 44.6179C52.7272 44.8193 52.8036 45.0594 52.8036 45.3128C52.8036 45.6392 52.6781 45.9444 52.4493 46.1729C52.2212 46.4014 51.9156 46.5272 51.5886 46.5272C51.2616 46.5272 50.9559 46.4014 50.7267 46.1718L50.7267 46.1717L50.7262 46.1713L46.9875 42.4393C46.7596 42.2117 46.634 41.9066 46.634 41.5802C46.6341 41.2539 46.7596 40.9487 46.9876 40.721ZM44.8213 44.3387C45.0494 44.1102 45.3547 43.9844 45.6812 43.9844C46.0081 43.9844 46.3144 44.1105 46.544 44.3398L49.5545 47.3444C50.0286 47.8192 50.0286 48.5918 49.5562 49.065C49.3268 49.2934 49.0201 49.4192 48.6926 49.4192C48.365 49.4192 48.0583 49.2934 47.83 49.066L47.8299 49.0659L45.5459 46.7825C45.5424 46.7789 45.5385 46.7756 45.5349 46.772L44.8204 46.0578C44.5911 45.8288 44.4649 45.5231 44.4652 45.1969C44.4655 44.8718 44.5913 44.5677 44.8213 44.3387ZM42.6509 47.9556C42.8791 47.7276 43.1851 47.6021 43.5126 47.6021C43.8373 47.6021 44.1407 47.7258 44.368 47.9498L46.6589 50.2397C46.8873 50.4672 47.0132 50.772 47.0132 51.098C47.0132 51.4239 46.8873 51.7287 46.658 51.9572C46.4298 52.185 46.1241 52.3106 45.7973 52.3106C45.4699 52.3106 45.1632 52.1847 44.9347 51.9572L44.1042 51.1276C44.104 51.1274 44.1038 51.1272 44.1036 51.1271L42.651 49.6761C42.4219 49.4474 42.2958 49.1418 42.2958 48.8158C42.2958 48.4899 42.4219 48.1843 42.6509 47.9556ZM41.207 52.3008C41.4363 52.0718 41.7427 51.9457 42.0697 51.9457C42.3967 51.9457 42.703 52.0718 42.9322 52.3006L43.7638 53.1313C43.9923 53.3588 44.1181 53.6636 44.1181 53.9896C44.1181 54.3156 43.9923 54.6203 43.7621 54.8497C43.534 55.0781 43.2283 55.204 42.9014 55.204C42.5743 55.204 42.2687 55.0782 42.0389 54.848L41.9348 54.7443C41.9334 54.7429 41.9323 54.7414 41.931 54.7401C41.9294 54.7386 41.9278 54.7373 41.9262 54.7358L41.2078 54.0202C40.7338 53.5452 40.7333 52.7739 41.207 52.3008ZM58.1016 61.7229C57.778 61.3989 57.253 61.3986 56.9292 61.7221L56.1916 62.4588C55.4908 63.1597 54.2208 63.0714 52.9927 62.9862C51.6591 62.8935 50.28 62.7979 49.3876 63.7141L46.334 66.764L38.6979 59.1391L41.4002 56.4416C41.8469 56.7153 42.3623 56.8621 42.9015 56.8621C43.672 56.8621 44.3944 56.5635 44.934 56.0229C45.4772 55.4819 45.7764 54.7599 45.7764 53.9897C45.7764 53.9825 45.7759 53.9755 45.7759 53.9683C45.7831 53.9684 45.7903 53.9688 45.7974 53.9688C46.5668 53.9688 47.2886 53.671 47.829 53.1314C48.3722 52.5904 48.6714 51.8683 48.6714 51.0982C48.6714 51.091 48.6709 51.0839 48.6709 51.0768C48.6782 51.0768 48.6854 51.0773 48.6927 51.0773C49.4618 51.0773 50.1841 50.7798 50.7281 50.2381C51.2928 49.6725 51.5721 48.9278 51.5667 48.1848C51.5741 48.1848 51.5815 48.1852 51.5889 48.1852C52.3594 48.1852 53.0817 47.8866 53.6221 47.3452C54.1637 46.8043 54.462 46.0825 54.462 45.3128C54.462 44.7745 54.3157 44.26 54.0428 43.8142L56.4113 41.4466C56.5878 41.2709 56.8055 41.1606 57.0336 41.1151C57.0583 41.1124 57.0826 41.1085 57.1068 41.1037C57.4728 41.0532 57.8571 41.1662 58.137 41.4449C58.6111 41.9198 58.6111 42.6925 58.1387 43.1656L57.4173 43.884C57.415 43.8864 57.4124 43.8885 57.41 43.8909L56.5792 44.7204C56.2552 45.0439 56.2548 45.5688 56.5784 45.8928C56.9021 46.2168 57.427 46.217 57.7508 45.8935L58.4751 45.1702C58.4752 45.1701 58.4754 45.1699 58.4756 45.1697L58.585 45.0607C59.0604 44.5896 59.8306 44.5906 60.3055 45.0649C60.534 45.2924 60.6599 45.5972 60.6599 45.9232C60.6599 46.2491 60.534 46.5539 60.3037 46.7833L59.5782 47.5102C59.5781 47.5103 59.578 47.5104 59.578 47.5106L58.7472 48.3379C58.4228 48.661 58.4217 49.186 58.7448 49.5103C59.0679 49.8347 59.5928 49.8357 59.9172 49.5127L60.7517 48.6815C60.9799 48.453 61.2855 48.3272 61.6125 48.3272C61.9395 48.3272 62.2453 48.453 62.475 48.6832C62.7035 48.9108 62.8293 49.2156 62.8293 49.5416C62.8293 49.8675 62.7035 50.1723 62.4737 50.4012L61.0273 51.8481C60.7037 52.1719 60.7038 52.6968 61.0275 53.0205C61.1894 53.1823 61.4015 53.2631 61.6136 53.2631C61.8258 53.2631 62.0381 53.1821 62.1999 53.0202L62.9087 52.3111C62.9128 52.3073 62.9171 52.3039 62.9212 52.2999C63.1493 52.0713 63.4549 51.9456 63.7819 51.9456C64.1089 51.9456 64.4146 52.0713 64.6435 52.3007C65.1171 52.7738 65.1167 53.5451 64.6435 54.0191L63.9228 54.739C63.9226 54.7392 63.9222 54.7395 63.922 54.7397C63.9218 54.7399 63.9215 54.7403 63.9213 54.7405L62.7774 55.883C62.4534 56.2066 62.4531 56.7316 62.7766 57.0555C62.9385 57.2176 63.1509 57.2987 63.3632 57.2987C63.5752 57.2987 63.7872 57.2178 63.9491 57.0562L64.5086 56.4974L67.1903 59.1759L59.5548 66.8021L56.8191 64.0696C57.0098 63.947 57.1923 63.8027 57.3636 63.6314L58.1008 62.8952C58.4248 62.5717 58.4252 62.0468 58.1016 61.7229ZM72.0198 62.7495L63.1343 71.6243C62.9264 71.8319 62.6482 71.9463 62.3509 71.9463C62.0535 71.9463 61.7753 71.8319 61.5674 71.6242L60.1023 70.161C59.8947 69.9537 59.7804 69.6763 59.7804 69.3799C59.7804 69.0836 59.8947 68.8061 60.1023 68.5988L68.9879 59.724C69.1958 59.5163 69.474 59.402 69.7714 59.402C70.0687 59.402 70.347 59.5163 70.5554 59.7245L72.0199 61.1849C72.2275 61.3923 72.3419 61.67 72.3419 61.9672C72.3418 62.2644 72.2275 62.5423 72.0198 62.7495Z" fill="black"/>
<path d="M41.9181 36.1874C42.08 36.3489 42.2919 36.4296 42.5037 36.4296C42.7161 36.4296 42.9286 36.3484 43.0905 36.1862C43.4139 35.8621 43.4135 35.3372 43.0894 35.0138L40.0684 31.9989C39.7444 31.6754 39.2195 31.6758 38.8961 32C38.5726 32.3241 38.5731 32.849 38.8972 33.1724L41.9181 36.1874Z" fill="black"/>
<path d="M63.3493 36.4296C63.5612 36.4296 63.7733 36.3487 63.9351 36.1871L66.9538 33.1721C67.2777 32.8486 67.278 32.3237 66.9544 31.9997C66.6309 31.6758 66.106 31.6755 65.782 31.9991L62.7634 35.0141C62.4395 35.3376 62.4392 35.8625 62.7628 36.1865C62.9247 36.3485 63.137 36.4296 63.3493 36.4296Z" fill="black"/>
<path d="M37.0974 67.1912C36.7765 67.5177 36.7809 68.0426 37.1075 68.3636L37.1099 68.3659C37.271 68.5243 37.4801 68.6031 37.6892 68.6031C37.9038 68.6031 38.1184 68.5201 38.281 68.3547C38.602 68.0282 38.5963 67.5021 38.2698 67.1812C37.9434 66.8602 37.4186 66.8647 37.0974 67.1912Z" fill="black"/>
<path d="M60.1292 60.5288C60.2553 60.5288 60.3833 60.5 60.5034 60.4395C60.9122 60.2333 61.0764 59.7348 60.8703 59.326C60.6641 58.9172 60.1655 58.7529 59.7567 58.9591L59.7521 58.9614C59.3433 59.1676 59.1814 59.665 59.3875 60.0738C59.5331 60.3626 59.8258 60.5288 60.1292 60.5288Z" fill="black"/>
</g>
<defs>
<filter id="filter0_d_766_18" x="0.5" y="0.104004" width="105" height="105" filterUnits="userSpaceOnUse" color-interpolation-filters="sRGB">
<feFlood flood-opacity="0" result="BackgroundImageFix"/>
<feColorMatrix in="SourceAlpha" type="matrix" values="0 0 0 0 0 0 0 0 0 0 0 0 0 0 0 0 0 0 127 0" result="hardAlpha"/>
<feOffset/>
<feGaussianBlur stdDeviation="7.5"/>
<feColorMatrix type="matrix" values="0 0 0 0 1 0 0 0 0 0.756863 0 0 0 0 0.243137 0 0 0 1 0"/>
<feBlend mode="normal" in2="BackgroundImageFix" result="effect1_dropShadow_766_18"/>
<feBlend mode="normal" in="SourceGraphic" in2="effect1_dropShadow_766_18" result="shape"/>
</filter>
</defs>
</svg>
